<svg width="367" height="268" viewBox="0 0 367 268" fill="none" xmlns="http://www.w3.org/2000/svg">
<path d="M363.97 204.217C362.281 197.032 359.846 190.212 356.643 183.776C353.454 177.339 349.511 171.416 344.815 166.02C342.633 163.511 339.626 160.201 334.968 156.846C332.656 155.176 329.369 153.102 325.102 151.262C322.51 152.503 319.042 154.395 315.294 157.204C310.676 160.663 307.694 163.927 305.739 166.157C301.011 171.559 297.036 177.476 293.846 183.919C290.651 190.349 288.241 197.143 286.597 204.282C284.954 211.42 284.129 219.346 284.129 226.484H294.548C294.639 219.528 295.444 212.006 296.938 205.478C298.439 198.944 300.621 192.839 303.485 187.157C306.35 181.474 309.916 176.325 314.183 171.722C317.476 168.172 321.257 165.214 325.297 162.561C329.35 165.227 333.137 168.211 336.43 171.8C340.704 176.449 344.289 181.617 347.193 187.3C350.109 192.982 352.285 199.093 353.74 205.621C355.201 212.155 355.981 219.625 356.072 226.491H366.49C366.51 219.352 365.659 211.407 363.97 204.217Z" fill="white"/>
<path d="M3.04945 176.254C4.73824 183.438 7.174 190.258 10.3762 196.694C13.5654 203.131 17.5081 209.054 22.2042 214.45C24.3867 216.96 27.394 220.269 32.0512 223.624C34.3635 225.295 37.6502 227.369 41.9176 229.209C44.5093 227.967 47.9778 226.075 51.7256 223.266C56.3438 219.807 59.3252 216.544 61.2803 214.314C66.0089 208.911 69.984 202.994 73.1733 196.551C76.369 190.121 78.7787 183.327 80.4221 176.189C82.0654 169.05 82.8903 160.806 82.8903 153.667H72.4718C72.3808 160.624 71.5754 168.465 70.0815 174.992C68.581 181.526 66.3986 187.631 63.5342 193.314C60.6697 198.996 57.1038 204.145 52.8363 208.748C49.5432 212.298 45.7629 215.256 41.7228 217.909C37.6697 215.243 33.8829 212.259 30.5897 208.67C26.3158 204.022 22.7304 198.853 19.8269 193.171C16.9105 187.488 14.7346 181.377 13.2796 174.849C11.8182 168.315 11.0387 160.526 10.9478 153.661H0.509766C0.509766 160.799 1.36066 169.063 3.04945 176.254Z" fill="white"/>
<path d="M105.806 153.661H95.5302V226.504H105.806V153.661Z" fill="white"/>
<path d="M185.289 162.47C181.912 158.855 177.833 156.079 173.033 154.155C168.246 152.23 162.848 151.268 156.84 151.268C150.832 151.268 145.46 152.23 140.718 154.155C135.977 156.079 131.943 158.855 128.611 162.47C125.279 166.092 122.713 170.454 120.934 175.577C119.154 180.701 118.264 186.5 118.264 192.989V226.51H128.26V192.566C128.26 187.586 128.89 183.145 130.157 179.244C131.43 175.35 133.307 172.034 135.795 169.31C138.276 166.586 141.283 164.492 144.81 163.036C148.331 161.58 152.339 160.851 156.846 160.851C161.263 160.851 165.245 161.586 168.824 163.036C172.39 164.492 175.391 166.586 177.833 169.31C180.269 172.034 182.165 175.35 183.529 179.244C184.893 183.145 185.569 187.586 185.569 192.566V226.51H195.708V192.989C195.708 186.598 194.812 180.818 193.032 175.649C191.252 170.48 188.667 166.092 185.289 162.47Z" fill="white"/>
<path d="M226.899 169.232C229.627 166.644 232.842 164.603 236.544 163.101C240.253 161.599 244.313 160.845 248.73 160.845C253.146 160.845 257.316 161.645 261.266 163.244C265.202 164.837 268.677 167.138 271.684 170.149L277.173 162.815C273.509 159.148 269.144 156.313 264.078 154.285C259.005 152.263 253.601 151.255 247.879 151.255C242.254 151.255 237.012 152.243 232.186 154.213C227.347 156.183 223.144 158.914 219.578 162.386C216.012 165.864 213.22 169.98 211.206 174.719C209.186 179.465 208.173 184.608 208.173 190.154C208.173 195.7 209.186 200.868 211.206 205.654C213.22 210.452 216.012 214.587 219.578 218.058C223.144 221.537 227.373 224.261 232.257 226.231C237.135 228.207 242.39 229.189 248.028 229.189C253.666 229.189 259.012 228.181 264.085 226.159C269.151 224.137 273.516 221.296 277.179 217.629L271.691 210.296C268.872 213.208 265.442 215.49 261.402 217.135C257.368 218.78 253.146 219.606 248.73 219.606C244.313 219.606 240.26 218.858 236.544 217.35C232.842 215.841 229.627 213.78 226.899 211.147C224.184 208.514 222.04 205.419 220.494 201.844C218.942 198.274 218.162 194.38 218.162 190.147C218.162 185.915 218.942 182.02 220.494 178.451C222.04 174.895 224.177 171.82 226.899 169.232Z" fill="white"/>
<path d="M72.5367 246.938H87.2162V248.174H73.8358V255.943H84.8779V257.178H73.8358V268.003H72.5367V246.938Z" fill="white"/>
<path d="M125.487 246.938H126.201L136.659 267.997H135.295L133.021 263.413H118.667L116.393 267.997H115.029L125.487 246.938ZM132.404 262.21L127.598 252.458L125.844 248.687C125.26 250.033 124.675 251.301 124.09 252.491L119.251 262.21H132.404Z" fill="white"/>
<path d="M168.83 246.938H177.209C179.872 246.938 181.996 247.679 183.575 249.168C185.153 250.651 185.946 252.497 185.946 254.708C185.946 256.378 185.478 257.861 184.536 259.161C183.594 260.461 182.282 261.385 180.593 261.924L185.952 268.003H184.198L179.229 262.314C178.69 262.399 177.248 262.444 174.91 262.444H170.136V268.003H168.837V246.938H168.83ZM177.469 261.203C179.528 261.203 181.223 260.578 182.568 259.317C183.913 258.062 184.582 256.522 184.582 254.701C184.582 252.861 183.919 251.307 182.581 250.052C181.249 248.798 179.554 248.167 177.502 248.167H170.129V261.203H177.469Z" fill="white"/>
<path d="M222.599 252.139L220.553 249.279V267.997H219.254V246.938H220.39L229.971 260.136L239.552 246.938H240.688V267.997H239.389V249.279L237.343 252.139L229.971 262.282L222.599 252.139Z" fill="white"/>
<path d="M283.311 246.938H284.025L294.483 267.997H293.119L290.845 263.413H276.491L274.217 267.997H272.853L283.311 246.938ZM290.228 262.21L285.422 252.458L283.668 248.687C283.084 250.033 282.499 251.301 281.914 252.491L277.075 262.21H290.228Z" fill="white"/>
<path d="M271.795 37.3937C270.937 34.1689 269.242 31.1262 266.715 28.5971L259.785 21.647L242.449 4.31385C241.273 3.13707 239.909 2.16834 238.389 1.42717C236.473 0.510448 234.316 -0.00317383 232.056 -0.00317383C229.783 -0.00317383 227.626 0.516949 225.71 1.42717C224.19 2.16184 222.826 3.13057 221.65 4.31385L203.126 22.8432C201.84 24.5271 200.333 26.0485 198.65 27.3358L197.176 28.3956C194.227 30.3655 190.83 31.7113 187.167 32.251C185.978 32.4395 184.757 32.524 183.516 32.524C182.276 32.524 181.061 32.433 179.872 32.251C176.209 31.7243 172.812 30.3655 169.863 28.3956C169.356 28.077 168.863 27.7259 168.389 27.3358C166.739 26.068 165.245 24.5726 163.978 22.9213L149.201 8.12375L148.857 7.78567L145.395 4.32035C144.219 3.14357 142.842 2.16184 141.329 1.43367C139.406 0.516949 137.256 0.00332771 134.996 0.00332771C132.729 0.00332771 130.573 0.523451 128.663 1.43367C127.143 2.16834 125.779 3.13707 124.603 4.32035L121.128 7.78567L100.33 28.6036L100.35 28.6231C97.94 31.0027 96.1603 34.0194 95.2445 37.3872C94.8028 39.0191 94.5624 40.742 94.5624 42.5169C94.5624 44.2658 94.7963 45.9757 95.225 47.5816V47.5946C96.0304 50.5983 97.5243 53.3095 99.5379 55.5655L107.267 63.2958L128.072 84.1203L173.052 129.143C173.072 129.176 173.104 129.208 173.137 129.241C173.169 129.273 173.195 129.293 173.228 129.332C173.247 129.351 173.26 129.364 173.286 129.384C173.306 129.397 173.319 129.416 173.338 129.429C174.507 130.561 175.813 131.458 177.196 132.115C181.197 134.033 185.874 134.033 189.875 132.115C191.259 131.451 192.571 130.561 193.733 129.429C193.766 129.41 193.811 129.364 193.844 129.332L193.935 129.241C193.967 129.208 194 129.176 194.026 129.143L211.277 111.888L232.082 91.0704L252.887 70.246L266.748 56.3587C269.274 53.8296 270.97 50.7869 271.827 47.5621C272.684 44.2333 272.684 40.7225 271.795 37.3937ZM260.135 49.0574C260.012 49.181 259.902 49.298 259.785 49.4215L225.112 84.1138L204.308 104.938L190.447 118.819L187.037 122.219C187.024 122.239 187.004 122.265 186.985 122.284C186.965 122.304 186.939 122.33 186.92 122.336C185.004 124.196 181.938 124.176 180.048 122.284L107.923 50.1042C107.683 49.9092 107.443 49.6881 107.222 49.467C107.001 49.246 106.793 49.0184 106.605 48.7844C105.208 47.0875 104.364 44.8965 104.364 42.5299C104.364 39.8123 105.475 37.3417 107.267 35.5603L107.254 35.5472L114.185 28.6101L119.212 23.5649L121.707 21.0683L128.052 14.7293L131.514 11.264C132.391 10.3733 133.625 9.82065 134.977 9.82065C136.328 9.82065 137.562 10.3733 138.439 11.264L141.901 14.7293L148.247 21.0683L159.23 32.0754C160.386 33.2327 161.627 34.312 162.945 35.2872C165.661 37.3352 168.7 38.9866 171.968 40.1438C175.469 41.3986 179.229 42.0943 183.153 42.1398H183.835C187.758 42.0943 191.532 41.4051 195.033 40.1438C198.3 38.9866 201.333 37.3352 204.055 35.3002C205.263 34.3965 206.399 33.4147 207.465 32.3745C207.517 32.329 207.562 32.2835 207.62 32.2315C207.718 32.1339 207.809 32.0364 207.906 31.9324L211.238 28.6101L225.099 14.7228L228.575 11.2575C229.464 10.3668 230.686 9.81415 232.037 9.81415C233.388 9.81415 234.609 10.3668 235.499 11.2575L259.401 35.1962C259.525 35.3197 259.642 35.4302 259.765 35.5472C259.889 35.6708 259.999 35.7878 260.116 35.9113C263.487 39.6302 263.487 45.3191 260.135 49.0574Z" fill="white"/>
</svg>
