<?xml version="1.0" encoding="UTF-8"?>
<svg id="Camada_1" data-name="Camada 1" xmlns="http://www.w3.org/2000/svg" viewBox="0 0 1732 248">
  <defs>
    <style>
      .cls-1 {
        fill: #fff;
      }
    </style>
  </defs>
  <g>
    <path class="cls-1" d="M964.08,49.9c-9.67,0-19.48,2.31-29.46,6.96-9.96,4.64-17.22,11-21.75,19.09V15.94c0-2.3-1.87-4.17-4.17-4.17h-22.17c-2.3,0-4.17,1.87-4.17,4.17v178.98c0,2.3,1.87,4.17,4.17,4.17h24.55l1.78-23.08c10.64,17.36,27.52,26.05,50.6,26.05,21.71,0,39.57-6.82,53.59-20.43,14.02-13.62,21.01-32.17,21.01-55.66s-6.91-42.77-20.72-56.09c-13.81-13.32-31.57-19.98-53.28-19.98ZM994.28,160.46c-8.88,8.77-19.83,13.16-32.85,13.16s-24.33-4.44-33.31-13.32c-8.98-8.88-13.47-20.32-13.47-34.34s4.54-25.16,13.62-34.03c9.07-8.88,20.12-13.32,33.16-13.32s24.21,4.23,33.01,12.72c8.77,8.5,13.16,20.03,13.16,34.63s-4.44,25.71-13.32,34.5Z"/>
    <path class="cls-1" d="M1129.69,48.81c-22.69,0-41.15,7.11-55.35,21.32-14.21,14.21-21.32,32.47-21.32,54.77,0,23.48,7.15,42.22,21.47,56.24,14.29,14.02,33.4,21.01,57.27,21.01,11.84,0,23.43-2.18,34.79-6.51,10.44-3.99,19.18-9.49,26.19-16.51.99-.99.94-2.66-.07-3.63l-15.98-15.51c-1.13-1.1-2.78-1.07-3.94,0-4.18,3.86-9.69,7.01-16.57,9.47-7.99,2.86-15.94,4.28-23.82,4.28-13.23,0-24.13-3.36-32.71-10.06-8.59-6.72-13.57-15.59-14.94-26.65h115.57c1.59,0,2.96-1.32,3.08-2.9,2.13-27.38-3.37-48.31-16.53-62.82-13.62-14.99-32.66-22.5-57.13-22.5ZM1085.29,111.28c2.36-11.24,7.64-19.93,15.83-26.05,8.19-6.12,18.01-9.17,29.46-9.17,12.42,0,22.53,3.05,30.35,9.17,7.78,6.12,12.08,14.81,12.87,26.05h-88.51Z"/>
    <path class="cls-1" d="M1295.5,48.81c-22.69,0-41.15,7.11-55.35,21.32-14.21,14.21-21.32,32.47-21.32,54.77,0,23.48,7.15,42.22,21.47,56.24,14.29,14.02,33.4,21.01,57.27,21.01,11.84,0,23.43-2.18,34.79-6.51,10.44-3.99,19.18-9.49,26.19-16.51.99-.99.94-2.66-.07-3.63l-15.98-15.51c-1.13-1.1-2.78-1.07-3.94,0-4.18,3.86-9.69,7.01-16.57,9.47-7.99,2.86-15.94,4.28-23.82,4.28-13.23,0-24.13-3.36-32.71-10.06-8.59-6.72-13.57-15.59-14.94-26.65h115.57c1.59,0,2.96-1.32,3.08-2.9,2.13-27.38-3.37-48.31-16.53-62.82-13.62-14.99-32.66-22.5-57.13-22.5ZM1252.32,111.28c2.36-11.24,7.64-19.93,15.83-26.05,8.19-6.12,18.01-9.17,29.46-9.17,12.42,0,22.53,3.05,30.35,9.17,7.78,6.12,12.08,14.81,12.87,26.05h-88.51Z"/>
    <path class="cls-1" d="M635.76,46.28c-44.11,0-80.06,34.6-80.06,77.7s35.95,77.68,80.06,77.68,79.38-34.94,79.38-77.68-35.61-77.7-79.38-77.7ZM635.76,175.88c-27.49,0-49.87-23.41-49.87-51.91s22.38-52.25,49.87-52.25,49.53,23.41,49.53,52.25-22.05,51.91-49.53,51.91Z"/>
    <path class="cls-1" d="M864.63,49h-26.44c-1.22,0-2.32.74-2.78,1.87l-42.94,105.94c-1.01,2.5-4.54,2.5-5.56,0l-42.94-105.94c-.46-1.13-1.56-1.87-2.78-1.87h-26.44c-1.78,0-2.98,1.83-2.26,3.46l63.18,144.35c.48,1.09,1.56,1.8,2.75,1.8h22.54c1.19,0,2.27-.7,2.75-1.8l63.18-144.35c.71-1.63-.48-3.46-2.26-3.46Z"/>
  </g>
  <path class="cls-1" d="M399.92,59.86l-60.61,100.57c-.69,1.16-2.47.67-2.48-.68l-.15-87.11c0-11.07-6.69-20.26-16.82-23.06-9.81-2.81-19.93,1.39-25.39,10.28l-22.46,37.14c-.98,1.63-.36,3.78,1.36,4.63l18.09,8.92c1.52.76,3.37.22,4.25-1.24l11.52-18.93c.78-1.39,3.27-.93,3.27.62v84.9c0,11.06,6.86,20.41,16.99,23.37,2.02.46,4.04.62,5.91.62,7.95,0,15.27-4.21,19.47-11.22l59.82-98.3c.78-1.39,3.27-.93,3.27.62v84.74c0,11.22,7.01,20.71,17.45,23.37,9.97,2.49,20.4-2.04,25.39-11.37l52.85-97.43c.72-1.34,2.76-.83,2.76.69v105.31c0,1.71,1.4,3.11,3.11,3.11h19.94c1.72,0,3.11-1.4,3.11-3.11v-123.68c0-11.22-7.01-20.41-17.44-23.06-9.97-2.65-20.25,1.87-25.39,11.36l-54.17,99.54c-.39.7-1.44.43-1.44-.37v-87.48c0-11.07-6.7-20.26-16.83-23.06-2.04-.58-4.08-.86-6.1-.86-7.71,0-14.97,4.1-19.3,11.14"/>
  <g>
    <path class="cls-1" d="M1428.68,49.6v3.43h-8.84v24.13h-3.63v-24.13h-8.84v-3.43h21.3Z"/>
    <path class="cls-1" d="M1443.69,77.64c-2.09,0-3.99-.48-5.7-1.44-1.71-.96-3.06-2.28-4.03-3.97-.97-1.68-1.47-3.56-1.47-5.63v-17.01h3.65v16.93c0,2.16.72,3.96,2.15,5.41,1.44,1.45,3.24,2.18,5.39,2.18s3.98-.72,5.42-2.18c1.44-1.45,2.16-3.25,2.16-5.41v-16.93h3.63v17.01c0,2.07-.48,3.94-1.46,5.63-.97,1.69-2.32,3.01-4.03,3.97s-3.62,1.44-5.73,1.44Z"/>
    <path class="cls-1" d="M1471.41,49.6c2.63,0,5,.6,7.14,1.79,2.13,1.2,3.8,2.84,5.01,4.95,1.2,2.1,1.81,4.44,1.81,7.03s-.61,4.94-1.81,7.04c-1.21,2.11-2.88,3.76-5.01,4.95-2.14,1.2-4.51,1.79-7.14,1.79h-10.63v-27.56h10.63ZM1471.37,73.72c2.91,0,5.35-.99,7.32-2.97,1.96-1.98,2.95-4.44,2.95-7.39,0-1.94-.45-3.69-1.34-5.27s-2.12-2.82-3.68-3.71c-1.57-.9-3.32-1.35-5.24-1.35h-6.92v20.69h6.92Z"/>
    <path class="cls-1" d="M1503.26,77.64c-2.03,0-3.94-.37-5.72-1.1-1.78-.74-3.31-1.73-4.59-2.99-1.28-1.26-2.27-2.78-3.01-4.54-.74-1.76-1.1-3.64-1.1-5.65,0-2.66.62-5.08,1.87-7.26,1.25-2.18,2.98-3.89,5.18-5.13,2.2-1.24,4.66-1.86,7.36-1.86s5.16.62,7.36,1.86c2.2,1.24,3.93,2.95,5.19,5.13,1.25,2.18,1.88,4.6,1.88,7.26s-.63,5.09-1.88,7.28c-1.26,2.18-2.99,3.9-5.19,5.14-2.21,1.24-4.66,1.86-7.36,1.86ZM1497.83,72.71c1.63.93,3.44,1.41,5.43,1.41s3.8-.47,5.43-1.41c1.63-.94,2.91-2.23,3.84-3.87.93-1.64,1.39-3.47,1.39-5.47s-.47-3.83-1.39-5.47c-.93-1.65-2.21-2.93-3.84-3.86-1.63-.93-3.44-1.39-5.43-1.39-1.5,0-2.91.27-4.22.82-1.32.55-2.45,1.29-3.39,2.25-.93.95-1.68,2.09-2.23,3.41-.55,1.33-.82,2.74-.82,4.25,0,2,.46,3.83,1.39,5.47.92,1.65,2.2,2.93,3.83,3.87Z"/>
    <path class="cls-1" d="M1545.46,77.64c-2.03,0-3.94-.37-5.72-1.1-1.78-.74-3.31-1.73-4.59-2.99-1.28-1.26-2.27-2.78-3.01-4.54-.74-1.76-1.1-3.64-1.1-5.65,0-2.66.62-5.08,1.87-7.26,1.25-2.18,2.98-3.89,5.18-5.13,2.2-1.24,4.66-1.86,7.36-1.86,2.51,0,4.81.55,6.92,1.67,2.11,1.11,3.81,2.62,5.11,4.53l-3.16,1.95c-.94-1.45-2.19-2.58-3.74-3.39-1.55-.82-3.26-1.23-5.13-1.23-1.5,0-2.91.27-4.22.82-1.32.55-2.45,1.29-3.39,2.25-.93.95-1.68,2.09-2.23,3.41-.55,1.33-.82,2.74-.82,4.25,0,2,.46,3.83,1.39,5.47.92,1.65,2.2,2.93,3.83,3.87,1.63.93,3.44,1.41,5.43,1.41,1.87,0,3.58-.41,5.13-1.23,1.54-.82,2.8-1.95,3.74-3.39l3.16,1.95c-1.3,1.91-3,3.42-5.11,4.53-2.11,1.11-4.41,1.67-6.92,1.67Z"/>
    <path class="cls-1" d="M1574.73,77.64c-2.03,0-3.94-.37-5.72-1.1-1.78-.74-3.31-1.73-4.59-2.99-1.28-1.26-2.27-2.78-3.01-4.54-.74-1.76-1.1-3.64-1.1-5.65,0-2.66.62-5.08,1.87-7.26,1.25-2.18,2.98-3.89,5.18-5.13,2.2-1.24,4.66-1.86,7.36-1.86s5.16.62,7.36,1.86c2.2,1.24,3.93,2.95,5.19,5.13,1.25,2.18,1.88,4.6,1.88,7.26s-.63,5.09-1.88,7.28c-1.26,2.18-2.99,3.9-5.19,5.14-2.21,1.24-4.66,1.86-7.36,1.86ZM1569.29,72.71c1.63.93,3.44,1.41,5.43,1.41s3.8-.47,5.43-1.41c1.63-.94,2.91-2.23,3.84-3.87.93-1.64,1.39-3.47,1.39-5.47s-.47-3.83-1.39-5.47c-.93-1.65-2.21-2.93-3.84-3.86-1.63-.93-3.44-1.39-5.43-1.39-1.5,0-2.91.27-4.22.82-1.32.55-2.45,1.29-3.39,2.25-.93.95-1.68,2.09-2.23,3.41s-.82,2.74-.82,4.25c0,2,.46,3.83,1.39,5.47.92,1.65,2.2,2.93,3.83,3.87Z"/>
    <path class="cls-1" d="M1617.66,49.6h4.53v27.56h-3.65v-22l-9.34,16.21h-2.03l-9.36-16.21v22h-3.67v-27.56h4.62l9.44,16.38,9.46-16.38Z"/>
    <path class="cls-1" d="M1632.31,73.72h14.59v3.43h-18.25v-27.56h18.06v3.43h-14.4v8.54h13.07v3.43h-13.07v8.72Z"/>
    <path class="cls-1" d="M1664.82,74.12c1.87,0,3.58-.41,5.13-1.23,1.54-.82,2.8-1.95,3.74-3.39l3.16,1.95c-1.2,1.77-2.76,3.2-4.64,4.29-1.88,1.09-3.96,1.72-6.22,1.87l-.8.96h.27c1.01,0,1.88.36,2.58,1.08.71.72,1.07,1.61,1.07,2.66,0,1.11-.4,2.04-1.2,2.79-.8.75-1.8,1.13-2.99,1.13-.78,0-1.5-.19-2.19-.55-.67-.36-1.24-.86-1.69-1.47l1.27-1.42c.67.99,1.53,1.48,2.56,1.48.57,0,1.06-.19,1.47-.57.4-.38.61-.84.61-1.41,0-.53-.19-.98-.57-1.35-.39-.37-.86-.55-1.42-.55s-1.04.19-1.36.57l-1.96-.88,1.92-2.48c-2.5-.21-4.75-.95-6.75-2.24-2-1.29-3.57-2.98-4.7-5.07-1.13-2.09-1.69-4.4-1.69-6.93,0-2.66.62-5.08,1.87-7.26,1.25-2.18,2.98-3.89,5.18-5.13s4.66-1.86,7.36-1.86c2.51,0,4.81.55,6.92,1.67,2.11,1.11,3.81,2.62,5.11,4.53l-3.16,1.95c-.94-1.45-2.19-2.58-3.74-3.39-1.55-.82-3.26-1.23-5.13-1.23-1.5,0-2.91.27-4.22.82-1.32.55-2.45,1.29-3.39,2.25-.93.95-1.68,2.09-2.23,3.41s-.82,2.74-.82,4.25c0,2,.46,3.83,1.39,5.47.92,1.65,2.2,2.93,3.83,3.87,1.63.93,3.44,1.41,5.43,1.41Z"/>
    <path class="cls-1" d="M1701.16,77.16l-2.67-6.67h-13.5l-2.67,6.67h-3.92l11.21-27.56h4.37l11.21,27.56h-4.04ZM1686.36,67.09h10.79l-5.4-13.53-5.39,13.53Z"/>
  </g>
  <g>
    <path class="cls-1" d="M1421.79,124.28c-2.03,0-3.94-.37-5.72-1.11-1.78-.73-3.31-1.73-4.59-2.99-1.28-1.26-2.27-2.77-3.01-4.53-.74-1.76-1.1-3.65-1.1-5.65,0-2.66.62-5.08,1.87-7.26,1.25-2.18,2.98-3.89,5.18-5.13s4.66-1.86,7.36-1.86c2.51,0,4.81.55,6.92,1.67,2.11,1.11,3.81,2.62,5.11,4.53l-3.16,1.95c-.94-1.45-2.19-2.58-3.74-3.39-1.55-.82-3.26-1.23-5.13-1.23-1.5,0-2.91.27-4.22.82-1.32.55-2.45,1.29-3.39,2.25-.93.95-1.68,2.09-2.23,3.41-.55,1.33-.82,2.74-.82,4.25,0,2,.46,3.83,1.39,5.48.92,1.64,2.2,2.93,3.83,3.86,1.63.94,3.44,1.41,5.43,1.41,1.87,0,3.58-.41,5.13-1.23,1.54-.82,2.8-1.96,3.74-3.4l3.16,1.95c-1.3,1.92-3,3.43-5.11,4.54-2.11,1.11-4.41,1.67-6.92,1.67Z"/>
    <path class="cls-1" d="M1451.07,124.28c-2.03,0-3.94-.37-5.72-1.11-1.78-.73-3.31-1.73-4.59-2.99-1.28-1.26-2.27-2.77-3.01-4.53-.74-1.76-1.1-3.65-1.1-5.65,0-2.66.62-5.08,1.87-7.26,1.25-2.18,2.98-3.89,5.18-5.13,2.2-1.24,4.66-1.86,7.36-1.86s5.16.62,7.36,1.86c2.2,1.24,3.93,2.95,5.19,5.13,1.25,2.18,1.88,4.6,1.88,7.26s-.63,5.1-1.88,7.27c-1.26,2.19-2.99,3.9-5.19,5.14-2.21,1.24-4.66,1.87-7.36,1.87ZM1445.63,119.33c1.63.94,3.44,1.41,5.43,1.41s3.8-.47,5.43-1.41c1.63-.93,2.91-2.23,3.84-3.86.93-1.65,1.39-3.47,1.39-5.48s-.47-3.83-1.39-5.47c-.93-1.65-2.21-2.93-3.84-3.86-1.63-.93-3.44-1.39-5.43-1.39-1.5,0-2.91.27-4.22.82-1.32.55-2.45,1.29-3.39,2.25-.93.95-1.68,2.09-2.23,3.41-.55,1.33-.82,2.74-.82,4.25,0,2,.46,3.83,1.39,5.48.92,1.64,2.2,2.93,3.83,3.86Z"/>
    <path class="cls-1" d="M1493.99,96.23h4.53v27.56h-3.65v-22l-9.34,16.21h-2.03l-9.36-16.21v22h-3.67v-27.56h4.62l9.44,16.38,9.46-16.38Z"/>
    <path class="cls-1" d="M1525.41,124.28c-2.09,0-3.99-.48-5.7-1.45-1.71-.96-3.06-2.28-4.03-3.97-.97-1.69-1.47-3.56-1.47-5.62v-17.01h3.65v16.93c0,2.15.72,3.96,2.15,5.41,1.44,1.45,3.24,2.18,5.39,2.18s3.98-.73,5.42-2.18c1.44-1.45,2.16-3.25,2.16-5.41v-16.93h3.63v17.01c0,2.06-.48,3.94-1.46,5.62-.97,1.69-2.32,3.01-4.03,3.97-1.71.97-3.62,1.45-5.73,1.45Z"/>
    <path class="cls-1" d="M1566.02,96.23h4.53v27.56h-3.65v-22l-9.34,16.21h-2.03l-9.36-16.21v22h-3.67v-27.56h4.62l9.44,16.38,9.46-16.38Z"/>
    <path class="cls-1" d="M1599.79,124.28c-2.03,0-3.94-.37-5.72-1.11-1.78-.73-3.31-1.73-4.59-2.99-1.28-1.26-2.27-2.77-3.01-4.53-.74-1.76-1.1-3.65-1.1-5.65,0-2.66.62-5.08,1.87-7.26,1.25-2.18,2.98-3.89,5.18-5.13,2.2-1.24,4.66-1.86,7.36-1.86s5.16.62,7.36,1.86c2.2,1.24,3.93,2.95,5.19,5.13,1.25,2.18,1.88,4.6,1.88,7.26s-.63,5.1-1.88,7.27c-1.26,2.19-2.99,3.9-5.19,5.14-2.21,1.24-4.66,1.87-7.36,1.87ZM1594.36,119.33c1.63.94,3.44,1.41,5.43,1.41s3.8-.47,5.43-1.41c1.63-.93,2.91-2.23,3.84-3.86.93-1.65,1.39-3.47,1.39-5.48s-.47-3.83-1.39-5.47c-.93-1.65-2.21-2.93-3.84-3.86-1.63-.93-3.44-1.39-5.43-1.39-1.5,0-2.91.27-4.22.82-1.32.55-2.45,1.29-3.39,2.25-.93.95-1.68,2.09-2.23,3.41-.55,1.33-.82,2.74-.82,4.25,0,2,.46,3.83,1.39,5.48.92,1.64,2.2,2.93,3.83,3.86Z"/>
    <path class="cls-1" d="M1622.86,120.36h13.38v3.43h-17.04v-27.56h3.67v24.13Z"/>
    <path class="cls-1" d="M1659.68,96.23h3.67v27.56h-3.67v-12.15h-15.35v12.15h-3.67v-27.56h3.67v11.97h15.35v-11.97Z"/>
    <path class="cls-1" d="M1690.19,123.78l-2.67-6.67h-13.5l-2.67,6.67h-3.92l11.21-27.56h4.37l11.21,27.56h-4.04ZM1675.39,113.72h10.79l-5.4-13.53-5.39,13.53Z"/>
    <path class="cls-1" d="M1714.24,123.78l-8.23-10.94h-4.04v10.94h-3.67v-27.56h11.17c2.45,0,4.49.8,6.14,2.4,1.64,1.6,2.46,3.6,2.46,5.99,0,2.22-.74,4.11-2.21,5.65-1.48,1.54-3.34,2.39-5.59,2.55l8.39,10.98h-4.43ZM1701.97,99.66v9.99h7.43c1.41,0,2.57-.48,3.52-1.43.93-.95,1.4-2.14,1.4-3.57s-.47-2.62-1.4-3.57c-.94-.95-2.11-1.42-3.52-1.42h-7.43Z"/>
  </g>
  <g>
    <path class="cls-1" d="M47.23,113.82c-1.65.68-3.24,1.31-4.89,1.99-11.66,4.83-19.39,15.58-20.3,27.98-.06.8-.11,1.59-.11,2.39,0-.8,0-1.59.06-2.39.91-12.45,8.7-23.2,20.3-28.04,1.65-.68,3.3-1.36,4.95-1.93Z"/>
    <path class="cls-1" d="M224.11,151.47l-.17,1.19h-.06c.11-.4.17-.8.23-1.19Z"/>
    <path class="cls-1" d="M224.56,146.12c0-.74-.06-1.54-.11-2.33-.06-1.19-.23-2.33-.4-3.47.23,1.14.34,2.28.46,3.47.06.8.06,1.59.06,2.33Z"/>
    <path class="cls-1" d="M227.97,126.27c.11.23.23.45.34.68-.11-.34-.34-.63-.51-.97.06.11.11.23.17.28Z"/>
    <path class="cls-1" d="M229.74,129.91q.06.06.11.11v.06c-.06-.06-.06-.11-.11-.17Z"/>
    <path class="cls-1" d="M232.64,151.92c0,.23,0,.51-.06.74h-.06c.06-.23.11-.46.11-.74Z"/>
    <g>
      <path class="cls-1" d="M145.7,31.32c2.29-5.49,7.12-9.51,13.07-10.88,2.7-.71,7.37,0,8.14-3.41.86-3.92-1.88-4.98-4.98-4.98-2.08,0-4.32.46-5.85.86-7.68,1.98-14.65,8.03-17.6,15.51.25.05.56.1.86.2,2.44.76,4.58,1.68,6.36,2.7Z"/>
      <path class="cls-1" d="M87.73,20.44c5.95,1.37,10.78,5.39,12.97,10.88,1.78-.97,3.92-1.93,6.41-2.7.31-.1.61-.15.92-.2-2.9-7.48-9.97-13.48-17.6-15.51-1.53-.41-3.76-.86-5.85-.86-3.15,0-5.85,1.07-4.98,4.98.71,3.41,5.39,2.7,8.14,3.41Z"/>
    </g>
    <g>
      <path class="cls-1" d="M112.24,222.15c.87.87,1.67,1.85,2.54,3,2.6,3.58,3.87,11.25,8.43,11.08,4.56.17,5.83-7.5,8.43-11.08.75-1.04,1.56-1.9,2.31-2.77-3.06.87-6.41,1.38-9.98,1.44-4.21.06-8.19-.63-11.71-1.67Z"/>
      <path class="cls-1" d="M232.98,143.22c-.06-1.08-.23-2.22-.34-3.3v-.06c-.17-1.08-.4-2.1-.63-3.13-.06-.11-.06-.28-.11-.4,0-.11-.06-.17-.06-.28,0-.06-.06-.11-.06-.17-.17-.68-.34-1.36-.57-1.99,0-.17-.06-.28-.11-.4-.28-.97-.63-1.93-1.02-2.84v-.06c-.11-.17-.17-.34-.23-.51v-.06q-.06-.06-.11-.11c0-.06-.06-.11-.06-.17-.17-.51-.4-.97-.68-1.48-.17-.46-.4-.91-.68-1.31-.11-.34-.34-.63-.51-.97,0,0,0-.06-.06-.11-.06,0-.06-.06-.11-.11q0-.06-.06-.11c-.17-.34-.34-.68-.57-1.02-.06-.11-.11-.17-.17-.28-.4-.74-.85-1.42-1.36-2.1-.63-.85-1.25-1.71-1.93-2.5-.51-.74-1.14-1.42-1.88-2.1-.68-.74-1.36-1.42-2.05-1.99-1.36-1.25-2.9-2.45-4.44-3.58-.8-.57-1.59-1.08-2.45-1.59h-.06c-1.71-1.02-3.41-1.88-5.23-2.62-2.96-1.25-5.97-2.39-9.04-3.53-4.89-1.88-9.84-3.53-14.84-5.18h-.06c-5.23-1.76-10.52-3.47-15.75-5.06,1.76-4.44,4.72-13.31,3.01-24.23-3.47-22.46-23.43-32.99-25.59-34.12-21.04-10.64-41.18-1.31-43.57-.17-3.07,1.48-16.49,8.64-22.81,25.08-6.09,15.81-1.54,29.63-.11,33.44-5.23,1.59-10.52,3.3-15.75,5.06h-.06c-4.95,1.65-9.9,3.3-14.79,5.18-3.07,1.14-6.09,2.27-9.04,3.53h-.06c-1.82.8-3.58,1.65-5.23,2.62-3.36,1.99-6.37,4.38-8.99,7.17-6.54,6.82-10.64,15.75-11.32,25.54-.11,1.02-.11,2.05-.11,3.07v.11c0,.97.06,1.93.17,2.9.06,1.14.23,2.28.4,3.41,1.82,11.72,8.59,21.84,19.28,28.27,9.61,5.8,20.82,7.39,31.51,4.55.4-.11.85-.23,1.25-.34.34.51.63,1.02.91,1.48,1.76,2.79,7,9.9,7.68,10.69,10.69,12.51,26.1,21.61,49.02,21.5,22.81-.11,38.96-10.58,48.29-21.5.68-.8,6.03-7.91,7.73-10.69.28-.46.57-.97.85-1.48.45.11.91.23,1.36.34,10.64,2.84,21.84,1.25,31.51-4.55,10.64-6.43,17.4-16.61,19.22-28.27.06-.23.11-.46.11-.74.17-.85.23-1.76.28-2.67.11-.97.17-1.93.17-2.96s0-2.05-.11-3.07ZM224.39,149.08c0,.45,0,.85-.11,1.25,0,.4-.11.8-.17,1.14l-.17,1.19c-1.82,8.64-7.05,16.09-15.07,20.87-7.62,4.61-16.49,5.91-24.91,3.64-8.53-2.22-15.75-7.85-20.19-15.75l-32.25-58.07c-.34-.63-1.36-2.56-2.39-4.21-.51-.91-1.08-1.71-1.48-2.22-1.14-1.31-2.33-3.13-4.27-3.18h-.28c-1.99.06-3.18,1.88-4.27,3.18-.46.51-.97,1.31-1.54,2.22-.97,1.65-1.99,3.58-2.33,4.21l-32.3,58.07c-4.49,7.91-11.6,13.54-20.25,15.75-8.36,2.27-17.18.97-24.85-3.64-8.02-4.78-13.25-12.23-15.01-20.87-.23-1.14-.4-2.39-.46-3.58-.11-.8-.17-1.65-.17-2.45v-.45c0-.8,0-1.59.06-2.39.91-12.45,8.7-23.2,20.3-28.04,1.65-.68,3.3-1.36,4.95-1.93,3.36-1.36,6.71-2.62,10.12-3.75,6.82-2.45,13.76-4.72,20.7-6.82,1.76-.51,3.47-1.08,5.18-1.59,12.91-4.09,26.28-8.25,38.79-13.31.17-.06.57-.34,1.19-.34s1.02.28,1.19.34c12.51,5.06,25.88,9.21,38.79,13.31,13.76,4.27,27.93,8.76,40.95,14.16,2.84,1.19,5.46,2.73,7.79,4.55.8.57,1.54,1.25,2.28,1.93,1.02.91,1.88,1.88,2.73,2.84,1.42,1.76,2.73,3.64,3.75,5.63,1.08,1.99,1.93,4.1,2.56,6.26.34,1.08.63,2.16.8,3.3.23,1.14.34,2.28.46,3.47.06.8.06,1.59.06,2.33,0,1.02-.06,1.99-.17,2.96Z"/>
      <path class="cls-1" d="M232.64,151.92c0,.23,0,.51-.06.74h-.06c.06-.23.11-.46.11-.74Z"/>
      <path class="cls-1" d="M227.01,124.62c.34.46.63.91.8,1.37,0-.06-.11-.11-.17-.23q0-.06-.06-.11c-.17-.34-.34-.68-.57-1.02Z"/>
      <path class="cls-1" d="M227.97,126.27c.4.63.74,1.31,1.02,1.99-.23-.46-.46-.91-.68-1.31-.11-.34-.34-.63-.51-.97.06.11.11.23.17.28Z"/>
      <path class="cls-1" d="M229,128.26c.28.51.51.97.68,1.48-.06,0-.06-.06-.06-.06,0-.06-.06-.06-.06-.11-.17-.45-.4-.91-.57-1.31Z"/>
      <path class="cls-1" d="M229.74,129.91q.06.06.11.11v.06c-.06-.06-.06-.11-.11-.17Z"/>
      <path class="cls-1" d="M215.18,112.05c1.59,1.08,3.07,2.22,4.44,3.58-1.36-1.25-2.9-2.45-4.44-3.58Z"/>
      <path class="cls-1" d="M227.97,126.27c.11.23.23.45.34.68-.11-.34-.34-.63-.51-.97.06.11.11.23.17.28Z"/>
      <path class="cls-1" d="M229.74,129.91q.06.06.11.11v.06c-.06-.06-.06-.11-.11-.17Z"/>
      <path class="cls-1" d="M232.64,151.92c0,.23,0,.51-.06.74h-.06c.06-.23.11-.46.11-.74Z"/>
    </g>
  </g>
</svg>