<svg width="324" height="98" viewBox="0 0 324 98" fill="none" xmlns="http://www.w3.org/2000/svg">
<path d="M100.833 2.67542H80.199C79.2283 2.67542 78.4414 3.44489 78.4414 4.39408V93.6017C78.4414 94.5509 79.2283 95.3204 80.199 95.3204H100.833C101.804 95.3204 102.591 94.5509 102.591 93.6017V4.39408C102.591 3.44489 101.804 2.67542 100.833 2.67542Z" fill="white"/>
<path d="M217.849 61.7732C213.289 82.6766 194.045 97.5021 169.575 97.5021C140.597 97.5021 118.674 76.6112 118.674 49C118.674 21.3888 140.597 0.497925 169.575 0.497925C193.994 0.497925 213.208 15.2651 217.819 36.1017C218.067 37.2239 217.188 38.2834 216.015 38.2834H193.883C193.14 38.2834 192.466 37.8496 192.185 37.178C188.7 28.8808 180.057 23.3745 169.541 23.387C155.19 23.4078 143.57 34.9671 143.57 49.0042C143.57 63.0413 154.717 74.6172 169.58 74.6172C180.099 74.6172 188.742 69.09 192.211 60.772C192.475 60.1338 193.111 59.7249 193.815 59.7249H216.151C217.26 59.7249 218.084 60.7219 217.853 61.7773L217.849 61.7732Z" fill="white"/>
<path d="M268.148 61.3268L258.038 71.7138C257.71 72.0475 257.53 72.4939 257.53 72.9569V93.5183C257.53 94.5111 256.707 95.3204 255.688 95.3204H235.224C234.208 95.3204 233.381 94.5111 233.381 93.5183V4.47751C233.381 3.48469 234.208 2.67542 235.224 2.67542H255.688C256.707 2.67542 257.53 3.48469 257.53 4.47751V41.2702L255.662 43.2558C255.035 43.9233 254.997 44.9328 255.564 45.6503L268.038 61.1808L268.153 61.3309L268.148 61.3268Z" fill="url(#paint0_linear_2815_4471)"/>
<path d="M322.1 95.3245H295.899C295.31 95.3245 294.756 95.0576 294.397 94.6029L282.512 79.5187L280.768 77.3203L268.149 61.331L268.034 61.1808L255.56 45.6503C254.993 44.9369 255.035 43.9233 255.658 43.2558L257.527 41.2702L272.765 25.0722L293.484 3.26362C293.843 2.88818 294.346 2.67126 294.871 2.67126H320.121C321.781 2.67126 322.638 4.61101 321.499 5.79572L285.878 42.7594C285.234 43.4269 285.187 44.4531 285.767 45.1747L323.594 92.3294C324.57 93.5475 323.683 95.3245 322.1 95.3245Z" fill="white"/>
<path d="M61.0322 4.48166V24.5007C61.0322 25.4935 60.2089 26.3028 59.1893 26.3028H27.6937C25.7527 26.3028 24.1742 27.8421 24.1742 29.7443V93.5224C24.1742 94.5152 23.3466 95.3245 22.3313 95.3245H1.84192C0.822355 95.3245 -0.000976562 94.5152 -0.000976562 93.5224V28.1049C-0.000976562 27.1121 0.822355 26.307 1.84192 26.307H22.0242C23.3594 26.307 24.5539 25.5853 25.1725 24.4548L36.456 3.63901C36.7759 3.05083 37.3987 2.67957 38.0856 2.67957H59.1936C60.2131 2.67957 61.0365 3.48467 61.0365 4.48166H61.0322Z" fill="white"/>
<defs>
<linearGradient id="paint0_linear_2815_4471" x1="233.381" y1="49" x2="279.675" y2="49" gradientUnits="userSpaceOnUse">
<stop stop-color="#F2F2F2"/>
<stop offset="0.24" stop-color="#EFEFEF"/>
<stop offset="0.38" stop-color="#E7E7E7"/>
<stop offset="0.49" stop-color="#D9D9D9"/>
<stop offset="0.59" stop-color="#C5C5C5"/>
<stop offset="0.66" stop-color="#B3B3B3"/>
</linearGradient>
</defs>
</svg>
