<svg width="111" height="33" viewBox="0 0 111 33" fill="none" xmlns="http://www.w3.org/2000/svg">
<path d="M34.5452 0.740808H27.476C27.1434 0.740808 26.8738 1.00259 26.8738 1.32551V31.6745C26.8738 31.9974 27.1434 32.2592 27.476 32.2592H34.5452C34.8777 32.2592 35.1473 31.9974 35.1473 31.6745V1.32551C35.1473 1.00259 34.8777 0.740808 34.5452 0.740808Z" fill="#F0F0F0"/>
<path d="M74.6338 20.8462C73.0715 27.9577 66.4787 33.0014 58.0956 33.0014C48.1677 33.0014 40.6571 25.8942 40.6571 16.5007C40.6571 7.10721 48.1677 0 58.0956 0C66.4612 0 73.0437 5.02387 74.6236 12.1126C74.7083 12.4944 74.4073 12.8549 74.0054 12.8549H66.4232C66.1689 12.8549 65.9379 12.7073 65.8415 12.4788C64.6475 9.65604 61.6865 7.78274 58.0839 7.78699C53.1675 7.79409 49.1864 11.7266 49.1864 16.5021C49.1864 21.2776 53.0052 25.2158 58.0971 25.2158C61.7011 25.2158 64.6621 23.3354 65.8503 20.5056C65.9409 20.2885 66.1586 20.1494 66.3998 20.1494H74.0521C74.4321 20.1494 74.7142 20.4886 74.6353 20.8476L74.6338 20.8462Z" fill="#F0F0F0"/>
<path d="M91.8662 20.6944L88.4025 24.2281C88.29 24.3416 88.2286 24.4935 88.2286 24.651V31.6461C88.2286 31.9839 87.9465 32.2592 87.5972 32.2592H80.5865C80.2386 32.2592 79.9551 31.9839 79.9551 31.6461V1.35389C79.9551 1.01613 80.2386 0.740808 80.5865 0.740808H87.5972C87.9465 0.740808 88.2286 1.01613 88.2286 1.35389V13.871L87.5884 14.5465C87.3736 14.7736 87.3605 15.117 87.5548 15.3611L91.8282 20.6447L91.8677 20.6958L91.8662 20.6944Z" fill="#F0F0F0"/>
<path d="M110.35 32.2606H101.373C101.171 32.2606 100.981 32.1698 100.859 32.0151L96.787 26.8834L96.1893 26.1355L91.8662 20.6958L91.8267 20.6447L87.5533 15.3611C87.359 15.1184 87.3736 14.7736 87.587 14.5465L93.4475 8.36034L100.546 0.940911C100.669 0.813185 100.841 0.739388 101.021 0.739388H109.671C110.24 0.739388 110.534 1.3993 110.144 1.80235L97.9401 14.3776C97.7194 14.6047 97.7034 14.9538 97.9021 15.1993L110.861 31.2416C111.196 31.656 110.892 32.2606 110.35 32.2606Z" fill="#7700CC"/>
<path d="M20.9095 1.35531V8.16591C20.9095 8.50368 20.6274 8.779 20.2781 8.779H9.48798C8.823 8.779 8.28225 9.30267 8.28225 9.94981V31.6475C8.28225 31.9853 7.99872 32.2606 7.65089 32.2606H0.631363C0.282067 32.2606 0 31.9853 0 31.6475V9.39208C0 9.05432 0.282067 8.78042 0.631363 8.78042H7.54566C8.00311 8.78042 8.41233 8.5349 8.62424 8.1503L12.4899 1.06864C12.5995 0.868533 12.8129 0.742227 13.0482 0.742227H20.2796C20.6289 0.742227 20.911 1.01613 20.911 1.35531H20.9095Z" fill="#F0F0F0"/>
</svg>
