{
  "asset": {
    "version": "2.0",
    "generator": "THREE.GLTFExporter r176"
  },
  "scenes": [
    {
      "name": "AuxScene",
      "nodes": [
        16
      ]
    }
  ],
  "scene": 0,
  "nodes": [
    {
      "translation": [
        -33.770782470703125,
        -33.939998626708984,
        -2.5
      ],
      "mesh": 0
    },
    {
      "children": [
        0
      ]
    },
    {
      "translation": [
        -33.770782470703125,
        -33.939998626708984,
        -2.5
      ],
      "scale": [
        1.01,
        1.01,
        1.06
      ],
      "mesh": 1
    },
    {
      "children": [
        2
      ]
    },
    {
      "translation": [
        -33.770782470703125,
        -33.939998626708984,
        -2.5
      ],
      "scale": [
        1.01,
        1.01,
        1.06
      ],
      "mesh": 2
    },
    {
      "children": [
        4
      ]
    },
    {
      "translation": [
        -33.770782470703125,
        -33.939998626708984,
        -2.5
      ],
      "scale": [
        1.01,
        1.01,
        1.06
      ],
      "mesh": 3
    },
    {
      "children": [
        6
      ]
    },
    {
      "translation": [
        -33.770782470703125,
        -33.939998626708984,
        -2.5
      ],
      "scale": [
        1.01,
        1.01,
        1.06
      ],
      "mesh": 4
    },
    {
      "children": [
        8
      ]
    },
    {
      "translation": [
        -33.770782470703125,
        -33.939998626708984,
        -2.5
      ],
      "scale": [
        1.01,
        1.01,
        1.06
      ],
      "mesh": 5
    },
    {
      "children": [
        10
      ]
    },
    {
      "rotation": [
        0,
        0.3826834323650898,
        0,
        0.9238795325112867
      ],
      "scale": [
        1.4731879787860933,
        -1.4731879787860933,
        1.4731879787860933
      ],
      "children": [
        1,
        3,
        5,
        7,
        9,
        11
      ]
    },
    {
      "children": [
        12
      ]
    },
    {
      "translation": [
        -0.00012475479577744863,
        0.0013262648124481302,
        0.00012463061531420294
      ],
      "children": [
        13
      ]
    },
    {
      "children": [
        14
      ]
    },
    {
      "children": [
        15
      ]
    }
  ],
  "bufferViews": [
    {
      "buffer": 0,
      "byteOffset": 0,
      "byteLength": 25776,
      "target": 34962,
      "byteStride": 12
    },
    {
      "buffer": 0,
      "byteOffset": 25776,
      "byteLength": 17184,
      "target": 34962,
      "byteStride": 8
    },
    {
      "buffer": 0,
      "byteOffset": 42960,
      "byteLength": 25776,
      "target": 34962,
      "byteStride": 12
    },
    {
      "buffer": 0,
      "byteOffset": 68736,
      "byteLength": 51696,
      "target": 34962,
      "byteStride": 12
    },
    {
      "buffer": 0,
      "byteOffset": 120432,
      "byteLength": 34464,
      "target": 34962,
      "byteStride": 8
    },
    {
      "buffer": 0,
      "byteOffset": 154896,
      "byteLength": 51696,
      "target": 34962,
      "byteStride": 12
    },
    {
      "buffer": 0,
      "byteOffset": 206592,
      "byteLength": 71136,
      "target": 34962,
      "byteStride": 12
    },
    {
      "buffer": 0,
      "byteOffset": 277728,
      "byteLength": 47424,
      "target": 34962,
      "byteStride": 8
    },
    {
      "buffer": 0,
      "byteOffset": 325152,
      "byteLength": 71136,
      "target": 34962,
      "byteStride": 12
    },
    {
      "buffer": 0,
      "byteOffset": 396288,
      "byteLength": 17856,
      "target": 34962,
      "byteStride": 12
    },
    {
      "buffer": 0,
      "byteOffset": 414144,
      "byteLength": 11904,
      "target": 34962,
      "byteStride": 8
    },
    {
      "buffer": 0,
      "byteOffset": 426048,
      "byteLength": 17856,
      "target": 34962,
      "byteStride": 12
    },
    {
      "buffer": 0,
      "byteOffset": 443904,
      "byteLength": 43056,
      "target": 34962,
      "byteStride": 12
    },
    {
      "buffer": 0,
      "byteOffset": 486960,
      "byteLength": 28704,
      "target": 34962,
      "byteStride": 8
    },
    {
      "buffer": 0,
      "byteOffset": 515664,
      "byteLength": 43056,
      "target": 34962,
      "byteStride": 12
    },
    {
      "buffer": 0,
      "byteOffset": 558720,
      "byteLength": 40896,
      "target": 34962,
      "byteStride": 12
    },
    {
      "buffer": 0,
      "byteOffset": 599616,
      "byteLength": 27264,
      "target": 34962,
      "byteStride": 8
    },
    {
      "buffer": 0,
      "byteOffset": 626880,
      "byteLength": 40896,
      "target": 34962,
      "byteStride": 12
    }
  ],
  "buffers": [
    {
      "byteLength": 667776,
      "uri": "data:application/octet-stream;base64,"
    }
  ],
  "accessors": [
    {
      "bufferView": 0,
      "componentType": 5126,
      "count": 2148,
      "max": [
        46.18000030517578,
        31.670000076293945,
        6
      ],
      "min": [
        37.22999954223633,
        -0.5,
        -1
      ],
      "type": "VEC3"
    },
    {
      "bufferView": 1,
      "componentType": 5126,
      "count": 2148,
      "max": [
        45.865169525146484,
        31.170000076293945
      ],
      "min": [
        -0.18516914546489716,
        -5
      ],
      "type": "VEC2"
    },
    {
      "bufferView": 2,
      "componentType": 5126,
      "count": 2148,
      "max": [
        1,
        1,
        1
      ],
      "min": [
        -1,
        -1,
        -1
      ],
      "type": "VEC3"
    },
    {
      "bufferView": 3,
      "componentType": 5126,
      "count": 4308,
      "max": [
        32.5099983215332,
        31.690000534057617,
        6
      ],
      "min": [
        11.420000076293945,
        -0.5,
        -1
      ],
      "type": "VEC3"
    },
    {
      "bufferView": 4,
      "componentType": 5126,
      "count": 4308,
      "max": [
        32.1895637512207,
        31.190000534057617
      ],
      "min": [
        -0.1777145117521286,
        -5
      ],
      "type": "VEC2"
    },
    {
      "bufferView": 5,
      "componentType": 5126,
      "count": 4308,
      "max": [
        1,
        1,
        1
      ],
      "min": [
        -1,
        -1,
        -1
      ],
      "type": "VEC3"
    },
    {
      "bufferView": 6,
      "componentType": 5126,
      "count": 5928,
      "max": [
        33.167179107666016,
        68.38179779052734,
        6
      ],
      "min": [
        -0.5023740530014038,
        34.73820495605469,
        -1
      ],
      "type": "VEC3"
    },
    {
      "bufferView": 7,
      "componentType": 5126,
      "count": 5928,
      "max": [
        63.563594818115234,
        67.87999725341797
      ],
      "min": [
        0,
        -5
      ],
      "type": "VEC2"
    },
    {
      "bufferView": 8,
      "componentType": 5126,
      "count": 5928,
      "max": [
        0.9956106543540955,
        1,
        1
      ],
      "min": [
        -0.9952802658081055,
        -1,
        -1
      ],
      "type": "VEC3"
    },
    {
      "bufferView": 9,
      "componentType": 5126,
      "count": 1488,
      "max": [
        49.87570571899414,
        56.40602493286133,
        6
      ],
      "min": [
        44.403377532958984,
        48.300559997558594,
        -1
      ],
      "type": "VEC3"
    },
    {
      "bufferView": 10,
      "componentType": 5126,
      "count": 1488,
      "max": [
        56.40602493286133,
        55.70000076293945
      ],
      "min": [
        44.68861770629883,
        -5
      ],
      "type": "VEC2"
    },
    {
      "bufferView": 11,
      "componentType": 5126,
      "count": 1488,
      "max": [
        0.9983397126197815,
        0.8451782464981079,
        1
      ],
      "min": [
        -0.9986192584037781,
        -0.7783188819885254,
        -1
      ],
      "type": "VEC3"
    },
    {
      "bufferView": 12,
      "componentType": 5126,
      "count": 3588,
      "max": [
        68.0445785522461,
        67.6500015258789,
        6
      ],
      "min": [
        44.40738296508789,
        35.47999954223633,
        -1
      ],
      "type": "VEC3"
    },
    {
      "bufferView": 13,
      "componentType": 5126,
      "count": 3588,
      "max": [
        67.76831817626953,
        67.1500015258789
      ],
      "min": [
        35.83112335205078,
        -5
      ],
      "type": "VEC2"
    },
    {
      "bufferView": 14,
      "componentType": 5126,
      "count": 3588,
      "max": [
        0.999914824962616,
        1,
        1
      ],
      "min": [
        -0.9991108179092407,
        -1,
        -1
      ],
      "type": "VEC3"
    },
    {
      "bufferView": 15,
      "componentType": 5126,
      "count": 3408,
      "max": [
        49.83307647705078,
        67.66000366210938,
        6
      ],
      "min": [
        37.220001220703125,
        35.47999954223633,
        -1
      ],
      "type": "VEC3"
    },
    {
      "bufferView": 16,
      "componentType": 5126,
      "count": 3408,
      "max": [
        67.33956146240234,
        67.16000366210938
      ],
      "min": [
        35.802284240722656,
        -5
      ],
      "type": "VEC2"
    },
    {
      "bufferView": 17,
      "componentType": 5126,
      "count": 3408,
      "max": [
        1,
        1,
        1
      ],
      "min": [
        -1,
        -1,
        -1
      ],
      "type": "VEC3"
    }
  ],
  "materials": [
    {
      "pbrMetallicRoughness": {
        "baseColorFactor": [
          0.85499260812105,
          0.85499260812105,
          0.85499260812105,
          1
        ],
        "metallicFactor": 0,
        "roughnessFactor": 0.05
      },
      "doubleSided": true,
      "extras": {
        "originalProperties": {
          "color": 15658734,
          "roughness": 0.05,
          "metalness": 0,
          "clearcoat": 1,
          "clearcoatRoughness": 0.05,
          "transmission": 0.95,
          "ior": 2.3333333333333335,
          "opacity": 1,
          "sheen": 0,
          "sheenRoughness": 1
        },
        "isHole": false
      },
      "extensions": {
        "KHR_materials_transmission": {
          "transmissionFactor": 0.95
        },
        "KHR_materials_volume": {
          "thicknessFactor": 0,
          "attenuationColor": [
            1,
            1,
            1
          ]
        },
        "KHR_materials_ior": {
          "ior": 2.3333333333333335
        },
        "KHR_materials_clearcoat": {
          "clearcoatFactor": 1,
          "clearcoatRoughnessFactor": 0.05
        }
      }
    },
    {
      "pbrMetallicRoughness": {
        "baseColorFactor": [
          0.85499260812105,
          0.85499260812105,
          0.85499260812105,
          1
        ],
        "metallicFactor": 0,
        "roughnessFactor": 0.05
      },
      "alphaMode": "BLEND",
      "doubleSided": true,
      "extras": {
        "originalProperties": {
          "color": 15658734,
          "roughness": 0.05,
          "metalness": 0,
          "clearcoat": 1,
          "clearcoatRoughness": 0.05,
          "transmission": 0.95,
          "ior": 2.3333333333333335,
          "opacity": 1,
          "sheen": 0,
          "sheenRoughness": 1
        },
        "isHole": true
      },
      "extensions": {
        "KHR_materials_transmission": {
          "transmissionFactor": 0.95
        },
        "KHR_materials_volume": {
          "thicknessFactor": 0,
          "attenuationColor": [
            1,
            1,
            1
          ]
        },
        "KHR_materials_ior": {
          "ior": 2.3333333333333335
        },
        "KHR_materials_clearcoat": {
          "clearcoatFactor": 1,
          "clearcoatRoughnessFactor": 0.05
        }
      }
    },
    {
      "pbrMetallicRoughness": {
        "baseColorFactor": [
          0.85499260812105,
          0.85499260812105,
          0.85499260812105,
          1
        ],
        "metallicFactor": 0,
        "roughnessFactor": 0.05
      },
      "alphaMode": "BLEND",
      "doubleSided": true,
      "extras": {
        "originalProperties": {
          "color": 15658734,
          "roughness": 0.05,
          "metalness": 0,
          "clearcoat": 1,
          "clearcoatRoughness": 0.05,
          "transmission": 0.95,
          "ior": 2.3333333333333335,
          "opacity": 1,
          "sheen": 0,
          "sheenRoughness": 1
        },
        "isHole": true
      },
      "extensions": {
        "KHR_materials_transmission": {
          "transmissionFactor": 0.95
        },
        "KHR_materials_volume": {
          "thicknessFactor": 0,
          "attenuationColor": [
            1,
            1,
            1
          ]
        },
        "KHR_materials_ior": {
          "ior": 2.3333333333333335
        },
        "KHR_materials_clearcoat": {
          "clearcoatFactor": 1,
          "clearcoatRoughnessFactor": 0.05
        }
      }
    },
    {
      "pbrMetallicRoughness": {
        "baseColorFactor": [
          0.006512090790025684,
          0.006512090790025684,
          0.006512090790025684,
          1
        ],
        "metallicFactor": 0,
        "roughnessFactor": 0.05
      },
      "alphaMode": "BLEND",
      "doubleSided": true,
      "extras": {
        "originalProperties": {
          "color": 1250067,
          "roughness": 0.05,
          "metalness": 0,
          "clearcoat": 1,
          "clearcoatRoughness": 0.05,
          "transmission": 0.95,
          "ior": 2.3333333333333335,
          "opacity": 1,
          "sheen": 0,
          "sheenRoughness": 1
        },
        "isHole": true
      },
      "extensions": {
        "KHR_materials_transmission": {
          "transmissionFactor": 0.95
        },
        "KHR_materials_volume": {
          "thicknessFactor": 0,
          "attenuationColor": [
            1,
            1,
            1
          ]
        },
        "KHR_materials_ior": {
          "ior": 2.3333333333333335
        },
        "KHR_materials_clearcoat": {
          "clearcoatFactor": 1,
          "clearcoatRoughnessFactor": 0.05
        }
      }
    },
    {
      "pbrMetallicRoughness": {
        "baseColorFactor": [
          0.2663556047920505,
          0,
          0.7011018919268015,
          1
        ],
        "metallicFactor": 0,
        "roughnessFactor": 0.05
      },
      "alphaMode": "BLEND",
      "doubleSided": true,
      "extras": {
        "originalProperties": {
          "color": 9240794,
          "roughness": 0.05,
          "metalness": 0,
          "clearcoat": 1,
          "clearcoatRoughness": 0.05,
          "transmission": 0.95,
          "ior": 2.3333333333333335,
          "opacity": 1,
          "sheen": 0,
          "sheenRoughness": 1
        },
        "isHole": true
      },
      "extensions": {
        "KHR_materials_transmission": {
          "transmissionFactor": 0.95
        },
        "KHR_materials_volume": {
          "thicknessFactor": 0,
          "attenuationColor": [
            1,
            1,
            1
          ]
        },
        "KHR_materials_ior": {
          "ior": 2.3333333333333335
        },
        "KHR_materials_clearcoat": {
          "clearcoatFactor": 1,
          "clearcoatRoughnessFactor": 0.05
        }
      }
    },
    {
      "pbrMetallicRoughness": {
        "metallicFactor": 0,
        "roughnessFactor": 0.05
      },
      "alphaMode": "BLEND",
      "doubleSided": true,
      "extras": {
        "originalProperties": {
          "color": 16777215,
          "roughness": 0.05,
          "metalness": 0,
          "clearcoat": 1,
          "clearcoatRoughness": 0.05,
          "transmission": 0.95,
          "ior": 2.3333333333333335,
          "opacity": 1,
          "sheen": 0,
          "sheenRoughness": 1
        },
        "isHole": true
      },
      "extensions": {
        "KHR_materials_transmission": {
          "transmissionFactor": 0.95
        },
        "KHR_materials_volume": {
          "thicknessFactor": 0,
          "attenuationColor": [
            1,
            1,
            1
          ]
        },
        "KHR_materials_ior": {
          "ior": 2.3333333333333335
        },
        "KHR_materials_clearcoat": {
          "clearcoatFactor": 1,
          "clearcoatRoughnessFactor": 0.05
        }
      }
    }
  ],
  "meshes": [
    {
      "primitives": [
        {
          "mode": 4,
          "attributes": {
            "POSITION": 0,
            "TEXCOORD_0": 1,
            "NORMAL": 2
          },
          "material": 0
        }
      ]
    },
    {
      "primitives": [
        {
          "mode": 4,
          "attributes": {
            "POSITION": 3,
            "TEXCOORD_0": 4,
            "NORMAL": 5
          },
          "material": 1
        }
      ]
    },
    {
      "primitives": [
        {
          "mode": 4,
          "attributes": {
            "POSITION": 6,
            "TEXCOORD_0": 7,
            "NORMAL": 8
          },
          "material": 2
        }
      ]
    },
    {
      "primitives": [
        {
          "mode": 4,
          "attributes": {
            "POSITION": 9,
            "TEXCOORD_0": 10,
            "NORMAL": 11
          },
          "material": 3
        }
      ]
    },
    {
      "primitives": [
        {
          "mode": 4,
          "attributes": {
            "POSITION": 12,
            "TEXCOORD_0": 13,
            "NORMAL": 14
          },
          "material": 4
        }
      ]
    },
    {
      "primitives": [
        {
          "mode": 4,
          "attributes": {
            "POSITION": 15,
            "TEXCOORD_0": 16,
            "NORMAL": 17
          },
          "material": 5
        }
      ]
    }
  ],
  "extensionsUsed": [
    "KHR_materials_transmission",
    "KHR_materials_volume",
    "KHR_materials_ior",
    "KHR_materials_clearcoat"
  ]
}