<svg width="632" height="140" viewBox="0 0 632 140" fill="none" xmlns="http://www.w3.org/2000/svg">
<mask id="mask0_2811_901" style="mask-type:luminance" maskUnits="userSpaceOnUse" x="0" y="21" width="94" height="119">
<path d="M0.740023 26.1007V26.0487V26.0054V25.9794C0.740023 25.9534 0.740023 25.9534 0.766019 25.9361V25.9101C0.809345 25.7455 0.835339 25.5808 0.878665 25.4248C0.826674 25.7021 0.766018 25.9621 0.714027 26.2567C0.714027 26.2134 0.740023 26.1441 0.740023 26.1007ZM4.22342 21.7335C4.11077 21.7595 3.98946 21.8028 3.87681 21.8288C3.66885 21.8981 3.46089 21.9674 3.27025 22.0541C3.04496 22.1494 2.811 22.2881 2.60303 22.4527C2.49039 22.548 2.37774 22.6173 2.28242 22.73C2.16111 22.8253 2.05713 22.9379 1.95315 23.0593C1.78851 23.2239 1.64987 23.4059 1.53722 23.6138C1.39858 23.8218 1.28593 24.0298 1.19061 24.2637C1.09529 24.4457 1.02597 24.6536 0.956652 24.8616C0.887331 25.0003 0.844005 25.1649 0.818009 25.3295C0.818009 25.3729 0.792013 25.3989 0.792013 25.4422C0.766018 25.5635 0.722693 25.7021 0.696698 25.8321V25.8841V25.9101C0.670702 26.1614 0.670701 26.2394 0.644705 26.2567C0.644705 26.326 0.644706 26.3953 0.618711 26.4647V26.5513C0.592715 26.5773 0.592715 26.5773 0.618711 26.5946C0.618711 26.6466 0.592715 26.69 0.592715 26.7333V27.1232C0.566719 27.5391 0.566719 37.6427 0.566719 38.0587C0.566719 39.679 0.56672 41.828 0.540724 44.3236C0.462738 52.3129 0.31543 63.9935 0.31543 74.1318V74.851C0.31543 76.8959 0.324095 78.8716 0.341426 80.7346L0.31543 85.1538C0.31543 85.1538 0.367421 85.2665 0.410747 85.4571C0.506064 89.6857 0.662036 92.9438 0.939321 94.3996C3.14027 106.141 10.4883 108.68 19.2315 113.888C25.9557 117.856 54.5247 134.285 62.2454 138.722C63.4498 139.406 64.9143 139.406 66.1274 138.731L73.1895 134.771L73.4235 134.632L82.2793 129.667L84.7228 128.298L91.2217 124.641L92.5041 123.93C94.0119 123.09 94.0206 120.932 92.5128 120.092C82.9031 114.754 59.8798 101.176 57.3409 99.7027C35.7473 87.3288 32.0906 88.2646 32.0646 64.0542V63.8029C32.0646 54.1585 31.5794 42.7465 32.1339 33.2928H32.1079L29.517 31.6464C29.2831 31.5338 29.0318 31.3951 28.7978 31.2565C28.6592 31.1872 28.4946 31.1179 28.3559 31.0485C27.9833 30.8666 27.6454 30.6759 27.2728 30.494C27.1081 30.3987 26.9695 30.338 26.8135 30.2687C26.7182 30.2167 26.6489 30.1734 26.5622 30.13C26.3109 29.9914 26.051 29.8527 25.7997 29.7141C17.7671 25.4422 10.419 21.5688 5.74849 21.5688C5.20258 21.5688 4.7 21.6208 4.22342 21.7335Z" fill="white"/>
</mask>
<g mask="url(#mask0_2811_901)">
<path d="M2.74192 154.18L-18.2451 24.5752L91.6465 6.78564L112.625 136.391L2.74192 154.18Z" fill="url(#paint0_linear_2811_901)"/>
</g>
<path d="M154.46 25.9445C154.486 25.9705 154.486 25.9705 154.486 25.9878V26.0138C154.46 25.9618 154.46 25.9445 154.46 25.9445ZM129.496 29.6359C129.47 29.6619 129.426 29.6619 129.401 29.6792C129.149 29.8178 128.889 29.9565 128.638 30.0951C128.543 30.1385 128.473 30.1904 128.387 30.2338C128.222 30.3031 128.083 30.3724 127.927 30.4591C127.555 30.641 127.217 30.8317 126.844 31.0136C126.472 31.2216 126.108 31.4036 125.735 31.6115L123.144 33.2579L122.988 33.3532C123.127 35.8661 123.196 38.535 123.214 41.2559L123.162 52.0787V53.3958L123.058 82.5627C123.058 84.0098 123.829 85.3529 125.094 86.0721L127.858 87.6405L132.113 90.0234V90.0754L136.662 92.6663V92.6143L141.012 95.0665V95.1359L145.795 97.8394V97.7701L151.54 101.02C152.987 101.834 154.789 100.794 154.789 99.1305V52.1566C154.789 52.1306 154.789 52.1306 154.763 52.1306C154.711 46.2817 154.642 41.1952 154.668 38.0584C154.668 37.6858 154.668 29.09 154.642 27.123C154.642 27.123 154.642 26.8977 154.59 26.4817V26.4558C154.564 26.2651 154.547 26.1091 154.503 25.9445V25.8925V25.8665C154.477 25.7279 154.434 25.5632 154.408 25.4246C154.408 25.3813 154.382 25.3553 154.382 25.312C154.356 25.1473 154.313 24.9827 154.244 24.844C154.174 24.6447 154.105 24.4281 154.018 24.2375C153.923 24.0122 153.81 23.8042 153.672 23.5962C153.559 23.3883 153.42 23.2063 153.256 23.0417C153.16 22.9204 153.048 22.8077 152.926 22.7124C152.831 22.5998 152.718 22.5304 152.606 22.4351C152.398 22.2705 152.164 22.1318 151.93 22.0365C151.748 21.9412 151.54 21.8805 151.332 21.8112C151.219 21.7852 151.098 21.7419 150.985 21.7159C150.518 21.6033 149.998 21.5513 149.46 21.5513C144.798 21.5686 137.502 25.4159 129.496 29.6359Z" fill="url(#paint1_linear_2811_901)"/>
<mask id="mask1_2811_901" style="mask-type:luminance" maskUnits="userSpaceOnUse" x="122" y="21" width="33" height="81">
<path d="M154.46 25.9445C154.486 25.9705 154.486 25.9705 154.486 25.9878V26.0138C154.46 25.9618 154.46 25.9445 154.46 25.9445ZM129.496 29.6359C129.47 29.6619 129.426 29.6619 129.401 29.6792C129.149 29.8178 128.889 29.9565 128.638 30.0951C128.543 30.1385 128.473 30.1904 128.387 30.2338C128.222 30.3031 128.083 30.3724 127.927 30.4591C127.555 30.641 127.217 30.8317 126.844 31.0136C126.472 31.2216 126.108 31.4036 125.735 31.6115L123.144 33.2579L122.988 33.3532C123.127 35.8661 123.196 38.535 123.214 41.2559L123.162 52.0787V53.3958L123.058 82.5627C123.058 84.0098 123.829 85.3529 125.094 86.0721L127.858 87.6405L132.113 90.0234V90.0754L136.662 92.6663V92.6143L141.012 95.0665V95.1359L145.795 97.8394V97.7701L151.54 101.02C152.987 101.834 154.789 100.794 154.789 99.1305V52.1566C154.789 52.1306 154.789 52.1306 154.763 52.1306C154.711 46.2817 154.642 41.1952 154.668 38.0584C154.668 37.6858 154.668 29.09 154.642 27.123C154.642 27.123 154.642 26.8977 154.59 26.4817V26.4558C154.564 26.2651 154.547 26.1091 154.503 25.9445V25.8925V25.8665C154.477 25.7279 154.434 25.5632 154.408 25.4246C154.408 25.3813 154.382 25.3553 154.382 25.312C154.356 25.1473 154.313 24.9827 154.244 24.844C154.174 24.6447 154.105 24.4281 154.018 24.2375C153.923 24.0122 153.81 23.8042 153.672 23.5962C153.559 23.3883 153.42 23.2063 153.256 23.0417C153.16 22.9204 153.048 22.8077 152.926 22.7124C152.831 22.5998 152.718 22.5304 152.606 22.4351C152.398 22.2705 152.164 22.1318 151.93 22.0365C151.748 21.9412 151.54 21.8805 151.332 21.8112C151.219 21.7852 151.098 21.7419 150.985 21.7159C150.518 21.6033 149.998 21.5513 149.46 21.5513C144.798 21.5686 137.502 25.4159 129.496 29.6359Z" fill="white"/>
</mask>
<g mask="url(#mask1_2811_901)">
<path d="M123.786 106.86L110.312 23.6225L153.975 16.5518L167.45 99.7894L123.786 106.86Z" fill="url(#paint2_linear_2811_901)"/>
</g>
<mask id="mask2_2811_901" style="mask-type:luminance" maskUnits="userSpaceOnUse" x="154" y="25" width="1" height="2">
<path d="M154.486 26.015V25.9887C154.486 25.9624 154.486 25.9624 154.46 25.9448C154.46 25.9448 154.46 25.9624 154.486 26.015Z" fill="white"/>
</mask>
<g mask="url(#mask2_2811_901)">
<path d="M154.468 26.0227L154.434 25.9534L154.477 25.936L154.512 26.0054L154.468 26.0227Z" fill="url(#paint3_linear_2811_901)"/>
</g>
<path d="M122.632 0.772337C121.948 0.781002 121.246 0.850323 120.527 0.971636C118.127 1.36157 115.423 2.42738 111.888 4.25574C111.792 4.32506 111.68 4.36838 111.567 4.4377C111.472 4.48969 111.402 4.53302 111.307 4.57635C111.238 4.62834 111.168 4.67166 111.082 4.71499C110.735 4.92295 110.371 5.13092 109.999 5.36488C109.999 5.36488 109.973 5.36488 109.973 5.39087L109.947 5.41687H109.921C109.158 5.87612 108.344 6.36137 107.468 6.89861C106.827 7.28854 106.151 7.70447 105.458 8.1204C105.371 8.16372 105.276 8.20705 105.155 8.27637C104.002 8.98692 102.105 10.1914 99.8344 11.6298C99.2625 11.9764 98.6386 12.349 98.0061 12.7389C97.3995 13.1115 96.7583 13.5015 96.1084 13.8914C92.2957 16.1877 88.0151 18.6312 84.3671 20.347C83.9945 20.5029 83.6479 20.6676 83.3013 20.8322C82.79 21.0662 82.3135 21.2741 81.8195 21.4388C80.6671 21.8807 79.6272 22.2013 78.7434 22.3573C78.7174 22.3573 78.7001 22.3573 78.6741 22.3833C78.5614 22.4093 78.4488 22.4093 78.3535 22.4266C78.2841 22.4266 78.2148 22.4526 78.1455 22.4526H78.0502C77.8682 22.4786 77.6776 22.4786 77.4956 22.4786C77.357 22.4786 77.2443 22.4786 77.1057 22.4526C77.0364 22.4526 76.967 22.4266 76.8977 22.4266H76.8717C76.7504 22.4006 76.6118 22.3833 76.4731 22.3573C76.3605 22.3399 76.2392 22.3139 76.1265 22.288C75.7539 22.2186 75.312 22.106 74.8787 21.9413C74.4195 21.8027 73.9082 21.6381 73.4057 21.4301C72.9204 21.2655 72.4352 21.0575 71.9239 20.8235C71.8719 20.7975 71.8113 20.7802 71.7593 20.7542C71.482 20.6416 71.1614 20.5029 70.8581 20.3383C70.7888 20.3383 70.7455 20.2863 70.6761 20.269C70.3295 20.1043 69.9396 19.9224 69.567 19.7317C69.4283 19.6624 69.2637 19.5931 69.1077 19.5064C68.5098 19.2031 67.86 18.8825 67.2361 18.5359C67.1841 18.5359 67.1667 18.5099 67.1407 18.4839C66.4735 18.1373 65.7803 17.7734 65.1044 17.4008C62.7215 16.0837 60.3213 14.6539 58.103 13.3108H58.077C57.6177 13.0076 57.1758 12.7303 56.7599 12.479C56.5779 12.3577 56.4133 12.271 56.2746 12.1757H56.2573C55.954 11.9851 55.6767 11.8031 55.3994 11.6211C55.0788 11.4392 54.7929 11.2485 54.5243 11.0926C53.6924 10.6073 52.9472 10.1221 52.28 9.68013H52.254C51.7947 9.40284 51.3961 9.15156 51.0235 8.8916C50.6336 8.65764 50.313 8.44968 50.0097 8.26771C49.8884 8.19839 49.8017 8.14639 49.7064 8.11173C49.0132 7.69581 48.3373 7.27988 47.6961 6.88995C46.8209 6.3527 46.0064 5.86746 45.2439 5.4082H45.2179L45.1919 5.38221C45.1919 5.35621 45.1659 5.35621 45.1659 5.35621C44.7066 5.07893 44.2647 4.81897 43.8488 4.56768H43.8228C43.7275 4.51569 43.6581 4.47236 43.5888 4.42904C43.5715 4.42904 43.4502 4.33372 43.2682 4.24707H43.2422C39.7501 2.44471 37.0726 1.3789 34.6897 0.962971C33.9531 0.832994 33.2513 0.772337 32.5581 0.763672H32.2894C31.8302 0.763672 31.3709 0.798333 30.9203 0.850324H30.877C30.825 0.824328 30.7817 0.850324 30.7384 0.876319C30.7124 0.876319 30.669 0.876319 30.643 0.902314C30.5477 0.902314 30.4611 0.92831 30.3658 0.954306C30.3224 0.954306 28.3814 1.56087 26.4145 2.53137C24.1528 3.64051 21.7873 5.19157 21.0074 5.74614C16.4582 8.96092 12.8535 11.4392 10.0286 13.4668C9.3614 13.9521 8.72884 14.4113 8.13095 14.8532C7.55038 15.2952 7.0218 15.7111 6.51056 16.127H6.48457C5.99932 16.5429 5.54006 16.9155 5.09814 17.2795C4.89017 17.4614 4.68221 17.6521 4.46558 17.8341L3.91101 18.3973C3.28712 19.0212 2.75854 19.6191 2.31662 20.2256C1.90069 20.8495 1.55408 21.4474 1.30279 22.0713C1.23347 22.262 1.16415 22.4439 1.11216 22.6259C1.11216 22.6259 1.08617 22.6519 1.11216 22.6692C1.06017 22.8079 1.04284 22.9725 1.01684 23.1285C0.930191 23.5704 0.878201 24.0296 0.808879 24.4716C0.782884 24.6622 0.765554 24.8442 0.739558 25.0088C0.739558 25.0781 0.713562 25.1475 0.713562 25.2168C0.687566 25.3381 0.687568 25.4421 0.687568 25.5374C0.661572 25.6587 0.635577 25.7454 0.635577 25.8407C0.635577 25.8667 0.609581 25.8927 0.635577 25.91V26.0313C0.635577 25.9793 0.661572 25.962 0.687568 25.91V25.884V25.832C0.713563 25.6934 0.756888 25.5547 0.782883 25.4421C0.782883 25.3987 0.808879 25.3727 0.808879 25.3294C0.834875 25.1648 0.878201 25.0001 0.947522 24.8615C1.01684 24.6622 1.08616 24.4456 1.18148 24.2549C1.2768 24.0296 1.38945 23.8217 1.52809 23.6137C1.64074 23.4058 1.77938 23.2238 1.94402 23.0591C2.03933 22.9378 2.15198 22.8252 2.26463 22.7299C2.35994 22.6172 2.47259 22.5479 2.5939 22.4526C2.80187 22.2879 3.03583 22.1493 3.26112 22.054C3.44309 21.9587 3.65105 21.898 3.85902 21.8287C3.98033 21.8027 4.09298 21.7594 4.20563 21.7334C8.69418 20.6676 16.8048 24.9482 25.7992 29.688C26.0505 29.8266 26.3105 29.9653 26.5618 30.1039C26.6571 30.1473 26.7177 30.1992 26.813 30.2426C26.9777 30.3119 27.1163 30.3812 27.281 30.4679C27.6449 30.6498 27.9915 30.8405 28.3641 31.0224C28.5028 31.0918 28.6674 31.1611 28.806 31.2304C29.0313 31.3431 29.2393 31.4644 29.4733 31.577L29.5166 31.6203L32.0555 33.1974L54.039 45.7012C57.8084 47.9455 61.5777 50.2764 65.4164 52.0788C66.0143 52.3561 66.6122 52.6334 67.2187 52.8933C67.4267 52.9886 67.6347 53.0753 67.8426 53.1706C67.8859 53.1706 67.9119 53.1966 67.9379 53.1966C68.1459 53.2919 68.3539 53.3786 68.5358 53.4306C68.7178 53.5172 68.9258 53.5865 69.1164 53.6299C69.2984 53.7252 69.515 53.7945 69.697 53.8378C70.0002 53.9591 70.2775 54.0718 70.5808 54.1411C71.0661 54.2797 71.5253 54.4444 72.0366 54.557C72.4785 54.6697 72.9204 54.7823 73.3537 54.8603C73.7523 54.9556 74.1422 55.0163 74.5321 55.0856H74.5581C74.6708 55.1116 74.7834 55.1289 74.9047 55.1289C75.2773 55.1983 75.5979 55.2502 75.9705 55.2676H76.0659C76.3172 55.2936 76.5771 55.3196 76.8284 55.3369C77.0104 55.3542 77.175 55.3542 77.3656 55.3542H77.5909C77.8422 55.3542 78.1022 55.3369 78.3535 55.3369C78.6048 55.3109 78.8647 55.2849 79.116 55.2676H79.142C79.5146 55.2416 79.8352 55.1983 80.2078 55.1289C80.3205 55.1289 80.4331 55.1029 80.5544 55.0856H80.5804C80.9963 55.0163 81.4123 54.947 81.8282 54.8603C82.2441 54.765 82.6601 54.6697 83.076 54.557C83.3013 54.505 83.5612 54.4357 83.8125 54.3491C84.3411 54.2104 84.8783 54.0458 85.4069 53.8378C85.7968 53.7252 86.1694 53.5865 86.5594 53.4306C86.7413 53.3786 86.9493 53.2919 87.1573 53.1966C87.9891 52.85 88.847 52.4774 89.6788 52.0875C90.1641 51.8795 90.6233 51.6455 91.1086 51.3942C91.8971 50.9956 92.6856 50.5797 93.4742 50.1465C96.0131 48.76 98.5346 47.209 101.056 45.7099L123.04 33.2061L125.631 31.5857C126.367 31.2131 127.112 30.8231 127.823 30.4765C127.962 30.4072 128.126 30.3206 128.265 30.2512H128.291C128.386 30.1992 128.447 30.1559 128.542 30.1126C128.568 30.1126 128.585 30.0866 128.611 30.0606C128.863 29.948 129.123 29.8093 129.374 29.688C129.4 29.662 129.443 29.662 129.469 29.6447C138.412 24.9308 146.479 20.6762 150.968 21.742C151.08 21.768 151.193 21.8114 151.314 21.8374C151.522 21.9067 151.73 21.976 151.912 22.0627C152.146 22.158 152.371 22.2966 152.588 22.4613C152.701 22.5566 152.813 22.6259 152.909 22.7385C153.021 22.8339 153.143 22.9465 153.238 23.0678C153.394 23.2238 153.541 23.4144 153.654 23.6224C153.792 23.8303 153.905 24.0383 154 24.2636C154.096 24.4542 154.156 24.6622 154.226 24.8702C154.295 25.0088 154.338 25.1734 154.364 25.3381C154.364 25.3814 154.39 25.4074 154.39 25.4507C154.416 25.5894 154.46 25.754 154.486 25.8927V25.8407V25.5374C154.486 25.4941 154.486 25.4421 154.46 25.3987V25.2168C154.46 25.1475 154.434 25.0781 154.434 25.0088C154.408 24.8442 154.382 24.6622 154.364 24.4716C154.295 24.0296 154.243 23.5704 154.156 23.1285C154.113 22.9725 154.07 22.8252 154.018 22.6692C154.044 22.6432 154.018 22.6432 154.018 22.6259C153.697 21.6554 153.203 20.7542 152.493 19.827C152.241 19.5238 151.981 19.2291 151.704 18.9259C151.539 18.7439 151.383 18.5793 151.193 18.3973C151.011 18.2067 150.82 18.0247 150.638 17.8341C149.252 16.5603 147.424 15.1565 145.067 13.4668C142.25 11.4305 138.637 8.96092 134.088 5.74614C133.299 5.19157 130.942 3.64051 128.681 2.53137C126.714 1.56087 124.773 0.954306 124.721 0.954306C124.651 0.92831 124.608 0.92831 124.539 0.902314C124.513 0.902314 124.469 0.902315 124.443 0.876319H124.348C124.322 0.850324 124.279 0.850324 124.253 0.850324H124.21C123.768 0.798333 123.317 0.772337 122.866 0.763672H122.632V0.772337Z" fill="white"/>
<path d="M247.204 71.0382H236.424V44.1848C236.424 42.1485 235.87 40.0862 234.604 38.4918C232.551 35.9182 229.986 34.6271 226.918 34.6271C224.319 34.6271 222.109 35.5196 220.272 37.3133C218.444 39.107 217.491 41.3253 217.404 43.9768V71.0295H206.616V43.9768C206.512 41.3253 205.55 39.107 203.73 37.3133C201.659 35.277 199.086 34.3932 196.01 34.6791C194.268 34.8351 192.578 35.537 191.235 36.6461C188.809 38.6391 187.596 41.1433 187.596 44.1415V71.0382H176.816V44.1415C176.816 41.3253 177.345 38.6998 178.411 36.2388C179.477 33.7866 180.924 31.629 182.769 29.7746C184.615 27.9203 186.764 26.4645 189.216 25.416C191.669 24.3676 194.303 23.8477 197.119 23.8477C202.873 23.8477 207.838 26.0226 211.997 30.3725C216.191 26.0226 221.165 23.8477 226.918 23.8477C229.7 23.8477 232.325 24.3676 234.778 25.416C237.23 26.4645 239.388 27.9203 241.242 29.7746C243.096 31.629 244.552 33.7866 245.618 36.2388C246.675 38.6911 247.212 41.3253 247.212 44.1415V71.0382H247.204Z" fill="white"/>
<path d="M275.539 71.3502C272.255 71.3502 269.161 70.7263 266.284 69.4872C263.399 68.2481 260.877 66.541 258.711 64.3834C256.545 62.2258 254.846 59.6956 253.607 56.8101C252.359 53.9246 251.744 50.8571 251.744 47.5903C251.744 44.3062 252.368 41.2214 253.607 38.3359C254.846 35.4504 256.553 32.9289 258.711 30.7626C263.598 26.1094 269.204 23.7871 275.539 23.7871C279.889 23.7871 283.866 24.8616 287.453 27.0105C291.049 29.1682 293.918 32.0363 296.066 35.6237C298.215 39.2198 299.29 43.2057 299.29 47.5817C299.29 48.8121 299.195 50.0166 299.013 51.1864H263.113C263.754 53.318 264.846 55.1464 266.397 56.6714C268.91 59.2103 271.951 60.4754 275.539 60.4754C277.488 60.4754 279.351 60.0508 281.128 59.193C282.904 58.3351 284.42 57.1393 285.677 55.5883L296.699 58.3871C294.593 62.3731 291.656 65.5186 287.904 67.8408C284.143 70.1891 280.019 71.3502 275.539 71.3502ZM286.232 40.3376C285.027 38.5439 283.485 37.1575 281.604 36.1523C279.724 35.1471 277.696 34.6532 275.539 34.6532C271.18 34.6532 267.601 36.5509 264.794 40.3462H286.232V40.3376Z" fill="white"/>
<path d="M327.338 71.0383C324.098 71.0383 321.048 70.4317 318.188 69.21C315.329 67.9882 312.816 66.2985 310.667 64.1322C308.518 61.9745 306.828 59.4616 305.589 56.6108C304.358 53.76 303.743 50.7012 303.743 47.4431C303.743 44.1763 304.358 41.1261 305.589 38.2753C306.828 35.4245 308.518 32.9202 310.684 30.7539C312.842 28.5963 315.354 26.8979 318.205 25.6762C321.056 24.4544 324.098 23.8478 327.338 23.8478C332.061 23.8478 336.342 25.1043 340.189 27.6258V0.772461H350.968V47.1224C350.968 53.8033 348.655 59.4703 344.045 64.1148C341.896 66.2898 339.392 67.9882 336.524 69.21C333.664 70.4231 330.597 71.0383 327.338 71.0383ZM326.013 60.1982C330.146 60.5361 333.612 59.3143 336.402 56.5155C338.924 53.8639 340.189 50.7878 340.189 47.2871C340.059 43.7084 338.811 40.7362 336.446 38.3706C333.976 35.901 330.484 34.5579 326.992 34.6359C323.647 34.7139 320.77 35.9357 318.353 38.3013C315.918 40.6929 314.514 44.0463 314.514 47.4431C314.514 51.4464 316.134 54.7824 319.349 57.4686C321.229 59.037 323.586 59.9989 326.013 60.1982Z" fill="white"/>
<path d="M396.253 71.0382C392.986 71.0382 389.927 70.4316 387.059 69.2098C384.191 67.988 381.687 66.2983 379.538 64.132C377.389 61.9744 375.699 59.4615 374.469 56.6107C373.229 53.7598 372.614 50.701 372.614 47.4429C372.614 44.1761 373.229 41.126 374.469 38.2752C375.699 35.4243 377.397 32.9201 379.564 30.7538C381.73 28.5875 384.234 26.8978 387.085 25.676C389.936 24.4542 392.995 23.8477 396.253 23.8477C400.473 23.8477 404.433 24.9395 408.15 27.1058C411.781 29.2027 414.675 32.1489 416.824 35.9356L407.431 41.152C406.287 39.133 404.727 37.5473 402.734 36.3775C400.741 35.2077 398.584 34.6271 396.253 34.6271C392.717 34.6271 389.251 36.1349 386.825 38.7084C384.59 41.0913 383.446 43.9248 383.394 47.2349C383.35 50.6404 384.694 54.0024 387.076 56.42C389.624 59.0022 392.717 60.2847 396.357 60.2587C398.592 60.2414 400.828 59.6348 402.752 58.491C405.169 57.0612 406.928 55.0509 408.055 52.46L417.959 56.602C416.027 61.0559 413.115 64.5566 409.242 67.1042C405.308 69.7211 400.967 71.0382 396.253 71.0382Z" fill="white"/>
<path d="M446.303 71.3502C443.019 71.3502 439.926 70.7263 437.049 69.4872C434.163 68.2481 431.642 66.541 429.476 64.3834C427.309 62.2258 425.611 59.6956 424.372 56.8101C423.124 53.9246 422.509 50.8571 422.509 47.5903C422.509 44.3062 423.133 41.2214 424.372 38.3359C425.611 35.4504 427.318 32.9289 429.476 30.7626C434.363 26.1094 439.969 23.7871 446.303 23.7871C450.653 23.7871 454.631 24.8616 458.218 27.0105C461.814 29.1682 464.682 32.0363 466.831 35.6237C468.98 39.2198 470.055 43.2057 470.055 47.5817C470.055 48.8121 469.959 50.0166 469.777 51.1864H433.878C434.519 53.318 435.611 55.1464 437.162 56.6714C439.674 59.2103 442.716 60.4754 446.303 60.4754C448.253 60.4754 450.116 60.0508 451.892 59.193C453.669 58.3351 455.185 57.1393 456.442 55.5883L467.464 58.3871C465.358 62.3731 462.421 65.5186 458.669 67.8408C454.917 70.1891 450.792 71.3502 446.303 71.3502ZM457.005 40.3376C455.8 38.5439 454.258 37.1575 452.378 36.1523C450.497 35.1471 448.47 34.6532 446.312 34.6532C441.953 34.6532 438.375 36.5509 435.567 40.3462H457.005V40.3376Z" fill="white"/>
<path d="M516.889 71.0382H506.11V44.0982C506.11 41.5506 505.139 39.3496 503.207 37.4953C501.136 35.5803 498.641 34.6271 495.729 34.6271C492.783 34.6271 490.296 35.5803 488.251 37.4953C486.293 39.3496 485.305 41.5506 485.305 44.0982V71.0295H474.525V44.0982C474.525 41.282 475.089 38.6391 476.215 36.1609C477.342 33.6826 478.884 31.525 480.834 29.6966C482.783 27.8683 485.028 26.4299 487.575 25.3987C490.123 24.3676 492.835 23.8477 495.729 23.8477C498.623 23.8477 501.335 24.3676 503.866 25.3987C506.396 26.4299 508.64 27.8596 510.59 29.6966C512.539 31.525 514.073 33.6826 515.208 36.1609C516.335 38.6478 516.898 41.2906 516.898 44.0982V71.0382H516.889Z" fill="white"/>
<path d="M543.587 71.0383H532.807V34.6359H521.586V23.8478H532.807V0.772461H543.587V23.8478H554.808V34.6359H543.587V71.0383Z" fill="white"/>
<path d="M583.177 71.3502C579.893 71.3502 576.8 70.7263 573.923 69.4872C571.037 68.2481 568.516 66.541 566.35 64.3834C564.183 62.2258 562.485 59.6956 561.246 56.8101C559.998 53.9246 559.383 50.8571 559.383 47.5903C559.383 44.3062 560.007 41.2214 561.246 38.3359C562.485 35.4504 564.192 32.9289 566.35 30.7626C571.237 26.1094 576.843 23.7871 583.177 23.7871C587.527 23.7871 591.505 24.8616 595.092 27.0105C598.688 29.1682 601.556 32.0363 603.705 35.6237C605.854 39.2198 606.929 43.2057 606.929 47.5817C606.929 48.8121 606.833 50.0166 606.651 51.1864H570.752C571.393 53.318 572.485 55.1464 574.036 56.6714C576.549 59.2103 579.59 60.4754 583.177 60.4754C585.127 60.4754 586.99 60.0508 588.766 59.193C590.543 58.3351 592.059 57.1393 593.316 55.5883L604.338 58.3871C602.232 62.3731 599.295 65.5186 595.543 67.8408C591.782 70.1891 587.666 71.3502 583.177 71.3502ZM593.87 40.3376C592.666 38.5439 591.123 37.1575 589.243 36.1523C587.363 35.1471 585.335 34.6532 583.177 34.6532C578.819 34.6532 575.24 36.5509 572.433 40.3462H593.87V40.3376Z" fill="white"/>
<path d="M622.171 71.0382H611.392V44.0982C611.392 41.308 611.92 38.6911 612.986 36.2388C614.052 33.7866 615.499 31.629 617.345 29.7746C619.19 27.9203 621.339 26.4645 623.791 25.416C626.244 24.3676 628.878 23.8477 631.685 23.8477V34.6271C628.566 34.6271 625.992 35.9356 623.965 38.5438C622.717 40.1555 622.18 42.2178 622.18 44.2541V71.0382H622.171Z" fill="white"/>
<path d="M383.844 97.3372C384.217 96.9646 384.503 96.6006 384.711 96.2627L386.894 97.3285C386.617 97.7618 386.392 98.091 386.236 98.2903C385.629 99.0789 384.936 99.7028 384.156 100.179C382.96 100.907 381.661 101.271 380.266 101.271C378.879 101.271 377.588 100.916 376.392 100.197C375.396 99.6074 374.572 98.8103 373.923 97.8224C373.29 96.8606 372.883 95.7774 372.709 94.5903C372.588 93.8191 372.588 93.0739 372.692 92.3374C372.848 91.1502 373.247 90.0411 373.897 89.01C374.815 87.5975 376.046 86.5924 377.597 85.9945C378.94 85.4919 380.292 85.3792 381.643 85.6392C382.874 85.8818 383.974 86.3931 384.953 87.1816C385.569 87.6755 386.097 88.2734 386.556 88.9926L386.886 89.5125L384.979 91.1069C384.919 90.925 384.849 90.7776 384.763 90.639C384.485 90.1451 384.113 89.6858 383.654 89.2786C383.168 88.8453 382.648 88.516 382.103 88.2907C381.106 87.8835 380.11 87.8055 379.122 88.0568C378.307 88.2474 377.571 88.6374 376.903 89.2266C376.245 89.7812 375.768 90.4484 375.456 91.2282C375.092 92.1121 374.962 93.0393 375.066 94.0098C375.179 94.9716 375.508 95.8294 376.037 96.5833C376.47 97.2072 377.007 97.7098 377.631 98.0997C378.238 98.4636 378.896 98.6976 379.616 98.8103C380.413 98.9142 381.193 98.8363 381.981 98.5763C382.648 98.325 383.272 97.9177 383.844 97.3372Z" fill="white"/>
<path d="M421.035 92.8573C421.095 94.0878 420.939 95.1969 420.567 96.1848C420.212 97.1119 419.64 97.9871 418.843 98.8103C417.811 99.8415 416.728 100.535 415.576 100.89C415.09 101.02 414.614 101.115 414.137 101.167C413.279 101.263 412.456 101.228 411.65 101.063C410.888 100.916 410.151 100.647 409.449 100.249C408.722 99.8501 408.063 99.3302 407.482 98.689C406.633 97.7445 406.053 96.7393 405.749 95.6908C405.541 94.9803 405.438 94.1831 405.438 93.2819C405.438 92.4587 405.559 91.6529 405.81 90.8817C406.113 89.9805 406.555 89.1746 407.153 88.4468C407.994 87.4069 409.051 86.6271 410.307 86.1072C411.876 85.4833 413.435 85.3533 414.995 85.7172C416.85 86.2025 418.323 87.1643 419.414 88.5767C420.09 89.4433 420.558 90.3878 420.818 91.4189C420.931 91.8435 421 92.3201 421.035 92.8573ZM418.158 95.5695C418.617 94.5557 418.747 93.5072 418.565 92.4327C418.401 91.4449 417.976 90.5611 417.283 89.7812C416.616 88.9927 415.758 88.4554 414.718 88.1521C413.721 87.8489 412.708 87.8575 411.685 88.1695C411.2 88.3255 410.732 88.5507 410.299 88.8367C409.865 89.1313 409.545 89.3739 409.354 89.5906C409.155 89.7985 408.99 90.0065 408.843 90.2145C408.306 90.977 407.976 91.8262 407.872 92.762C407.76 93.7065 407.881 94.6077 408.245 95.4482C408.687 96.514 409.389 97.3372 410.351 97.9438C411.165 98.455 412.032 98.7323 412.976 98.7756C413.201 98.793 413.444 98.793 413.713 98.7756C414.735 98.6977 415.688 98.3164 416.572 97.6145C417.283 97.0599 417.803 96.3754 418.158 95.5695Z" fill="white"/>
<path d="M455.843 101.184H453.399L453.408 90.9506L448.868 101.184L446.415 101.193L442.022 91.0806V101.184L439.604 101.193V85.5176H442.256L447.646 97.9001L453.157 85.5176H455.834L455.843 101.184Z" fill="white"/>
<path d="M486.761 85.5176V87.9525L476.839 87.9352L476.857 91.8605H485.071V94.2781L476.822 94.2607L476.857 98.7666H486.761V101.202L474.404 101.21V85.5262L486.761 85.5176Z" fill="white"/>
<path d="M517.297 99.9797C517.314 100.257 517.323 100.63 517.323 101.089V101.184H514.888C514.888 101.176 514.888 101.158 514.896 101.124C514.896 101.089 514.905 101.063 514.905 101.046C514.905 100.838 514.905 100.621 514.888 100.387C514.879 100.136 514.853 99.8064 514.792 99.3905C514.792 99.3818 514.784 99.3212 514.766 99.2172C514.749 99.1132 514.732 98.9832 514.706 98.8359C514.68 98.68 514.654 98.5413 514.619 98.4027C514.593 98.3074 514.567 98.1774 514.524 98.0214C514.515 98.0041 514.498 97.9694 514.489 97.9174C514.472 97.8654 514.455 97.8221 514.437 97.7701C514.42 97.7181 514.394 97.6661 514.377 97.6142C514.325 97.5102 514.212 97.3195 514.039 97.0509C513.848 96.7996 513.709 96.635 513.631 96.5483C513.432 96.3404 513.207 96.1584 512.964 95.9938C512.652 95.7771 512.34 95.6125 512.037 95.5085C511.803 95.4132 511.508 95.3439 511.162 95.2919C511.136 95.2919 511.058 95.2832 510.962 95.2659C510.858 95.2486 510.763 95.2399 510.668 95.2312C510.131 95.1879 509.862 95.1706 509.845 95.1706C509.697 95.1706 509.498 95.1706 509.247 95.1619C508.995 95.1619 508.805 95.1446 508.666 95.1359C508.606 95.1359 508.467 95.1359 508.268 95.1272C508.068 95.1186 507.895 95.1186 507.765 95.1186V101.184H505.33V85.5176H512.626H512.817C512.886 85.5176 512.947 85.5176 512.981 85.5262C513.025 85.5349 513.051 85.5349 513.059 85.5349C513.241 85.5522 513.484 85.6042 513.796 85.6909C514.229 85.8382 514.515 85.9422 514.636 86.0028C515.078 86.2455 515.425 86.4881 515.685 86.722C516.084 87.06 516.378 87.3979 516.578 87.7185C516.803 88.0565 516.993 88.4464 517.141 88.8883C517.253 89.2176 517.323 89.6162 517.34 90.0755C517.366 90.682 517.297 91.2106 517.149 91.6525C516.993 92.2071 516.742 92.7097 516.387 93.1689C516.127 93.5155 515.78 93.8535 515.338 94.1827C515.087 94.3387 514.948 94.4254 514.914 94.4427C514.922 94.4514 514.94 94.4687 514.974 94.4947C515 94.5207 515.026 94.5467 515.035 94.5467L515.269 94.7806C515.304 94.8066 515.425 94.9539 515.659 95.2052L515.997 95.6125C516.058 95.6991 516.153 95.8378 516.274 96.0458C516.421 96.3057 516.525 96.505 516.586 96.6523C516.69 96.8603 516.768 97.0509 516.82 97.2156C516.837 97.2762 516.898 97.5102 516.993 97.9001C517.002 97.9174 517.037 98.0821 517.089 98.3854C517.106 98.524 517.132 98.6366 517.149 98.7406C517.193 99.0006 517.227 99.1999 517.245 99.3472C517.279 99.6418 517.297 99.8498 517.297 99.9797ZM514.792 91.0546C514.922 90.6907 514.948 90.3094 514.87 89.9022C514.818 89.5902 514.671 89.2696 514.446 88.949C514.247 88.6977 514.021 88.4897 513.761 88.3078C513.718 88.2818 513.657 88.2558 513.588 88.2124C513.51 88.1691 513.458 88.1431 513.432 88.1171C513.172 88.0131 512.895 87.9525 512.618 87.9265H507.73V92.6577H512.583C512.877 92.6317 513.146 92.5797 513.38 92.4844C513.77 92.3024 514.091 92.0771 514.333 91.7998C514.532 91.6179 514.68 91.3752 514.792 91.0546Z" fill="white"/>
<path d="M547.114 97.3372C547.486 96.9646 547.772 96.6006 547.98 96.2627L550.164 97.3285C549.887 97.7618 549.661 98.091 549.505 98.2903C548.899 99.0789 548.206 99.7028 547.426 100.179C546.23 100.907 544.93 101.271 543.535 101.271C542.149 101.271 540.857 100.916 539.662 100.197C538.665 99.6074 537.842 98.8103 537.192 97.8224C536.56 96.8606 536.152 95.7774 535.979 94.5903C535.858 93.8191 535.858 93.0739 535.962 92.3374C536.118 91.1502 536.516 90.0411 537.166 89.01C538.085 87.5975 539.315 86.5924 540.866 85.9945C542.209 85.4919 543.561 85.3792 544.913 85.6392C546.143 85.8818 547.244 86.3931 548.223 87.1816C548.838 87.6755 549.367 88.2734 549.826 88.9926L550.155 89.5125L548.249 91.1069C548.188 90.925 548.119 90.7776 548.032 90.639C547.755 90.1451 547.382 89.6858 546.923 89.2786C546.438 88.8453 545.918 88.516 545.372 88.2907C544.376 87.8835 543.379 87.8055 542.391 88.0568C541.577 88.2474 540.84 88.6374 540.173 89.2266C539.514 89.7812 539.038 90.4484 538.726 91.2282C538.362 92.1121 538.232 93.0393 538.336 94.0098C538.449 94.9716 538.778 95.8294 539.306 96.5833C539.74 97.2072 540.277 97.7098 540.901 98.0997C541.507 98.4636 542.166 98.6976 542.885 98.8103C543.682 98.9142 544.462 98.8363 545.251 98.5763C545.918 98.325 546.542 97.9177 547.114 97.3372Z" fill="white"/>
<path d="M571.133 85.5176L571.151 101.202H568.716V85.5262L571.133 85.5176Z" fill="white"/>
<path d="M602.502 90.8554C602.571 91.254 602.606 91.6786 602.606 92.1378V101.21H600.171V97.7875H592.138V101.21H589.703L589.72 92.0859V91.6006C589.746 91.1327 589.824 90.7081 589.92 90.3355C589.98 90.0235 590.119 89.6596 590.327 89.2264C590.786 88.2472 591.436 87.4413 592.277 86.8088C592.84 86.3842 593.499 86.0462 594.244 85.8123C595.682 85.3617 597.077 85.405 598.429 85.9163C599.01 86.1675 599.521 86.4535 599.954 86.7568C600.769 87.3633 601.392 88.0825 601.834 88.9144C602.172 89.573 602.389 90.2228 602.502 90.8554ZM600.188 92.1205C600.223 91.7046 600.145 91.2193 599.971 90.6648C599.807 90.2142 599.564 89.7983 599.235 89.417C598.776 88.8538 598.264 88.4552 597.684 88.2125C597.311 88.0566 596.921 87.9612 596.531 87.9352C596.133 87.9006 595.777 87.9266 595.465 88.0046C595.145 88.0825 594.911 88.1432 594.764 88.1952C594.616 88.2472 594.486 88.2992 594.382 88.3512C593.758 88.6631 593.239 89.1397 592.814 89.7636C592.537 90.1968 592.346 90.6561 592.242 91.1327C592.164 91.4446 592.129 91.7566 592.129 92.0685L592.147 95.37H600.179L600.188 92.1205Z" fill="white"/>
<path d="M631.677 98.758V101.193H621.166V85.5176H623.584L623.601 98.758H631.677Z" fill="white"/>
<defs>
<linearGradient id="paint0_linear_2811_901" x1="56.8811" y1="140.513" x2="36.801" y2="16.4887" gradientUnits="userSpaceOnUse">
<stop stop-color="white"/>
<stop offset="0.2394" stop-color="#FCFCFC"/>
<stop offset="0.4124" stop-color="#F3F3F3"/>
<stop offset="0.5644" stop-color="#E3E3E3"/>
<stop offset="0.7045" stop-color="#CDCDCD"/>
<stop offset="0.8362" stop-color="#B0B0B0"/>
<stop offset="0.9601" stop-color="#8D8D8D"/>
<stop offset="1" stop-color="#808080"/>
</linearGradient>
<linearGradient id="paint1_linear_2811_901" x1="122.974" y1="61.4376" x2="154.783" y2="61.4376" gradientUnits="userSpaceOnUse">
<stop stop-color="white"/>
<stop offset="0.2394" stop-color="#FCFCFC"/>
<stop offset="0.4124" stop-color="#F3F3F3"/>
<stop offset="0.5644" stop-color="#E3E3E3"/>
<stop offset="0.7045" stop-color="#CDCDCD"/>
<stop offset="0.8362" stop-color="#B0B0B0"/>
<stop offset="0.9601" stop-color="#8D8D8D"/>
<stop offset="1" stop-color="#808080"/>
</linearGradient>
<linearGradient id="paint2_linear_2811_901" x1="145.533" y1="102.474" x2="132.848" y2="24.1257" gradientUnits="userSpaceOnUse">
<stop stop-color="white"/>
<stop offset="0.2394" stop-color="#FCFCFC"/>
<stop offset="0.4124" stop-color="#F3F3F3"/>
<stop offset="0.5644" stop-color="#E3E3E3"/>
<stop offset="0.7045" stop-color="#CDCDCD"/>
<stop offset="0.8362" stop-color="#B0B0B0"/>
<stop offset="0.9601" stop-color="#8D8D8D"/>
<stop offset="1" stop-color="#808080"/>
</linearGradient>
<linearGradient id="paint3_linear_2811_901" x1="156.489" y1="24.1737" x2="156.461" y2="24.1063" gradientUnits="userSpaceOnUse">
<stop stop-color="#D8123A"/>
<stop offset="0.2622" stop-color="#D5133A"/>
<stop offset="0.4532" stop-color="#CC1539"/>
<stop offset="0.6216" stop-color="#BC1937"/>
<stop offset="0.777" stop-color="#A51E35"/>
<stop offset="0.9221" stop-color="#892532"/>
<stop offset="1" stop-color="#762930"/>
</linearGradient>
</defs>
</svg>
