<svg width="541" height="212" viewBox="0 0 541 212" fill="none" xmlns="http://www.w3.org/2000/svg">
<g clip-path="url(#clip0_2815_4464)">
<path d="M540.902 122.351C540.501 113.591 537.598 106.182 532.202 100.117C526.805 94.0514 518.978 88.1904 508.728 82.534L505.691 81.1199V80.9153H505.486L504.881 80.5151L501.844 79.101C497.125 76.673 493.411 74.6897 490.713 73.1422C488.015 71.5947 485.049 69.5047 481.808 66.881C478.566 64.2574 476.34 61.5981 475.129 58.8945C472.431 53.3714 472.021 48.4888 473.918 44.2465C475.806 40.0042 478.709 36.6334 482.618 34.1432C486.528 31.6529 490.918 29.9987 495.771 29.1894C497.525 28.9226 499.146 28.7892 500.624 28.7892C506.555 28.7892 512.156 30.0698 517.419 32.6312C523.35 36.002 527.268 42.4677 529.156 52.0285L540.688 46.9768C535.425 34.3122 524.57 26.9659 508.113 24.9471C505.549 24.5468 503.055 24.3423 500.624 24.3423H500.019C486.928 24.4757 476.679 27.6774 469.261 33.9386C461.843 40.1998 458.468 48.6578 459.145 59.3036C459.679 68.0639 462.617 75.4724 467.943 81.5379C473.268 87.6034 481.131 93.4644 491.514 99.1208L494.346 100.739H494.551C494.685 100.873 494.818 100.98 494.952 101.042C495.085 101.113 495.219 101.14 495.352 101.14L498.184 102.758C503.038 105.186 506.787 107.134 509.414 108.619C512.041 110.105 515.006 112.195 518.319 114.881C521.622 117.575 523.884 120.208 525.095 122.76C527.794 128.826 527.998 134.109 525.701 138.627C523.403 143.145 520.002 146.676 515.478 149.237C510.954 151.798 506.199 153.275 501.212 153.684H500.606C497.775 153.684 494.8 153.346 491.701 152.67C484.684 150.651 479.662 147.716 476.625 143.883C473.589 140.041 471.531 135.434 470.454 130.035L458.922 135.087C464.318 147.885 475.378 155.294 492.111 157.321C494.4 157.864 496.831 158.131 499.395 158.131C499.663 158.131 499.903 158.166 500.108 158.229C500.313 158.3 500.482 158.326 500.615 158.326C502.637 158.326 504.863 158.122 507.294 157.722C518.221 156.512 526.716 152.741 532.789 146.409C538.863 140.076 541.561 132.063 540.884 122.36L540.902 122.351Z" fill="white"/>
<path d="M307.18 24.3335H232.912C226.705 24.2 221.309 24.2 216.723 24.3335L217.123 32.4179C223.33 30.2656 228.584 29.056 232.903 28.7803H258.603V158.326H281.267V28.7803H306.966C311.419 29.056 316.744 30.2656 322.951 32.4179L323.352 24.3335C318.766 24.2 313.369 24.2 307.162 24.3335H307.18Z" fill="white"/>
<path d="M436.285 24.3335H411.191L412.811 25.3474C413.889 26.0233 415.002 27.2684 416.151 29.0828C417.299 30.906 417.869 32.9604 417.869 35.2461V131.645C414.227 138.244 409.196 143.572 402.793 147.61C396.381 151.647 389.338 153.746 381.644 153.871C380.023 153.737 378.536 153.435 377.191 152.964C375.837 152.492 374.689 151.718 373.754 150.642C372.81 149.566 371.999 148.552 371.323 147.61C370.646 146.667 370.112 145.155 369.702 143.065C369.301 140.975 368.963 139.196 368.687 137.711C368.411 136.226 368.25 133.975 368.179 130.943C368.108 127.91 368.046 125.455 367.974 123.57C367.903 121.684 367.876 118.785 367.876 114.881V111.243H368.081V28.3801C368.081 27.304 367.645 26.3613 366.763 25.5519C365.882 24.7426 364.911 24.3424 363.825 24.3424H338.534L340.155 25.3563C341.366 26.0322 342.515 27.2773 343.592 29.0916C344.67 30.9149 345.213 32.9693 345.213 35.255V114.071C345.213 129.031 347.27 139.667 351.384 146C355.498 152.332 362.48 156.174 372.329 157.517C374.894 158.06 377.725 158.327 380.824 158.327C388.109 158.327 394.992 156.708 401.466 153.479C407.94 150.242 413.408 145.733 417.86 139.934V158.327H440.524V28.3801C440.524 27.304 440.123 26.3613 439.313 25.5519C438.502 24.7426 437.487 24.3424 436.276 24.3424L436.285 24.3335Z" fill="white"/>
<path d="M154.174 198.393C155.474 197.743 156.623 196.054 156.623 194.213C156.623 190.104 153.488 188.307 149.632 188.307H138.741V211.635H149.953C155.18 211.635 158.822 209.154 158.822 204.36C158.822 201.336 156.836 198.962 154.174 198.384V198.393ZM142.927 191.909H149.231C151.253 191.909 152.259 192.985 152.259 194.577C152.259 196.169 151.217 197.13 149.409 197.13H142.918V191.909H142.927ZM149.668 208.042H142.927V200.696H150.068C152.74 200.696 154.468 201.995 154.468 204.44C154.468 206.886 152.597 208.042 149.677 208.042H149.668Z" fill="white"/>
<path d="M207.631 197.236C207.631 192.3 204.06 188.307 197.354 188.307H187.479V211.635H191.664V206.13H196.962C197.684 206.13 198.405 206.059 199.055 205.952L203.125 211.644H207.987L202.831 204.805C205.93 203.329 207.622 200.376 207.622 197.245L207.631 197.236ZM197.532 202.528H191.655V191.874H197.568C200.881 191.874 203.232 194.248 203.232 197.236C203.232 200.225 200.89 202.528 197.532 202.528Z" fill="white"/>
<path d="M240.205 201.159H253.367V197.592H240.205V191.909H254.159V188.307H236.02V211.635H254.658V208.042H240.205V201.159Z" fill="white"/>
<path d="M293.404 208.22C288.827 208.22 285.434 204.44 285.434 199.94C285.434 195.44 288.827 191.731 293.653 191.731C295.488 191.731 297.224 192.274 298.809 193.492L301.222 190.682C299.165 188.956 296.396 187.942 293.359 187.942C286.298 187.942 281.07 193.305 281.07 199.931C281.07 206.557 286.298 211.991 293.359 211.991C296.708 211.991 299.664 210.764 301.828 208.789L299.272 205.908C297.758 207.384 295.666 208.211 293.395 208.211L293.404 208.22Z" fill="white"/>
<path d="M344.911 197.637H333.521V188.307H329.336V211.635H333.521V201.194H344.911V211.635H349.096V188.307H344.911V197.637Z" fill="white"/>
<path d="M395.153 181.396H391.048L387.833 186.688H391.404L395.153 181.396Z" fill="white"/>
<path d="M389.961 187.951C382.899 187.951 377.672 193.314 377.672 199.976C377.672 206.637 382.899 212 389.961 212C397.023 212 402.25 206.672 402.25 199.976C402.25 193.279 397.023 187.951 389.961 187.951ZM389.996 208.22C385.419 208.22 382.026 204.476 382.026 199.976C382.026 195.475 385.41 191.731 389.996 191.731C394.583 191.731 397.895 195.475 397.895 199.976C397.895 204.476 394.511 208.22 389.996 208.22Z" fill="white"/>
<path d="M170.194 0.613668V0C166.231 1.36964 159.045 4.27789 153.345 9.5163C146.488 15.8131 145.607 21.9408 145.5 24.6712V25.2849C149.454 23.9153 156.649 21.007 162.348 15.7686C169.205 9.47183 170.087 3.34405 170.194 0.613668Z" fill="white"/>
<path d="M67.3846 153.88H29.547V28.38C29.547 27.3039 29.1106 26.3612 28.229 25.5518C27.3474 24.7425 26.3768 24.3423 25.2993 24.3423H0L1.62072 25.3562C2.83181 26.0321 3.98056 27.2772 5.05807 29.0915C6.13558 30.9148 6.67879 32.9692 6.67879 35.2549V158.335H67.3846C73.725 158.469 79.1214 158.469 83.574 158.335L83.1732 150.251C77.1 152.412 71.8371 153.622 67.3935 153.888L67.3846 153.88Z" fill="white"/>
<path d="M221.46 83.9748C221.46 83.7702 221.46 83.5657 221.442 83.3611C221.442 83.2277 221.424 83.1032 221.424 82.9787C221.424 82.7652 221.406 82.5518 221.397 82.3472C221.38 82.0448 221.362 81.7513 221.335 81.449C221.326 81.3956 221.326 81.3422 221.326 81.28C221.326 81.2444 221.326 81.1999 221.326 81.1644C221.326 81.1377 221.326 81.111 221.317 81.0754C221.291 80.7197 221.264 80.3639 221.237 80.0082C221.228 79.8748 221.21 79.7503 221.202 79.6168C221.193 79.5546 221.193 79.4923 221.184 79.439C221.184 79.3945 221.184 79.3411 221.184 79.2967C221.157 78.9587 221.121 78.6207 221.086 78.2828C221.086 78.2116 221.068 78.1494 221.059 78.0871C221.05 78.016 221.05 77.9448 221.032 77.8826C220.997 77.5268 220.952 77.1711 220.908 76.8242C220.89 76.7086 220.872 76.593 220.863 76.4774C220.837 76.2817 220.81 76.0771 220.783 75.8815C220.783 75.8637 220.783 75.8548 220.774 75.837C220.739 75.5791 220.703 75.3212 220.658 75.0544V75.0099C220.641 74.9121 220.623 74.8053 220.605 74.7075C220.543 74.3518 220.489 74.0049 220.436 73.658C220.373 73.3112 220.311 72.9643 220.249 72.6264C220.249 72.6175 220.249 72.6086 220.249 72.5997C220.249 72.5819 220.24 72.573 220.24 72.5552C220.24 72.5019 220.222 72.4485 220.213 72.404C220.204 72.3507 220.195 72.3062 220.186 72.2528C220.169 72.1372 220.142 72.0216 220.115 71.906C220.115 71.8437 220.097 71.7904 220.08 71.7281C220.071 71.6658 220.062 71.6125 220.044 71.5591C220.035 71.5058 220.026 71.4613 220.017 71.4079C219.964 71.1055 219.901 70.8032 219.83 70.5097C219.83 70.4296 219.803 70.3496 219.786 70.2695C219.714 69.976 219.652 69.6825 219.59 69.3979C219.572 69.3446 219.563 69.2823 219.545 69.229C219.536 69.1845 219.527 69.1311 219.519 69.0778C219.519 69.06 219.501 69.0422 219.501 69.0244C219.474 68.9266 219.447 68.8199 219.429 68.7131C219.358 68.4463 219.296 68.1706 219.225 67.8949C219.153 67.6281 219.091 67.3702 219.02 67.1123C218.958 66.8454 218.886 66.5875 218.815 66.3296C218.744 66.0717 218.664 65.8049 218.592 65.547C218.414 64.9333 218.227 64.3196 218.04 63.7059C218.022 63.6437 218.005 63.5903 217.978 63.5281C217.951 63.4391 217.925 63.3502 217.898 63.2702L217.844 63.1101C217.8 62.9678 217.755 62.8255 217.711 62.6921C217.622 62.4164 217.533 62.1495 217.435 61.8827C217.408 61.7938 217.372 61.7049 217.346 61.6159C217.177 61.1268 216.998 60.6376 216.829 60.1574C216.811 60.1307 216.803 60.0951 216.794 60.0684C216.651 59.6949 216.509 59.3213 216.366 58.9478C216.233 58.5921 216.09 58.2452 215.948 57.8983C215.796 57.5248 215.636 57.1424 215.485 56.7688C215.449 56.6799 215.404 56.5821 215.36 56.4931C215.244 56.2174 215.128 55.9417 215.004 55.6571C214.977 55.6127 214.959 55.5682 214.941 55.5148C214.826 55.2569 214.71 55.0079 214.585 54.75C214.567 54.7144 214.55 54.6699 214.532 54.6343C214.487 54.5276 214.434 54.4298 214.389 54.3231C214.38 54.2964 214.371 54.2608 214.354 54.2341C214.3 54.1185 214.247 54.0118 214.184 53.8962C214.069 53.6382 213.953 53.3981 213.837 53.158C213.81 53.1135 213.793 53.0779 213.775 53.0335C213.721 52.9267 213.668 52.82 213.623 52.7222C213.499 52.4821 213.383 52.2419 213.258 51.9929C213.223 51.9395 213.196 51.8773 213.169 51.815C213.089 51.6638 213.009 51.5126 212.929 51.3526C212.929 51.3259 212.902 51.3081 212.884 51.2814C212.608 50.7567 212.332 50.2408 212.056 49.725C211.851 49.3604 211.638 48.9868 211.433 48.6222C211.388 48.5599 211.353 48.4977 211.317 48.4354C211.228 48.2842 211.139 48.133 211.05 47.9818C211.023 47.9285 210.996 47.8751 210.961 47.8306C210.809 47.5638 210.658 47.3059 210.498 47.048C210.418 46.9057 210.329 46.7634 210.248 46.63C210.168 46.5055 210.088 46.381 210.008 46.2564C209.883 46.0519 209.759 45.8562 209.634 45.6517C209.491 45.4204 209.34 45.1981 209.198 44.9668C209.002 44.6734 208.797 44.371 208.601 44.0775C208.548 43.9974 208.503 43.9263 208.45 43.8551C208.396 43.7751 208.343 43.695 208.289 43.615C208.289 43.6061 208.271 43.5883 208.263 43.5705C208.12 43.3749 207.978 43.1703 207.844 42.9658C207.844 42.9569 207.826 42.9569 207.826 42.9569C207.817 42.948 207.817 42.9391 207.817 42.9391C207.47 42.441 207.114 41.9519 206.758 41.4627C206.66 41.3204 206.553 41.1781 206.446 41.0358C206.268 40.7957 206.081 40.5556 205.903 40.3154L205.76 40.1375C205.716 40.0753 205.662 40.013 205.618 39.9508C205.546 39.8618 205.475 39.764 205.404 39.6751C205.342 39.6039 205.288 39.5239 205.235 39.4527C205.119 39.3104 205.003 39.1681 204.896 39.0258C204.727 38.8213 204.549 38.6078 204.38 38.3944C203.57 37.3983 202.724 36.4289 201.86 35.4683C201.86 35.4683 201.86 35.4683 201.86 35.4594C201.423 34.9792 200.978 34.5078 200.533 34.0453C200.31 33.8052 200.079 33.5651 199.847 33.3338C199.634 33.1115 199.411 32.8892 199.188 32.6757C198.28 31.7597 197.336 30.8703 196.374 30.0076C195.413 29.136 194.424 28.3 193.418 27.4818C193.062 27.1972 192.705 26.9037 192.349 26.628C191.619 26.0588 190.889 25.5074 190.15 24.9737C189.776 24.7069 189.411 24.4401 189.037 24.1822L182.554 19.6553L182.865 27.5529C182.883 28.0687 182.901 28.5668 182.919 29.056C182.919 29.5451 182.937 30.0254 182.937 30.4967V31.1993C182.937 32.8358 182.892 34.4722 182.812 36.1087C182.794 36.5534 182.767 36.9981 182.732 37.4427C182.714 37.7096 182.696 37.9853 182.678 38.2521C182.625 38.9636 182.563 39.6751 182.491 40.3866C182.482 40.5111 182.465 40.6445 182.456 40.769C182.456 40.8579 182.447 40.9469 182.429 41.0358C182.429 41.0625 182.42 41.0981 182.42 41.1248V41.1425V41.1781C182.269 42.61 182.073 44.1042 181.841 45.6339C181.592 47.2792 181.316 48.8534 181.013 50.3564C180.897 50.9612 180.764 51.5571 180.63 52.153C180.363 53.3447 180.078 54.5276 179.766 55.7016C179.615 56.2886 179.446 56.8756 179.277 57.4625C178.689 59.5348 178.03 61.5715 177.3 63.5814C177.122 64.0795 176.935 64.5775 176.748 65.0667C176.659 65.3157 176.569 65.5558 176.471 65.8049C176.276 66.3118 176.071 66.8188 175.866 67.3257C175.661 67.8326 175.447 68.3307 175.234 68.8287C174.958 69.4602 174.673 70.1005 174.388 70.732C174.334 70.8565 174.272 70.9721 174.219 71.0966C174.129 71.3012 174.04 71.4969 173.951 71.6925C173.764 72.0927 173.568 72.493 173.373 72.8932C173.301 73.0444 173.23 73.1867 173.159 73.3379C173.114 73.4357 173.061 73.5246 173.016 73.6225C172.829 73.9871 172.642 74.3606 172.455 74.7253C172.268 75.0899 172.081 75.4546 171.894 75.8103C171.707 76.1661 171.511 76.5218 171.324 76.8687C171.066 77.3489 170.799 77.8203 170.523 78.2917C170.407 78.514 170.274 78.7453 170.14 78.9676C169.828 79.519 169.499 80.0615 169.169 80.604C168.973 80.9331 168.769 81.2533 168.564 81.5824C168.377 81.8848 168.19 82.1871 167.994 82.4895C167.771 82.8542 167.531 83.2188 167.29 83.5746C167.014 84.0015 166.729 84.4284 166.435 84.8553C166.151 85.2822 165.857 85.7002 165.563 86.1182C165.269 86.5362 164.966 86.9542 164.663 87.3633C164.37 87.7724 164.058 88.1904 163.746 88.5995C163.141 89.4177 162.508 90.2182 161.867 91.0097C161.547 91.4099 161.217 91.8102 160.879 92.2015C160.692 92.4238 160.505 92.6551 160.318 92.8774L159.596 93.7045C159.365 93.9802 159.124 94.2559 158.875 94.5316C158.733 94.6917 158.581 94.8607 158.439 95.0208C158.243 95.2431 158.047 95.4566 157.842 95.67C157.513 96.0436 157.165 96.4082 156.827 96.764C156.809 96.7818 156.8 96.7995 156.782 96.8084C156.782 96.8084 156.779 96.8144 156.774 96.8262C156.07 97.5644 155.349 98.2937 154.627 98.9963C154.218 99.3965 153.817 99.7967 153.398 100.188C153.105 100.473 152.811 100.757 152.508 101.033C152.472 101.069 152.428 101.104 152.392 101.14C152.366 101.157 152.348 101.184 152.321 101.202C151.974 101.531 151.609 101.86 151.243 102.18C150.941 102.456 150.629 102.732 150.326 102.99C150.157 103.15 149.979 103.301 149.81 103.443C149.525 103.701 149.231 103.941 148.937 104.19C148.527 104.528 148.118 104.875 147.699 105.204C148.002 105.426 148.305 105.649 148.599 105.871C148.599 105.871 149.249 106.351 149.445 106.494L149.623 106.618C149.89 106.805 150.148 106.992 150.424 107.179C151.528 107.943 152.615 108.682 153.692 109.375C153.933 109.526 154.173 109.678 154.414 109.829C154.494 109.758 154.583 109.687 154.672 109.607C155.197 109.162 155.714 108.708 156.23 108.237C156.337 108.148 156.435 108.059 156.542 107.961C156.845 107.694 157.148 107.419 157.45 107.143C157.664 106.947 157.869 106.761 158.074 106.574C158.163 106.485 158.261 106.396 158.35 106.307C158.35 106.307 158.356 106.301 158.368 106.289C158.661 106.013 158.955 105.738 159.24 105.462C159.258 105.444 159.267 105.435 159.285 105.418C159.881 104.839 160.478 104.261 161.066 103.666C161.582 103.141 162.09 102.616 162.597 102.082C162.642 102.038 162.678 101.993 162.722 101.949C162.945 101.7 163.158 101.478 163.372 101.238C163.426 101.184 163.479 101.122 163.532 101.069C163.835 100.739 164.147 100.402 164.441 100.064C164.53 99.9746 164.61 99.8768 164.69 99.7878C164.895 99.5655 165.091 99.3432 165.278 99.1208C165.313 99.0763 165.358 99.0319 165.394 98.9874C165.848 98.4805 166.293 97.9646 166.729 97.4399C166.765 97.3954 166.81 97.3421 166.845 97.2976C167.442 96.595 168.021 95.8746 168.599 95.1542C168.671 95.0475 168.751 94.9497 168.822 94.8607C168.911 94.7451 169 94.6384 169.08 94.5227C169.517 93.9802 169.935 93.4288 170.354 92.8685C170.71 92.3883 171.066 91.8991 171.422 91.4099C171.77 90.9297 172.108 90.4405 172.446 89.9514C172.705 89.5867 172.954 89.2132 173.203 88.8397C173.515 88.3861 173.818 87.9325 174.112 87.47C174.397 87.0431 174.673 86.6073 174.949 86.1626C175.225 85.7268 175.501 85.2911 175.768 84.8464C176.017 84.4373 176.267 84.0192 176.516 83.6012C176.899 82.9431 177.273 82.2939 177.647 81.6357C177.665 81.609 177.683 81.5735 177.7 81.5379C178.083 80.8442 178.466 80.1505 178.84 79.439C179.277 78.6207 179.695 77.7847 180.114 76.9576C180.114 76.9309 180.14 76.9131 180.149 76.8865C180.434 76.2995 180.719 75.7036 181.004 75.1077C181.423 74.2183 181.823 73.3201 182.215 72.4218C182.438 71.9149 182.652 71.4079 182.865 70.8921C183.293 69.8782 183.702 68.8465 184.094 67.806C184.29 67.2901 184.486 66.7743 184.673 66.2496C184.762 66.0005 184.851 65.7604 184.94 65.5114C185.02 65.2624 185.109 65.0133 185.19 64.7732C185.279 64.5331 185.359 64.284 185.448 64.0439C187.318 58.4764 188.707 52.7489 189.589 46.9502C189.713 46.1408 189.829 45.3404 189.927 44.5311V44.4421C189.945 44.3888 189.945 44.3443 189.954 44.2909C190.007 43.9263 190.052 43.5616 190.096 43.1881C190.123 42.9124 190.15 42.6367 190.185 42.3521C190.185 42.2898 190.194 42.2276 190.203 42.1653C190.212 42.0141 190.23 41.8629 190.248 41.7028C190.265 41.5517 190.283 41.3916 190.301 41.2315C190.301 41.2048 190.31 41.1692 190.31 41.1425C190.346 40.769 190.381 40.3866 190.408 40.013C190.417 39.9597 190.417 39.9063 190.417 39.853C190.435 39.6929 190.452 39.5328 190.461 39.3816C190.488 39.0792 190.506 38.7857 190.524 38.4833C190.533 38.43 190.533 38.3766 190.541 38.3232C190.541 38.2788 190.55 38.2343 190.55 38.1898C190.568 37.8785 190.586 37.5673 190.604 37.2471C190.622 37.0514 190.631 36.8469 190.639 36.6423C190.657 36.251 190.675 35.8597 190.693 35.4594C191.379 36.0642 192.046 36.6868 192.714 37.3182C193.044 37.6384 193.373 37.9586 193.694 38.2788C193.917 38.51 194.148 38.7412 194.38 38.9725C194.558 39.1503 194.727 39.3282 194.896 39.5061C195.484 40.1287 196.063 40.7601 196.633 41.4005C196.917 41.7206 197.194 42.0497 197.47 42.3699C197.755 42.6989 198.031 43.028 198.298 43.3571C198.609 43.7395 198.912 44.1219 199.215 44.5044C199.366 44.7 199.518 44.8868 199.66 45.0825C199.803 45.2781 199.945 45.4738 200.097 45.6606C200.239 45.8651 200.39 46.0519 200.533 46.2475C200.64 46.3987 200.738 46.541 200.845 46.6833C200.88 46.7367 200.925 46.7901 200.96 46.8434C201.032 46.9501 201.103 47.048 201.174 47.1458C201.245 47.2436 201.317 47.3415 201.379 47.4393V47.4482C201.521 47.6439 201.655 47.8395 201.789 48.0441C201.869 48.1508 201.931 48.2575 202.002 48.3643C202.136 48.5599 202.278 48.7645 202.403 48.969C202.465 49.0669 202.537 49.1558 202.599 49.2536C202.786 49.5471 202.973 49.8317 203.151 50.1252C203.302 50.3565 203.445 50.5877 203.587 50.8278C203.605 50.8456 203.614 50.8634 203.632 50.8812C203.676 50.9523 203.721 51.0324 203.765 51.1035C203.855 51.2547 203.935 51.4059 204.024 51.5482C204.068 51.6105 204.104 51.6727 204.14 51.735C204.211 51.8417 204.264 51.9395 204.327 52.0463C204.505 52.3575 204.692 52.6777 204.87 52.989C205.119 53.4426 205.368 53.8873 205.609 54.3497C205.823 54.7411 206.036 55.1502 206.241 55.5504C206.464 55.9862 206.677 56.422 206.882 56.8578C207.096 57.2936 207.301 57.7294 207.506 58.1741C207.702 58.6098 207.897 59.0545 208.093 59.4992C208.111 59.5348 208.12 59.5615 208.138 59.597C208.316 60.0151 208.485 60.4331 208.654 60.8422C208.654 60.8689 208.672 60.8955 208.69 60.9222C208.788 61.1712 208.886 61.4203 208.984 61.6693C209.011 61.7315 209.028 61.7938 209.055 61.8561C209.1 61.9628 209.144 62.0784 209.189 62.194C209.269 62.4164 209.358 62.6476 209.438 62.8699C209.563 63.2079 209.687 63.5548 209.812 63.8927C209.928 64.2396 210.044 64.5775 210.159 64.9244L210.266 65.2446C210.302 65.3513 210.337 65.4669 210.373 65.5736C210.382 65.5914 210.391 65.6092 210.391 65.627C210.453 65.8227 210.516 66.0272 210.578 66.2229C210.711 66.6587 210.845 67.0945 210.97 67.5303C211.228 68.4018 211.459 69.2823 211.673 70.1628C211.753 70.4652 211.825 70.7676 211.896 71.07C211.931 71.2123 211.958 71.3457 211.994 71.488C212.012 71.568 212.029 71.6481 212.047 71.7281C212.127 72.0927 212.207 72.4574 212.279 72.822C212.368 73.2667 212.457 73.7203 212.537 74.165C212.617 74.6097 212.697 75.0633 212.768 75.5079C212.822 75.8192 212.866 76.1305 212.92 76.4418C212.938 76.5485 212.947 76.6641 212.964 76.7709C212.964 76.7975 212.964 76.8331 212.982 76.8598C212.982 76.922 213 76.9754 213 77.0377L213.018 77.1533V77.1889C213.036 77.2422 213.036 77.2956 213.045 77.3489C213.062 77.4468 213.071 77.5535 213.089 77.6602C213.089 77.7581 213.116 77.8559 213.125 77.9626C213.125 78.0071 213.143 78.0516 213.143 78.0871C213.143 78.1049 213.151 78.1227 213.151 78.1405C213.16 78.1938 213.16 78.2561 213.169 78.3184C213.223 78.7097 213.267 79.101 213.303 79.4923C213.303 79.519 213.312 79.5457 213.312 79.5813C213.356 79.9815 213.392 80.3817 213.419 80.7819C213.427 80.8442 213.427 80.9153 213.436 80.9776C213.445 81.0754 213.454 81.1732 213.463 81.2711C213.463 81.3422 213.463 81.4045 213.481 81.4756C213.481 81.6535 213.508 81.8403 213.517 82.0182C213.517 82.0626 213.517 82.116 213.517 82.1693C213.517 82.2138 213.525 82.2672 213.525 82.3117C213.525 82.365 213.525 82.4184 213.525 82.4628C213.534 82.7208 213.552 82.9698 213.561 83.2188C213.561 83.4589 213.588 83.6902 213.588 83.9214V83.9481C213.606 84.3127 213.614 84.6685 213.632 85.0242C213.632 85.3889 213.632 85.7535 213.632 86.1093V87.0431C213.632 87.2477 213.632 87.4433 213.632 87.6479V87.6835C213.632 87.6835 213.632 87.7457 213.632 87.7724V87.7902C213.623 88.1104 213.623 88.4394 213.614 88.7596C213.597 89.0709 213.579 89.3822 213.561 89.6934C213.561 89.8002 213.561 89.9158 213.561 90.0225C213.552 90.1292 213.543 90.236 213.543 90.3427C213.517 90.7874 213.49 91.2143 213.454 91.6412C213.419 92.077 213.383 92.5039 213.338 92.9397C213.321 93.2154 213.285 93.4911 213.258 93.7668C213.258 93.8557 213.24 93.9358 213.232 94.0158C213.205 94.2204 213.187 94.416 213.16 94.6206C213.16 94.7184 213.134 94.8251 213.125 94.923C213.125 94.9408 213.125 94.9496 213.125 94.9674C213.089 95.2698 213.045 95.5811 213.009 95.8835C212.964 96.1948 212.92 96.4972 212.866 96.7995C212.858 96.8796 212.84 96.9685 212.831 97.0486C212.804 97.2087 212.777 97.3599 212.751 97.5199C212.715 97.7601 212.679 97.9913 212.635 98.2137C212.599 98.4538 212.555 98.685 212.51 98.9252C212.466 99.1564 212.421 99.3965 212.377 99.6278C212.377 99.6455 212.377 99.6722 212.377 99.69C212.368 99.7523 212.35 99.8145 212.341 99.8768C212.305 100.028 212.279 100.179 212.243 100.33C212.199 100.57 212.145 100.802 212.092 101.033C212.074 101.131 212.047 101.229 212.029 101.318C211.994 101.46 211.967 101.602 211.931 101.736L211.771 102.429C211.727 102.616 211.682 102.794 211.638 102.972C211.593 103.159 211.549 103.345 211.495 103.532C211.451 103.728 211.397 103.915 211.344 104.101C211.246 104.475 211.148 104.839 211.041 105.213C211.005 105.346 210.961 105.489 210.925 105.622C210.907 105.667 210.898 105.72 210.881 105.764C210.774 106.129 210.658 106.494 210.542 106.858C210.507 106.965 210.471 107.081 210.435 107.196C210.409 107.267 210.391 107.33 210.364 107.401C210.337 107.49 210.311 107.579 210.284 107.659C210.15 108.068 210.008 108.477 209.874 108.886C209.732 109.295 209.58 109.695 209.438 110.105V110.113C209.393 110.229 209.349 110.336 209.313 110.451C209.269 110.567 209.224 110.674 209.18 110.789C208.939 109.722 208.672 108.655 208.378 107.597C208.28 107.214 208.182 106.832 208.076 106.44C208.049 106.325 208.022 106.218 207.986 106.102C207.915 105.836 207.835 105.56 207.755 105.293C207.755 105.266 207.755 105.249 207.737 105.222C207.523 104.484 207.31 103.746 207.087 103.007C207.069 102.936 207.043 102.856 207.016 102.785C206.989 102.669 206.954 102.563 206.918 102.456C206.802 102.091 206.686 101.727 206.571 101.362C206.553 101.309 206.535 101.264 206.517 101.211C206.437 100.953 206.348 100.704 206.259 100.455C206.072 99.8946 205.885 99.3343 205.689 98.7828C205.68 98.7562 205.671 98.7384 205.662 98.7117C205.662 98.7117 205.662 98.7058 205.662 98.6939C205.529 98.3115 205.395 97.9379 205.262 97.5644C205.119 97.1909 204.985 96.8173 204.843 96.4438C204.611 95.839 204.38 95.2343 204.148 94.6384C203.908 94.0425 203.668 93.4377 203.418 92.8507C203.213 92.3705 203.009 91.8813 202.795 91.401C202.626 91.0275 202.465 90.654 202.296 90.2804C202.252 90.1737 202.198 90.067 202.154 89.9603C201.931 89.4889 201.708 89.0086 201.486 88.5373C201.263 88.057 201.032 87.5856 200.8 87.1143C200.488 86.4828 200.168 85.8602 199.847 85.2377C199.42 84.4106 198.975 83.5835 198.529 82.7652C198.075 81.947 197.612 81.1288 197.14 80.3194C196.668 79.5101 196.178 78.7097 195.689 77.9092C195.19 77.1177 194.682 76.3262 194.166 75.5346C193.908 75.1433 193.649 74.752 193.382 74.3606C193.124 73.9782 192.857 73.5869 192.581 73.2045C192.046 72.4307 191.494 71.657 190.933 70.901C190.639 70.5008 190.346 70.1005 190.043 69.7092C189.776 69.3535 189.5 68.9977 189.224 68.642C189.037 68.4018 188.85 68.1528 188.654 67.9127C188.422 67.6103 188.191 67.3168 187.95 67.0322C187.79 66.8277 187.621 66.6231 187.451 66.4185C187.362 66.6587 187.282 66.8988 187.193 67.1389C186.463 69.1667 185.644 71.2389 184.664 73.4891C184.468 73.9337 184.272 74.3695 184.068 74.8142C184.379 75.2322 184.682 75.6236 184.967 76.0327C185.27 76.4418 185.564 76.842 185.84 77.26C186.053 77.5713 186.267 77.8737 186.49 78.1938C186.552 78.2917 186.623 78.3984 186.694 78.4962C187.238 79.2789 187.763 80.0615 188.271 80.862C188.573 81.3422 188.885 81.8314 189.188 82.3205C189.384 82.6318 189.571 82.9431 189.749 83.2544C190.07 83.7613 190.372 84.2861 190.666 84.8019C190.666 84.8108 190.684 84.8286 190.693 84.8464C190.746 84.9442 190.8 85.0331 190.853 85.131C191.183 85.6824 191.494 86.2516 191.806 86.8208C191.913 87.0164 192.029 87.2299 192.135 87.4344V87.4433C192.367 87.8791 192.599 88.3149 192.83 88.7507C193.053 89.1865 193.275 89.6312 193.498 90.0759C193.721 90.5206 193.943 90.9653 194.157 91.4188C194.371 91.8635 194.584 92.3171 194.789 92.7618C194.834 92.8507 194.878 92.9486 194.914 93.0375C194.958 93.1353 195.003 93.2243 195.047 93.3132C195.056 93.3399 195.074 93.3666 195.083 93.3932C195.092 93.411 195.092 93.4199 195.101 93.4377C195.11 93.4644 195.119 93.4822 195.136 93.5089C195.181 93.6156 195.226 93.7312 195.279 93.829C195.332 93.9536 195.386 94.0692 195.439 94.1937C195.626 94.6206 195.813 95.0564 196 95.4833C196.169 95.8657 196.339 96.257 196.49 96.6484C196.552 96.7818 196.606 96.9063 196.65 97.0397C196.82 97.4399 196.98 97.8401 197.131 98.2403C197.496 99.1653 197.844 100.099 198.173 101.033C198.387 101.62 198.583 102.207 198.788 102.794C198.814 102.883 198.85 102.972 198.877 103.07C198.975 103.354 199.064 103.639 199.153 103.923C199.224 104.137 199.295 104.359 199.366 104.573C199.411 104.733 199.464 104.893 199.518 105.053C199.536 105.124 199.562 105.204 199.58 105.284C199.731 105.764 199.874 106.236 200.008 106.716C200.15 107.196 200.284 107.677 200.417 108.157C200.604 108.824 200.773 109.491 200.943 110.158C201.014 110.46 201.094 110.763 201.165 111.074C201.334 111.768 201.495 112.47 201.646 113.173C201.7 113.386 201.744 113.609 201.789 113.831C201.789 113.831 201.806 113.92 201.815 113.956C201.815 113.956 201.815 113.973 201.824 113.982C201.887 114.311 201.949 114.64 202.02 114.978C202.065 115.183 202.1 115.379 202.145 115.583C202.163 115.663 202.172 115.752 202.189 115.832C202.216 115.966 202.243 116.108 202.269 116.241C202.269 116.259 202.269 116.277 202.269 116.295C202.296 116.428 202.314 116.561 202.341 116.695C202.341 116.739 202.358 116.784 202.367 116.828C202.465 117.353 202.554 117.887 202.643 118.42C202.643 118.447 202.652 118.474 202.661 118.5C202.697 118.758 202.741 119.025 202.786 119.283C202.83 119.568 202.866 119.861 202.911 120.146C202.911 120.146 202.914 120.152 202.92 120.163L203.08 121.311C203.142 121.746 203.187 122.182 203.249 122.618C203.204 122.716 203.151 122.787 203.098 122.867C202.982 123.054 202.866 123.241 202.741 123.427V123.436C202.741 123.445 202.732 123.445 202.724 123.454C202.688 123.516 202.652 123.57 202.608 123.632C202.572 123.694 202.528 123.756 202.492 123.819C202.456 123.872 202.421 123.925 202.385 123.97C202.376 123.988 202.367 124.005 202.35 124.023C202.314 124.086 202.269 124.148 202.225 124.21C202.127 124.37 202.02 124.53 201.904 124.681V124.699H201.895V124.717C201.762 124.913 201.628 125.117 201.486 125.313C201.459 125.357 201.423 125.402 201.397 125.446C201.397 125.455 201.379 125.464 201.37 125.473C201.263 125.624 201.156 125.775 201.049 125.935C200.96 126.051 200.871 126.176 200.782 126.3C200.738 126.371 200.684 126.433 200.631 126.505C200.622 126.514 200.613 126.531 200.595 126.549C199.972 126.531 199.34 126.505 198.716 126.469C198.271 126.442 197.835 126.416 197.389 126.389H197.372C197.229 126.38 197.087 126.371 196.944 126.353C196.837 126.353 196.731 126.345 196.624 126.336C196.178 126.309 195.742 126.264 195.297 126.229C195.252 126.229 195.217 126.229 195.172 126.22C194.567 126.167 193.961 126.113 193.355 126.051C193.275 126.042 193.204 126.033 193.124 126.024C193.079 126.024 193.044 126.024 192.999 126.007C192.581 125.962 192.162 125.909 191.744 125.855C191.672 125.855 191.601 125.838 191.53 125.829C191.174 125.793 190.809 125.749 190.452 125.686C190.381 125.678 190.319 125.669 190.248 125.66C189.82 125.606 189.393 125.544 188.965 125.473C187.968 125.322 186.979 125.153 185.991 124.966C185.546 124.886 185.092 124.797 184.646 124.708C184.112 124.601 183.587 124.495 183.07 124.379C182.554 124.263 182.037 124.148 181.53 124.023C180.497 123.783 179.464 123.525 178.44 123.241C177.923 123.107 177.415 122.956 176.899 122.805C176.391 122.663 175.884 122.511 175.376 122.351C174.869 122.191 174.361 122.031 173.853 121.871C172.963 121.577 172.081 121.275 171.2 120.955L170.692 120.768C170.612 120.741 170.532 120.715 170.452 120.679C170.3 120.626 170.158 120.564 170.006 120.51C169.588 120.368 169.178 120.208 168.769 120.039C168.706 120.012 168.635 119.986 168.573 119.959C168.03 119.745 167.486 119.532 166.943 119.301C166.614 119.167 166.284 119.025 165.955 118.883C165.741 118.794 165.527 118.696 165.313 118.607C165.1 118.509 164.877 118.411 164.663 118.322C163.381 117.744 162.108 117.14 160.843 116.508C160.478 116.321 160.104 116.135 159.739 115.948C158.011 115.049 156.319 114.107 154.645 113.102C154.298 112.897 153.951 112.684 153.603 112.47C153.149 112.195 152.695 111.901 152.241 111.617C151.119 110.896 150.006 110.149 148.91 109.384C148.545 109.135 148.198 108.886 147.833 108.628C147.548 108.415 147.263 108.21 146.996 108.015C146.506 107.65 146.016 107.285 145.535 106.912C144.805 106.351 144.084 105.782 143.38 105.204C142.962 104.866 142.552 104.528 142.143 104.19C142.089 104.146 142.027 104.092 141.973 104.048C141.733 103.843 141.501 103.639 141.27 103.443C141.172 103.354 141.074 103.274 140.976 103.185C140.905 103.123 140.833 103.061 140.753 102.99C140.451 102.723 140.139 102.456 139.836 102.18C139.471 101.86 139.106 101.531 138.759 101.202C138.696 101.149 138.634 101.086 138.572 101.033C138.5 100.962 138.429 100.9 138.358 100.837C138.171 100.659 137.984 100.482 137.806 100.313C137.699 100.206 137.601 100.117 137.503 100.019C137.432 99.9568 137.36 99.8857 137.298 99.8234C137.013 99.5477 136.728 99.272 136.452 98.9963C135.722 98.2759 135.001 97.5466 134.297 96.8084C134.297 96.7907 134.27 96.7818 134.253 96.764C133.914 96.3993 133.576 96.0347 133.237 95.67C133.042 95.4566 132.846 95.2431 132.641 95.0208C132.498 94.8607 132.347 94.6917 132.204 94.5316C131.955 94.2559 131.715 93.9802 131.465 93.6956C131.243 93.4288 131.02 93.1709 130.789 92.9041C130.771 92.8774 130.744 92.8596 130.726 92.8329C130.7 92.8063 130.673 92.7707 130.655 92.744C130.165 92.1659 129.684 91.5878 129.212 91.0097C128.571 90.2093 127.948 89.4089 127.333 88.5995C127.022 88.1904 126.719 87.7724 126.416 87.3633C126.113 86.9453 125.811 86.5362 125.517 86.1182C125.223 85.7002 124.929 85.2733 124.644 84.8553C124.359 84.4284 124.074 84.0015 123.789 83.5746C123.549 83.2188 123.317 82.8542 123.086 82.4895C122.89 82.1871 122.703 81.8848 122.516 81.5824C122.311 81.2533 122.106 80.9331 121.91 80.604C121.616 80.1238 121.331 79.6435 121.055 79.1633C120.904 78.9053 120.753 78.6474 120.61 78.3806C120.325 77.8826 120.031 77.3756 119.755 76.8687C119.559 76.5218 119.372 76.1661 119.185 75.8103C118.998 75.4457 118.811 75.0899 118.624 74.7253C118.384 74.2628 118.152 73.8003 117.921 73.3379C117.858 73.2045 117.787 73.0711 117.725 72.9377C117.52 72.5285 117.324 72.1105 117.128 71.6925L116.968 71.3457C116.932 71.2656 116.897 71.1767 116.861 71.0966C116.799 70.9721 116.745 70.8565 116.692 70.732C116.407 70.1005 116.122 69.4691 115.846 68.8287C115.632 68.3307 115.418 67.8237 115.214 67.3257C115.009 66.8188 114.804 66.3118 114.608 65.8049C114.51 65.5558 114.421 65.3157 114.332 65.0667C114.145 64.5775 113.958 64.0795 113.78 63.5814C113.05 61.5715 112.391 59.5348 111.803 57.4714C111.634 56.8756 111.473 56.2886 111.313 55.7016C111.002 54.5276 110.717 53.3447 110.449 52.153C110.316 51.5571 110.182 50.9612 110.066 50.3653C109.764 48.8534 109.488 47.2792 109.238 45.6339C109.007 44.1042 108.811 42.61 108.659 41.1781C108.659 41.1781 108.659 41.1692 108.659 41.1425V41.1248C108.659 41.1248 108.651 41.0625 108.651 41.0358C108.633 40.9469 108.624 40.8579 108.624 40.769C108.615 40.7067 108.606 40.6356 108.606 40.5733C108.526 39.7996 108.455 39.0258 108.401 38.2521C108.348 37.5406 108.303 36.8291 108.268 36.1087C108.188 34.4722 108.143 32.8358 108.143 31.1993V30.4967C108.143 30.0254 108.143 29.5451 108.161 29.056C108.179 28.5668 108.196 28.0687 108.214 27.5529L108.526 19.6553L102.034 24.1822C101.66 24.4401 101.295 24.7069 100.93 24.9737C100.191 25.5074 99.4517 26.0588 98.7304 26.628C98.3652 26.9126 98.009 27.1972 97.6528 27.4907C96.6466 28.3 95.667 29.1449 94.7053 30.0076C93.7435 30.8703 92.7996 31.7597 91.8913 32.6757C91.6686 32.8892 91.446 33.1115 91.2323 33.3338C91.0008 33.5651 90.7692 33.8052 90.5466 34.0453C90.1014 34.5078 89.6561 34.9792 89.2198 35.4594C89.2198 35.4594 89.2168 35.4624 89.2108 35.4683C88.3471 36.4289 87.5011 37.3983 86.6907 38.3944C86.5215 38.6078 86.3434 38.8213 86.1742 39.0258C86.0674 39.1681 85.9516 39.3104 85.8358 39.4527C85.7824 39.5239 85.729 39.6039 85.6666 39.6751C85.5954 39.764 85.5242 39.8618 85.4529 39.9508C85.4084 40.013 85.355 40.0753 85.3104 40.1375L85.168 40.3154C84.9899 40.5556 84.8028 40.7957 84.6247 41.0358C84.5179 41.1781 84.411 41.3204 84.3131 41.4627C84.2596 41.5339 84.2062 41.605 84.1528 41.6762C84.0014 41.8807 83.85 42.0942 83.7075 42.2987C83.6274 42.4055 83.5472 42.5122 83.476 42.6189C83.4047 42.7256 83.3246 42.8323 83.2534 42.9391C83.2534 42.9391 83.2534 42.948 83.2534 42.9569C83.2534 42.9569 83.2445 42.9569 83.2356 42.9658C83.102 43.1703 82.9595 43.3749 82.817 43.5705C82.817 43.5883 82.7992 43.6061 82.7903 43.615C82.7369 43.695 82.6834 43.7751 82.63 43.8551C82.5766 43.9263 82.5321 43.9974 82.4786 44.0775C82.2827 44.371 82.0779 44.6734 81.882 44.9668C81.7395 45.1981 81.5881 45.4204 81.4456 45.6517C81.321 45.8562 81.1963 46.0519 81.0716 46.2564C80.9915 46.381 80.9113 46.5055 80.8312 46.63C80.751 46.7634 80.662 46.9057 80.5818 47.048C80.5106 47.1547 80.4483 47.2703 80.377 47.3859C80.3503 47.4393 80.3147 47.4927 80.288 47.5371C80.2613 47.5816 80.2435 47.6172 80.2167 47.6616C80.1811 47.715 80.1455 47.7773 80.1188 47.8306C80.0832 47.8751 80.0565 47.9285 80.0297 47.9818C80.003 48.0263 79.9763 48.0708 79.9496 48.1152C79.9051 48.1864 79.8605 48.2486 79.8249 48.3198C79.7982 48.3554 79.7804 48.3998 79.7626 48.4354C79.727 48.4977 79.6913 48.5599 79.6468 48.6222C79.442 48.9868 79.2283 49.3604 79.0235 49.725C78.8186 50.0985 78.6227 50.4721 78.4179 50.8456C78.3467 50.9879 78.2665 51.1302 78.1953 51.2725C78.1953 51.2725 78.1597 51.3259 78.1508 51.3526C78.0706 51.5126 77.9905 51.6638 77.9103 51.815C77.8836 51.8773 77.8569 51.9395 77.8213 51.9929C77.6966 52.2419 77.5808 52.4821 77.4562 52.7222C77.4027 52.8289 77.3582 52.9267 77.3048 53.0335C77.1623 53.3181 77.0287 53.6027 76.8952 53.8873C76.8595 53.9584 76.8239 54.0207 76.7972 54.0918C76.7705 54.1363 76.7438 54.1897 76.726 54.2341C76.7082 54.2608 76.6992 54.2964 76.6903 54.3231C76.6458 54.4298 76.5924 54.5276 76.5479 54.6343C76.53 54.6699 76.5122 54.7055 76.5033 54.7411H76.4944C76.3698 55.0079 76.254 55.2569 76.1382 55.5148C76.1204 55.5682 76.1026 55.6127 76.0759 55.6571C75.9512 55.9417 75.8355 56.2174 75.7197 56.4931C75.6752 56.5821 75.6306 56.6799 75.595 56.7688C75.4436 57.1424 75.2833 57.5248 75.132 57.8983C75.132 57.8983 75.132 57.9072 75.132 57.9161C74.9895 58.263 74.8559 58.6009 74.7223 58.9478C74.6956 59.0012 74.6778 59.0545 74.66 59.1079C74.5264 59.437 74.4106 59.7482 74.2949 60.0684C74.286 60.0951 74.2682 60.1307 74.2593 60.1574C74.1702 60.4153 74.0723 60.6643 73.9832 60.9222C73.9031 61.1534 73.8229 61.3847 73.7428 61.6159C73.716 61.7049 73.6804 61.7938 73.6537 61.8827C73.5558 62.1495 73.4667 62.4164 73.3777 62.6921C73.3331 62.8255 73.2886 62.9678 73.2441 63.1101L73.1907 63.2702C73.1639 63.3502 73.1372 63.4391 73.1105 63.5281C73.0927 63.5814 73.066 63.6437 73.0482 63.7059C73.0482 63.7237 73.0482 63.7415 73.0304 63.7593C73.0126 63.8394 72.9858 63.9194 72.9591 63.9905C72.9146 64.1417 72.8701 64.284 72.8255 64.4352C72.7899 64.5331 72.7632 64.6309 72.7365 64.7287C72.7365 64.7465 72.7276 64.7554 72.7276 64.7732C72.6474 65.0311 72.5762 65.289 72.4961 65.547C72.4248 65.8049 72.3447 66.0717 72.2734 66.3296C72.2022 66.5875 72.1309 66.8454 72.0686 67.1123C71.9974 67.3702 71.935 67.6281 71.8638 67.8949C71.7926 68.1706 71.7302 68.4463 71.659 68.7131C71.6412 68.8199 71.6145 68.9266 71.5877 69.0244C71.5877 69.0422 71.5788 69.06 71.5699 69.0778C71.561 69.1311 71.5521 69.1845 71.5432 69.229C71.5254 69.2823 71.5165 69.3446 71.4987 69.3979C71.4364 69.6825 71.374 69.976 71.3028 70.2695C71.285 70.3496 71.2672 70.4296 71.2583 70.5097C71.1959 70.7587 71.1425 71.0077 71.098 71.2567C71.098 71.3101 71.0802 71.3546 71.0712 71.4079C71.0623 71.4613 71.0534 71.5058 71.0445 71.5591C71.0178 71.6747 70.9911 71.7904 70.9733 71.906C70.9466 72.0216 70.9199 72.1372 70.9021 72.2528C70.8931 72.3062 70.8842 72.3596 70.8753 72.404C70.8753 72.4574 70.8486 72.5019 70.8486 72.5552C70.7952 72.8042 70.7507 73.0533 70.7061 73.3023C70.626 73.7737 70.5458 74.2361 70.4746 74.7075C70.4568 74.8053 70.439 74.9121 70.4212 75.0099V75.0544C70.3767 75.3212 70.341 75.5791 70.3054 75.837C70.3054 75.8548 70.3054 75.8637 70.3054 75.8815C70.2787 76.0771 70.252 76.2817 70.2253 76.4774C70.2075 76.593 70.1985 76.7086 70.1807 76.8242C70.1362 77.18 70.0917 77.5268 70.0561 77.8826C70.0294 78.016 70.0205 78.1494 70.0026 78.2828C69.967 78.6207 69.9314 78.9587 69.9047 79.2967C69.9047 79.3411 69.9047 79.3945 69.9047 79.439C69.8691 79.7325 69.8513 80.0171 69.8245 80.3106C69.7978 80.6307 69.7711 80.9598 69.7533 81.28C69.7533 81.3333 69.7444 81.3956 69.7444 81.449C69.7177 81.7513 69.6999 82.0448 69.6821 82.3472C69.6732 82.5518 69.6642 82.7652 69.6553 82.9787C69.6553 83.1121 69.6375 83.2366 69.6375 83.37C69.6197 83.708 69.6108 84.0459 69.6019 84.3928C69.6019 84.544 69.593 84.6952 69.593 84.8553C69.593 85.042 69.593 85.2288 69.5752 85.4156V86.4383C69.5752 86.7052 69.5752 86.9631 69.5841 87.2299V87.5767C69.5841 87.6568 69.5841 87.7457 69.5841 87.8258C69.5841 88.1726 69.5841 88.5106 69.6019 88.8574C69.6019 88.9197 69.6019 88.982 69.6019 89.0442C69.6019 89.1154 69.6019 89.1954 69.6108 89.2666C69.6108 89.3199 69.6108 89.3644 69.6197 89.4177C69.6197 89.4622 69.6197 89.5156 69.6197 89.56C69.6197 89.8091 69.6197 90.0581 69.6464 90.3071L69.6732 90.7963C69.6732 90.8941 69.6732 90.983 69.691 91.0809C69.691 91.2143 69.691 91.3388 69.7088 91.4722C69.7088 91.5789 69.7266 91.6768 69.7355 91.7835C69.7622 92.1481 69.7889 92.5217 69.8156 92.8863C69.8334 93.0553 69.8513 93.2243 69.8691 93.4021C69.878 93.5622 69.8958 93.7312 69.9136 93.8913C69.9136 93.9358 69.9136 93.9891 69.9314 94.0336C69.9314 94.0781 69.9314 94.1225 69.9314 94.167C69.9403 94.2648 69.9492 94.3716 69.967 94.4694C69.9759 94.5228 69.9759 94.5761 69.9848 94.6295C69.9848 94.6562 69.9937 94.6828 69.9937 94.7095C69.9937 94.7807 70.0115 94.8518 70.0204 94.923C70.0472 95.1987 70.0828 95.4744 70.1095 95.7412C70.1273 95.9369 70.154 96.1236 70.1807 96.3193C70.2075 96.4972 70.2342 96.6928 70.2609 96.8796C70.2876 97.1197 70.3232 97.3687 70.3677 97.6089C70.3677 97.6356 70.3677 97.6622 70.3677 97.6889C70.3945 97.8668 70.4123 98.0358 70.4479 98.2048V98.2225C70.4924 98.516 70.5369 98.8095 70.5904 99.103C70.5993 99.1475 70.6082 99.192 70.6171 99.2364C70.6171 99.2898 70.6349 99.3343 70.6438 99.3876C70.6527 99.4588 70.6705 99.5388 70.6794 99.61C70.6794 99.6722 70.7061 99.7345 70.715 99.7967C70.715 99.8323 70.715 99.859 70.7329 99.8946C70.7685 100.099 70.8041 100.313 70.8397 100.517C70.8397 100.544 70.8397 100.579 70.8575 100.606C70.8575 100.633 70.8575 100.659 70.8753 100.686C70.8753 100.713 70.8753 100.739 70.8753 100.757C70.902 100.891 70.9288 101.015 70.9555 101.149C70.9644 101.184 70.9733 101.22 70.9822 101.255C71.0267 101.487 71.0623 101.7 71.1158 101.931C71.1158 101.94 71.1158 101.958 71.1158 101.967C71.1425 102.109 71.1781 102.26 71.2048 102.403C71.2048 102.403 71.2078 102.409 71.2137 102.42C71.2137 102.42 71.2315 102.492 71.2404 102.527C71.2404 102.536 71.2404 102.536 71.2404 102.545C71.2672 102.687 71.3028 102.847 71.3384 102.998C71.3473 103.034 71.3562 103.061 71.3651 103.096C71.3651 103.141 71.3829 103.194 71.3918 103.239C71.4274 103.408 71.4631 103.577 71.5076 103.746C71.5343 103.879 71.561 104.012 71.5966 104.155C71.6679 104.457 71.748 104.759 71.8282 105.053C71.9172 105.426 72.0241 105.8 72.122 106.174C72.122 106.227 72.1488 106.289 72.1666 106.343C72.2289 106.583 72.2912 106.823 72.3625 107.063C72.4248 107.312 72.505 107.57 72.5851 107.828C72.6029 107.899 72.6207 107.97 72.6474 108.041C72.6474 108.041 72.6504 108.047 72.6563 108.059C72.6742 108.121 72.6831 108.175 72.7098 108.237C72.7365 108.353 72.7721 108.477 72.8077 108.593C72.8701 108.806 72.9413 109.011 73.0036 109.215C73.0215 109.26 73.0304 109.313 73.0482 109.358C73.1639 109.713 73.2797 110.069 73.3955 110.425C73.529 110.834 73.6715 111.225 73.8051 111.634C73.9298 112.008 74.0633 112.372 74.1969 112.737C74.2504 112.879 74.3038 113.031 74.3572 113.173C74.3839 113.253 74.4106 113.324 74.4463 113.395C74.5175 113.609 74.5977 113.822 74.6867 114.036C74.8203 114.382 74.9628 114.729 75.1052 115.076C75.1676 115.245 75.2388 115.414 75.3101 115.583C75.4258 115.859 75.5416 116.135 75.6574 116.401C75.9957 117.184 76.343 117.967 76.7081 118.74C77.0733 119.505 77.4473 120.279 77.8391 121.035C78.2309 121.791 78.6316 122.547 79.0413 123.285C79.0413 123.285 79.0442 123.291 79.0502 123.303C79.255 123.668 79.4598 124.023 79.6646 124.379C79.6646 124.397 79.6824 124.406 79.6824 124.423C79.8071 124.619 79.9229 124.824 80.0475 125.028C80.1455 125.197 80.2435 125.357 80.3414 125.526C80.3503 125.526 80.3503 125.535 80.3503 125.535C81.8642 128.061 83.5739 130.542 85.4173 132.917C85.4351 132.935 85.4529 132.961 85.4707 132.979C85.4974 133.024 85.5331 133.068 85.5687 133.122C85.7646 133.362 85.9516 133.611 86.1475 133.842C86.3167 134.055 86.477 134.251 86.6462 134.456C86.7263 134.562 86.8065 134.66 86.8955 134.767C86.9846 134.865 87.0647 134.963 87.1449 135.06C87.2428 135.185 87.3408 135.292 87.4387 135.416C87.599 135.603 87.7593 135.799 87.9285 135.985C87.9641 136.03 88.0087 136.074 88.0443 136.119C88.169 136.27 88.3025 136.421 88.4361 136.572C88.4806 136.626 88.5341 136.67 88.5786 136.724C88.6409 136.795 88.6944 136.866 88.7656 136.937C88.917 137.106 89.0684 137.284 89.2287 137.453C89.2465 137.479 89.2732 137.506 89.3088 137.533C89.3088 137.551 89.3355 137.56 89.3444 137.568C89.3444 137.568 89.3444 137.574 89.3444 137.586C89.3444 137.586 89.3979 137.657 89.4335 137.684C89.5136 137.773 89.5938 137.862 89.6739 137.951C89.7719 138.058 89.8698 138.155 89.9767 138.262C89.9856 138.28 90.0034 138.298 90.0212 138.316C90.039 138.342 90.0568 138.36 90.0835 138.378C90.1548 138.458 90.226 138.538 90.3062 138.618C90.4219 138.742 90.5466 138.858 90.6535 138.983C90.6713 139 90.6891 139.018 90.7069 139.036C90.7514 139.08 90.7959 139.134 90.8405 139.178C91.0186 139.365 91.1967 139.543 91.3748 139.721C91.7488 140.103 92.1317 140.486 92.5146 140.85L92.764 141.099C92.853 141.179 92.9332 141.259 93.0222 141.33C93.0578 141.375 93.0935 141.402 93.1291 141.437C93.2181 141.535 93.3072 141.615 93.3962 141.695C93.4853 141.784 93.5832 141.873 93.6812 141.962C93.7079 141.998 93.7435 142.024 93.7791 142.06C94.0018 142.264 94.2333 142.478 94.4648 142.682C94.4648 142.691 94.4915 142.7 94.5005 142.709C94.5272 142.736 94.5539 142.762 94.5806 142.789C94.5984 142.807 94.6162 142.825 94.634 142.842L94.821 143.002C95.0169 143.18 95.2129 143.349 95.4088 143.518C95.4533 143.563 95.4978 143.607 95.5423 143.643C95.5602 143.652 95.5691 143.661 95.5869 143.67C95.6492 143.732 95.7204 143.794 95.7828 143.847C95.9698 144.007 96.1479 144.168 96.3438 144.328C96.5308 144.488 96.7178 144.648 96.9048 144.799C97.2076 145.048 97.5104 145.297 97.8131 145.537C97.8131 145.546 97.822 145.546 97.822 145.555C97.9734 145.68 98.1248 145.804 98.2851 145.92C98.3742 145.982 98.4543 146.053 98.5344 146.115C98.6057 146.178 98.6769 146.231 98.7482 146.284C98.8105 146.329 98.8728 146.382 98.9352 146.427C99.1845 146.622 99.4339 146.809 99.6832 147.005H99.6921C99.9414 147.2 100.191 147.387 100.449 147.574C100.494 147.601 100.538 147.636 100.574 147.672C100.592 147.681 100.618 147.698 100.636 147.707C101.126 148.072 101.624 148.419 102.123 148.775C102.399 148.961 102.684 149.157 102.969 149.353C103.121 149.459 103.281 149.557 103.432 149.664C103.468 149.691 103.503 149.717 103.539 149.735C103.682 149.824 103.824 149.922 103.967 150.011C104.109 150.109 104.251 150.198 104.394 150.286C104.403 150.295 104.421 150.304 104.43 150.313C104.456 150.34 104.492 150.358 104.528 150.384H104.536C104.902 150.616 105.258 150.847 105.623 151.069C105.676 151.096 105.73 151.131 105.783 151.167C105.845 151.211 105.917 151.247 105.979 151.283C106.095 151.354 106.211 151.425 106.326 151.496C106.398 151.54 106.469 151.585 106.54 151.621C106.585 151.656 106.629 151.683 106.674 151.709C106.968 151.878 107.261 152.056 107.555 152.225C107.582 152.243 107.618 152.261 107.653 152.279C107.716 152.314 107.769 152.35 107.831 152.377C107.938 152.439 108.045 152.501 108.143 152.554C108.285 152.643 108.437 152.723 108.588 152.812C108.633 152.839 108.668 152.857 108.713 152.875C108.927 152.999 109.149 153.124 109.363 153.239C109.39 153.248 109.408 153.257 109.425 153.266C109.488 153.301 109.55 153.337 109.612 153.364C109.612 153.364 109.621 153.364 109.63 153.381C109.684 153.408 109.737 153.435 109.79 153.462C110.058 153.604 110.334 153.746 110.601 153.888C110.645 153.915 110.699 153.942 110.752 153.96C111.037 154.111 111.313 154.253 111.607 154.395C111.643 154.413 111.687 154.431 111.723 154.458C111.794 154.484 111.856 154.52 111.928 154.547C112.56 154.867 113.21 155.178 113.86 155.472C114.038 155.56 114.216 155.64 114.403 155.721C114.466 155.747 114.528 155.783 114.599 155.809C114.635 155.827 114.67 155.845 114.706 155.854C114.786 155.89 114.857 155.925 114.938 155.961C115.044 156.014 115.16 156.059 115.276 156.103C115.392 156.156 115.507 156.201 115.614 156.245C115.846 156.343 116.069 156.441 116.3 156.539C116.425 156.592 116.558 156.645 116.683 156.699C116.727 156.717 116.781 156.734 116.834 156.752C117.021 156.832 117.208 156.912 117.395 156.983C117.787 157.144 118.188 157.304 118.589 157.446C118.74 157.508 118.891 157.57 119.043 157.624C119.506 157.793 119.969 157.962 120.432 158.122C121.046 158.335 121.67 158.54 122.293 158.744C122.916 158.94 123.54 159.136 124.163 159.314C124.323 159.367 124.475 159.411 124.635 159.456L125.811 159.776C125.891 159.803 125.971 159.821 126.051 159.838C126.594 159.981 127.137 160.123 127.681 160.256C127.805 160.283 127.93 160.319 128.064 160.345C128.66 160.488 129.257 160.612 129.854 160.737C130.486 160.87 131.127 160.995 131.768 161.119C132.249 161.208 132.73 161.288 133.211 161.368C133.371 161.395 133.531 161.421 133.692 161.439C134.208 161.519 134.734 161.599 135.25 161.67C135.277 161.67 135.295 161.679 135.321 161.679C135.499 161.706 135.686 161.724 135.873 161.75C136.025 161.768 136.167 161.786 136.319 161.804C136.737 161.857 137.165 161.902 137.583 161.946C140.192 162.213 142.837 162.346 145.491 162.346C148.145 162.346 150.789 162.213 153.398 161.946C153.968 161.884 154.538 161.822 155.108 161.75C155.295 161.724 155.482 161.706 155.66 161.679C155.687 161.679 155.705 161.67 155.732 161.67C156.248 161.599 156.774 161.519 157.29 161.439C157.45 161.421 157.611 161.395 157.771 161.368C158.252 161.288 158.733 161.208 159.213 161.119C159.668 161.039 160.113 160.95 160.567 160.852C160.754 160.817 160.941 160.781 161.128 160.737C161.288 160.71 161.449 160.674 161.609 160.639C162.045 160.55 162.482 160.443 162.918 160.345C163.043 160.319 163.176 160.283 163.301 160.256C163.604 160.176 163.915 160.105 164.218 160.025C164.459 159.963 164.69 159.901 164.931 159.838C165.011 159.821 165.091 159.803 165.171 159.776C165.563 159.669 165.955 159.563 166.346 159.456C166.507 159.411 166.658 159.367 166.818 159.314C167.023 159.26 167.228 159.198 167.433 159.136C167.851 159.011 168.27 158.878 168.688 158.744C169.312 158.54 169.935 158.335 170.55 158.122C171.013 157.962 171.476 157.793 171.939 157.624C172.09 157.57 172.242 157.508 172.393 157.446C172.794 157.304 173.194 157.144 173.586 156.983C173.773 156.912 173.96 156.832 174.147 156.752C174.325 156.69 174.503 156.61 174.682 156.539C174.904 156.441 175.136 156.343 175.367 156.245C175.474 156.201 175.59 156.156 175.706 156.103C175.821 156.059 175.937 156.014 176.044 155.961C176.124 155.925 176.195 155.89 176.276 155.854C176.311 155.836 176.347 155.827 176.382 155.809C176.445 155.783 176.516 155.747 176.578 155.721C176.667 155.676 176.765 155.632 176.854 155.596C176.943 155.552 177.033 155.516 177.122 155.472C177.237 155.418 177.362 155.365 177.478 155.303C177.602 155.249 177.718 155.196 177.834 155.142C178.083 155.027 178.315 154.911 178.555 154.796C178.653 154.751 178.76 154.698 178.858 154.644C178.929 154.618 178.992 154.582 179.054 154.547C179.125 154.52 179.188 154.484 179.259 154.458C179.294 154.431 179.339 154.413 179.375 154.395C179.544 154.306 179.713 154.226 179.891 154.137C180.007 154.075 180.123 154.022 180.229 153.96C180.345 153.897 180.461 153.844 180.577 153.782L181.191 153.462C181.245 153.435 181.298 153.408 181.351 153.381C181.36 153.373 181.369 153.373 181.369 153.364C181.432 153.328 181.494 153.293 181.556 153.266C181.574 153.266 181.592 153.248 181.619 153.239C181.832 153.124 182.055 152.999 182.269 152.875C182.313 152.857 182.349 152.839 182.393 152.812C182.545 152.723 182.696 152.643 182.839 152.554L183.15 152.377C183.213 152.35 183.266 152.314 183.328 152.279C183.364 152.261 183.4 152.243 183.426 152.225C183.72 152.056 184.014 151.878 184.308 151.709C184.352 151.683 184.397 151.656 184.442 151.621C184.495 151.585 184.548 151.558 184.602 151.523C184.62 151.514 184.637 151.505 184.655 151.496C184.771 151.425 184.887 151.354 185.003 151.283C185.011 151.283 185.02 151.274 185.029 151.265C185.083 151.229 185.136 151.203 185.198 151.167C185.252 151.131 185.305 151.096 185.359 151.069C185.724 150.847 186.08 150.616 186.445 150.384C186.49 150.358 186.543 150.322 186.588 150.286C187.069 149.984 187.549 149.673 188.012 149.353C188.155 149.264 188.288 149.166 188.422 149.077C188.565 148.979 188.716 148.872 188.858 148.775C189.037 148.65 189.215 148.526 189.384 148.401C189.704 148.17 190.025 147.939 190.346 147.707C190.363 147.707 190.39 147.681 190.408 147.672C190.444 147.636 190.488 147.601 190.533 147.574C190.791 147.378 191.04 147.191 191.29 147.005C191.761 146.64 192.225 146.284 192.688 145.92C192.848 145.804 192.999 145.68 193.151 145.555C193.151 145.546 193.151 145.546 193.151 145.537C193.266 145.439 193.373 145.35 193.489 145.262C193.765 145.048 194.032 144.817 194.299 144.594C194.38 144.532 194.46 144.47 194.531 144.399C194.558 144.372 194.593 144.345 194.62 144.328C194.878 144.105 195.128 143.892 195.377 143.67C195.395 143.661 195.404 143.652 195.421 143.643C195.466 143.607 195.511 143.563 195.555 143.518C195.751 143.349 195.947 143.18 196.143 143.002L196.33 142.842C196.33 142.842 196.365 142.807 196.383 142.789L196.463 142.709C196.739 142.46 197.007 142.211 197.283 141.962L197.416 141.829C197.47 141.784 197.523 141.74 197.568 141.695C197.657 141.606 197.746 141.526 197.835 141.437C197.853 141.419 197.87 141.402 197.888 141.384C197.906 141.366 197.924 141.348 197.942 141.33C198.031 141.259 198.111 141.179 198.2 141.099L198.449 140.85C198.734 140.575 199.01 140.299 199.286 140.023C199.384 139.925 199.491 139.827 199.589 139.721C199.767 139.543 199.945 139.365 200.123 139.178C200.212 139.08 200.293 138.991 200.39 138.902C200.471 138.805 200.569 138.716 200.658 138.618C200.729 138.538 200.809 138.458 200.88 138.378C200.898 138.36 200.925 138.333 200.943 138.316C200.96 138.298 200.978 138.28 200.987 138.262C201.094 138.155 201.192 138.058 201.29 137.951C201.37 137.862 201.45 137.773 201.53 137.684C201.557 137.648 201.593 137.622 201.619 137.586C201.619 137.586 201.619 137.58 201.619 137.568C201.619 137.568 201.646 137.542 201.655 137.533C201.691 137.506 201.717 137.479 201.735 137.453C201.895 137.284 202.047 137.106 202.198 136.937C202.261 136.866 202.323 136.795 202.385 136.724C202.43 136.67 202.483 136.626 202.528 136.572C202.661 136.421 202.795 136.27 202.92 136.119C202.955 136.074 203 136.03 203.035 135.985C203.204 135.799 203.365 135.603 203.525 135.416C203.623 135.292 203.721 135.185 203.819 135.06C203.899 134.963 203.979 134.865 204.068 134.767C204.157 134.66 204.237 134.562 204.318 134.456C204.487 134.251 204.647 134.055 204.816 133.851C205.012 133.611 205.199 133.362 205.395 133.122C205.431 133.068 205.466 133.024 205.493 132.979C205.511 132.961 205.529 132.944 205.547 132.917C205.769 132.624 206.001 132.33 206.223 132.028C206.446 131.725 206.677 131.432 206.9 131.129C207.114 130.827 207.336 130.525 207.55 130.213C207.764 129.911 207.978 129.6 208.191 129.297C208.343 129.075 208.494 128.853 208.637 128.63C208.681 128.577 208.717 128.515 208.761 128.452C208.779 128.426 208.797 128.399 208.824 128.363C209.019 128.061 209.215 127.759 209.411 127.456C209.429 127.438 209.438 127.412 209.456 127.394C209.545 127.252 209.625 127.127 209.714 126.985C209.821 126.825 209.928 126.656 210.026 126.487C210.106 126.362 210.195 126.229 210.266 126.104C210.302 126.042 210.329 125.998 210.364 125.944C210.418 125.864 210.462 125.775 210.516 125.695C210.542 125.642 210.578 125.597 210.605 125.544C210.685 125.411 210.765 125.277 210.845 125.144C210.872 125.108 210.89 125.064 210.916 125.028L211.103 124.708C211.157 124.619 211.219 124.521 211.281 124.423C211.281 124.415 211.281 124.406 211.29 124.397C211.709 123.659 212.118 122.929 212.519 122.182C212.929 121.426 213.312 120.67 213.695 119.905C214.069 119.132 214.434 118.358 214.781 117.584C215.084 116.917 215.369 116.25 215.654 115.583C215.672 115.539 215.689 115.503 215.707 115.459C215.761 115.334 215.805 115.201 215.859 115.076C216.001 114.729 216.144 114.382 216.277 114.036C216.366 113.822 216.446 113.609 216.518 113.395C216.553 113.315 216.58 113.244 216.607 113.173C216.651 113.066 216.687 112.951 216.731 112.844C216.874 112.444 217.025 112.043 217.159 111.643C217.221 111.43 217.292 111.225 217.364 111.03C217.435 110.834 217.506 110.629 217.568 110.425C217.702 110.025 217.835 109.615 217.96 109.215C218.022 109.011 218.094 108.806 218.156 108.593C218.192 108.477 218.227 108.353 218.254 108.237C218.281 108.175 218.299 108.103 218.316 108.041C218.334 107.97 218.361 107.899 218.379 107.828C218.503 107.428 218.619 107.027 218.717 106.618C218.744 106.565 218.753 106.503 218.771 106.449C218.797 106.36 218.824 106.262 218.842 106.174C218.94 105.8 219.047 105.426 219.136 105.053C219.216 104.759 219.296 104.457 219.367 104.155C219.403 104.012 219.429 103.879 219.456 103.746C219.465 103.701 219.474 103.648 219.492 103.603C219.501 103.559 219.51 103.514 219.519 103.47C219.536 103.39 219.554 103.319 219.572 103.248C219.581 103.194 219.599 103.15 219.599 103.096C219.599 103.061 219.616 103.034 219.625 102.998C219.67 102.847 219.706 102.696 219.723 102.545V102.527C219.723 102.527 219.741 102.456 219.75 102.42C219.768 102.358 219.777 102.305 219.786 102.251C219.803 102.171 219.821 102.1 219.839 102.02C219.839 102.002 219.839 101.985 219.839 101.967V101.931C219.901 101.7 219.937 101.487 219.982 101.255C219.991 101.22 219.999 101.184 220.008 101.149C220.035 101.015 220.062 100.891 220.088 100.757C220.088 100.739 220.088 100.713 220.088 100.686C220.097 100.659 220.106 100.633 220.106 100.606C220.115 100.579 220.124 100.544 220.124 100.517C220.16 100.313 220.195 100.099 220.231 99.8946C220.249 99.7967 220.267 99.7078 220.284 99.61C220.302 99.5032 220.32 99.3965 220.338 99.2809C220.338 99.2631 220.338 99.2542 220.338 99.2364C220.409 98.8184 220.48 98.4093 220.543 97.9913C220.614 97.511 220.685 97.0397 220.747 96.5594C220.783 96.2837 220.819 96.0169 220.854 95.7412C220.872 95.6256 220.89 95.51 220.899 95.3943C220.917 95.2431 220.934 95.0831 220.943 94.923C220.943 94.8607 220.961 94.7896 220.97 94.7095C220.97 94.6828 220.979 94.6562 220.979 94.6295C220.979 94.5761 220.979 94.5228 220.997 94.4694C220.997 94.3627 221.015 94.2648 221.032 94.167C221.032 94.0781 221.05 93.9802 221.059 93.8913V93.8557C221.059 93.8024 221.059 93.7401 221.077 93.6867C221.086 93.5889 221.095 93.5 221.104 93.4021C221.121 93.2243 221.139 93.0553 221.157 92.8863C221.184 92.5217 221.21 92.1481 221.237 91.7835C221.237 91.6768 221.255 91.5789 221.264 91.4722C221.273 91.3388 221.273 91.2143 221.282 91.0809C221.282 91.0186 221.282 90.9564 221.282 90.8941C221.282 90.8585 221.291 90.823 221.291 90.7963L221.317 90.316C221.335 90.0581 221.344 89.8091 221.344 89.56C221.344 89.5067 221.344 89.4622 221.344 89.4177C221.344 89.3644 221.344 89.3199 221.353 89.2666C221.353 89.1865 221.353 89.1154 221.353 89.0442C221.362 88.982 221.362 88.9197 221.362 88.8574C221.38 88.5106 221.389 88.1726 221.38 87.8258C221.38 87.6657 221.38 87.5145 221.38 87.3455V86.9986C221.389 86.8119 221.389 86.6251 221.389 86.4383V85.4156C221.38 85.2288 221.38 85.042 221.371 84.8553C221.362 84.5618 221.362 84.2683 221.344 83.9748H221.46ZM193.765 134.482C193.694 134.562 193.614 134.633 193.534 134.714C193.498 134.749 193.462 134.785 193.427 134.82C193.382 134.856 193.338 134.9 193.302 134.936C193.258 134.98 193.213 135.025 193.177 135.069C193.16 135.087 193.142 135.096 193.133 135.114C193.062 135.176 192.99 135.247 192.919 135.318C192.91 135.327 192.901 135.336 192.901 135.336C192.67 135.558 192.438 135.781 192.207 135.994C192.1 136.101 191.984 136.199 191.877 136.306C191.833 136.35 191.797 136.386 191.753 136.421L191.726 136.439C191.521 136.635 191.307 136.83 191.094 137.026C191.094 137.026 191.076 137.026 191.067 137.044C190.951 137.15 190.826 137.257 190.711 137.364C190.497 137.551 190.292 137.737 190.078 137.915C189.945 138.031 189.802 138.147 189.669 138.262C189.598 138.324 189.535 138.387 189.464 138.44C189.366 138.52 189.268 138.6 189.17 138.689C188.939 138.885 188.698 139.071 188.467 139.267C188.431 139.294 188.404 139.32 188.369 139.347C188.004 139.65 187.63 139.934 187.256 140.228C187.238 140.237 187.229 140.254 187.211 140.263C186.997 140.432 186.775 140.592 186.561 140.752C186.507 140.797 186.445 140.841 186.392 140.886C186.329 140.93 186.267 140.975 186.205 141.019C186.044 141.153 185.875 141.268 185.715 141.384C185.439 141.597 185.154 141.802 184.869 141.998C184.824 142.033 184.771 142.069 184.726 142.095C184.593 142.193 184.45 142.3 184.308 142.389C184.21 142.46 184.103 142.531 184.005 142.602C183.845 142.709 183.694 142.816 183.533 142.922C183.524 142.931 183.506 142.94 183.498 142.949C183.444 142.976 183.4 143.011 183.346 143.047C183.311 143.074 183.266 143.091 183.23 143.118C183.213 143.136 183.195 143.154 183.168 143.163C183.168 143.171 183.141 143.189 183.124 143.198H183.115C182.954 143.305 182.785 143.421 182.616 143.527C182.411 143.67 182.197 143.803 181.984 143.936C181.912 143.981 181.832 144.025 181.761 144.079C181.725 144.096 181.69 144.123 181.654 144.15C181.547 144.203 181.441 144.274 181.334 144.337C181.182 144.434 181.031 144.532 180.871 144.63C180.808 144.666 180.737 144.71 180.675 144.746C180.63 144.772 180.595 144.799 180.559 144.817C180.488 144.861 180.416 144.897 180.354 144.941C180.301 144.977 180.238 145.004 180.185 145.03C179.989 145.155 179.793 145.27 179.588 145.386C179.535 145.422 179.481 145.448 179.437 145.475C179.161 145.635 178.876 145.795 178.591 145.946C178.457 146.035 178.324 146.106 178.19 146.178C178.021 146.275 177.852 146.364 177.674 146.462C177.05 146.791 176.427 147.12 175.795 147.432C175.483 147.592 175.162 147.743 174.851 147.894C174.512 148.054 174.174 148.214 173.845 148.365C173.533 148.508 173.23 148.641 172.918 148.783C164.272 152.572 155.046 154.502 145.518 154.502C135.989 154.502 126.763 152.572 118.117 148.783C118.028 148.748 117.939 148.703 117.858 148.668C117.663 148.579 117.467 148.49 117.271 148.401C117.226 148.383 117.191 148.365 117.146 148.348C117.021 148.294 116.906 148.232 116.79 148.179C116.585 148.09 116.389 147.992 116.184 147.894C115.944 147.778 115.712 147.672 115.472 147.547C115.436 147.529 115.401 147.521 115.374 147.503C115.32 147.476 115.276 147.458 115.231 147.432C115.098 147.369 114.955 147.298 114.813 147.218C114.635 147.129 114.457 147.04 114.279 146.951C114.243 146.934 114.207 146.916 114.172 146.889C114.056 146.836 113.949 146.773 113.842 146.72C113.735 146.667 113.629 146.613 113.522 146.551C113.468 146.524 113.406 146.489 113.352 146.462C113.228 146.391 113.103 146.32 112.978 146.258C112.934 146.231 112.88 146.204 112.836 146.178C112.702 146.098 112.569 146.026 112.435 145.946C112.195 145.822 111.954 145.688 111.714 145.546C111.669 145.519 111.625 145.502 111.58 145.475C111.554 145.457 111.527 145.448 111.5 145.422C111.482 145.422 111.456 145.395 111.438 145.386C111.233 145.27 111.037 145.155 110.841 145.03C110.788 145.004 110.725 144.977 110.672 144.941C110.592 144.897 110.512 144.844 110.432 144.799C110.343 144.746 110.245 144.683 110.156 144.63C109.995 144.532 109.844 144.434 109.692 144.337C109.586 144.274 109.479 144.203 109.372 144.15C109.336 144.123 109.301 144.096 109.265 144.079C109.185 144.034 109.114 143.981 109.042 143.936C109.016 143.919 108.998 143.91 108.971 143.892C108.615 143.67 108.259 143.429 107.903 143.198C107.885 143.198 107.876 143.18 107.858 143.163C107.742 143.091 107.609 143.011 107.493 142.922C107.235 142.745 106.976 142.576 106.718 142.389C106.585 142.3 106.451 142.202 106.317 142.113C106.264 142.069 106.211 142.033 106.157 141.998C105.872 141.793 105.587 141.597 105.311 141.384C105.151 141.268 104.982 141.144 104.821 141.019C104.759 140.984 104.697 140.93 104.634 140.886C104.581 140.841 104.519 140.797 104.465 140.752C104.251 140.592 104.029 140.432 103.815 140.263C103.673 140.157 103.53 140.05 103.397 139.934C103.183 139.774 102.978 139.614 102.773 139.445C102.755 139.436 102.747 139.427 102.729 139.409C102.702 139.392 102.684 139.374 102.657 139.347C102.622 139.32 102.595 139.294 102.56 139.267C102.328 139.071 102.088 138.885 101.856 138.689C101.553 138.44 101.242 138.182 100.948 137.915C100.734 137.737 100.529 137.551 100.315 137.364C100.2 137.257 100.075 137.15 99.9593 137.044C99.9503 137.044 99.9414 137.035 99.9325 137.026C99.7188 136.839 99.514 136.643 99.3003 136.439C99.3003 136.439 99.2825 136.43 99.2736 136.421C99.2558 136.403 99.229 136.386 99.2112 136.368C98.8105 135.994 98.4009 135.612 98.009 135.229C97.9734 135.194 97.9289 135.149 97.8933 135.114C97.8755 135.096 97.8666 135.087 97.8488 135.069C97.8131 135.025 97.7686 134.98 97.7241 134.936C97.6885 134.9 97.6439 134.856 97.5994 134.82C97.5638 134.785 97.5282 134.749 97.4926 134.714C97.4124 134.642 97.3323 134.562 97.2521 134.482C97.1007 134.331 96.9493 134.18 96.798 134.02H96.8069C97.2165 133.975 97.6261 133.94 98.0358 133.895C98.4454 133.851 98.8461 133.815 99.2558 133.762C99.9325 133.691 100.609 133.602 101.286 133.513C101.411 133.504 101.535 133.486 101.66 133.468C101.669 133.46 101.687 133.46 101.696 133.46C102.64 133.326 103.575 133.184 104.51 133.033C104.652 133.006 104.795 132.988 104.928 132.961C105.463 132.873 105.997 132.775 106.522 132.677H106.558C106.656 132.659 106.754 132.641 106.852 132.615C107.279 132.535 107.707 132.446 108.143 132.357C108.339 132.321 108.544 132.277 108.749 132.241C108.802 132.223 108.855 132.214 108.909 132.206C109.069 132.17 109.229 132.134 109.39 132.099C110.013 131.965 110.628 131.823 111.242 131.681C111.349 131.663 111.456 131.636 111.554 131.61C112.489 131.387 113.415 131.156 114.332 130.907C115.436 130.605 116.54 130.293 117.627 129.964C117.716 129.938 117.796 129.911 117.885 129.884C118.313 129.751 118.749 129.609 119.176 129.475C119.853 129.262 120.53 129.03 121.207 128.799C121.875 128.568 122.551 128.319 123.219 128.079C123.923 127.821 124.617 127.554 125.312 127.278C126.345 126.878 127.369 126.451 128.384 126.015C128.865 125.811 129.337 125.597 129.818 125.384C130.201 125.215 130.593 125.037 130.976 124.859C131.572 124.575 132.169 124.29 132.765 123.997C133.237 123.765 133.709 123.534 134.181 123.294C134.538 123.116 134.894 122.938 135.241 122.751C135.357 122.689 135.464 122.636 135.579 122.574C136.096 122.298 136.612 122.022 137.12 121.738C137.601 121.48 138.073 121.213 138.554 120.937C138.883 120.75 139.222 120.555 139.551 120.359C139.72 120.261 139.881 120.163 140.05 120.066C140.21 119.968 140.379 119.879 140.54 119.772C140.869 119.576 141.199 119.381 141.528 119.176C141.875 118.963 142.232 118.74 142.579 118.518C142.757 118.411 142.944 118.296 143.122 118.18C143.033 118.118 142.953 118.056 142.873 118.002L142.677 117.869C142.338 117.629 141.982 117.38 141.635 117.122C141.484 117.015 140.762 116.49 140.762 116.49C139.533 115.574 138.322 114.64 137.147 113.698C136.906 113.502 136.657 113.306 136.417 113.102C135.606 113.591 134.787 114.062 133.968 114.525C133.095 115.005 132.213 115.485 131.323 115.948C130.958 116.135 130.593 116.33 130.219 116.508C129.907 116.668 129.586 116.828 129.266 116.979C129.168 117.033 129.061 117.086 128.954 117.131C128.74 117.228 128.527 117.335 128.313 117.433C128.099 117.531 127.894 117.638 127.681 117.735C127.253 117.94 126.826 118.136 126.398 118.322C125.971 118.518 125.543 118.705 125.107 118.883C124.778 119.034 124.448 119.167 124.119 119.301C123.62 119.514 123.112 119.719 122.605 119.914C122.569 119.932 122.534 119.941 122.498 119.959C122.017 120.146 121.536 120.332 121.055 120.51C120.975 120.546 120.895 120.573 120.806 120.608C120.494 120.733 120.183 120.839 119.862 120.955C118.98 121.275 118.099 121.577 117.208 121.871C116.701 122.04 116.193 122.2 115.686 122.351C115.178 122.511 114.67 122.663 114.163 122.805C113.646 122.956 113.139 123.098 112.622 123.241C111.598 123.525 110.565 123.783 109.532 124.023C109.14 124.121 108.74 124.21 108.339 124.299C108.223 124.326 108.107 124.352 107.992 124.379C107.466 124.495 106.941 124.601 106.415 124.708C105.97 124.797 105.525 124.886 105.071 124.966C104.091 125.153 103.094 125.322 102.096 125.473C101.669 125.544 101.242 125.606 100.814 125.66C100.787 125.66 100.761 125.669 100.734 125.669C100.689 125.678 100.654 125.686 100.609 125.686C100.307 125.731 100.013 125.775 99.7099 125.811C99.6298 125.82 99.5585 125.829 99.4784 125.838C99.4249 125.846 99.3715 125.846 99.3181 125.855C98.855 125.918 98.4009 125.971 97.9378 126.024C97.4658 126.078 96.9939 126.122 96.513 126.167C96.3082 126.193 96.0945 126.211 95.8896 126.22C95.8451 126.229 95.8095 126.229 95.765 126.229C95.3197 126.264 94.8834 126.309 94.4381 126.336C94.3313 126.345 94.2244 126.353 94.1175 126.353C93.9662 126.371 93.8148 126.38 93.6723 126.389C93.227 126.425 92.7818 126.442 92.3454 126.469C91.7132 126.505 91.0898 126.531 90.4665 126.549C90.4486 126.531 90.4397 126.514 90.4308 126.505V126.496C90.3329 126.362 90.2349 126.229 90.137 126.096C90.1014 126.042 90.0657 125.989 90.0212 125.935C89.9143 125.775 89.8075 125.624 89.7006 125.473L89.6739 125.446C89.5225 125.224 89.3711 125.002 89.2198 124.788C89.2019 124.761 89.1841 124.744 89.1752 124.717C89.1663 124.717 89.1663 124.708 89.1663 124.708V124.681C89.0506 124.53 88.9437 124.37 88.8457 124.21C88.8012 124.148 88.7656 124.094 88.7211 124.032C88.7211 124.032 88.7211 124.026 88.7211 124.014C88.7211 124.014 88.6855 123.979 88.6765 123.952C88.4806 123.659 88.2847 123.356 88.0888 123.054C87.9998 122.912 87.9107 122.769 87.8217 122.627C87.884 122.182 87.9285 121.746 87.9909 121.311L88.0621 120.83C88.0888 120.599 88.1244 120.368 88.1601 120.146C88.2491 119.594 88.3203 119.043 88.4183 118.5C88.4183 118.482 88.4183 118.465 88.4272 118.438C88.4717 118.171 88.5163 117.904 88.5608 117.629C88.6053 117.362 88.6498 117.095 88.7033 116.828C88.7033 116.784 88.7211 116.739 88.73 116.695C88.7478 116.561 88.7745 116.428 88.8012 116.295C88.8279 116.135 88.8546 115.983 88.8903 115.832C88.8903 115.752 88.917 115.663 88.9348 115.583C88.9704 115.387 89.006 115.183 89.0595 114.978C89.1307 114.64 89.193 114.311 89.2554 113.982C89.2643 113.973 89.2643 113.964 89.2643 113.956C89.3177 113.68 89.38 113.395 89.4424 113.12C89.5938 112.408 89.763 111.705 89.9322 111.003C89.9589 110.887 89.9856 110.763 90.0212 110.647C90.0746 110.407 90.137 110.176 90.1993 109.936C90.226 109.829 90.2527 109.722 90.2795 109.615C90.4041 109.126 90.5288 108.646 90.6624 108.157C90.7959 107.677 90.9295 107.196 91.072 106.716C91.2056 106.236 91.3481 105.764 91.4994 105.284C91.633 104.848 91.7666 104.413 91.9002 103.986C91.9002 103.968 91.9002 103.959 91.918 103.941C91.918 103.941 91.918 103.935 91.918 103.923C91.9358 103.852 91.9625 103.763 91.9981 103.692C92.1317 103.274 92.2653 102.856 92.4078 102.447C92.5591 101.976 92.7283 101.504 92.8975 101.033C93.2359 100.099 93.5832 99.1653 93.9394 98.2403C94.2956 97.3154 94.6696 96.3904 95.0704 95.4833C95.2574 95.0475 95.4355 94.6206 95.6314 94.1937C95.667 94.1225 95.6937 94.0514 95.7293 93.9802C95.7472 93.9269 95.7739 93.8824 95.7917 93.829C95.854 93.6956 95.9074 93.5711 95.9698 93.4377C95.9876 93.3932 96.0054 93.3577 96.0232 93.3132C96.0677 93.2243 96.1123 93.1353 96.1568 93.0375C96.1924 92.9486 96.2369 92.8507 96.2815 92.7618C96.4863 92.3171 96.7 91.8635 96.9137 91.4188C97.1274 90.9741 97.3501 90.5206 97.5727 90.0759C98.0179 89.1954 98.4721 88.3149 98.9352 87.4433V87.4344C99.042 87.2299 99.1578 87.0253 99.2647 86.8208C99.5763 86.2516 99.888 85.6824 100.217 85.131C100.271 85.0331 100.324 84.9442 100.378 84.8464C100.378 84.8286 100.378 84.8197 100.405 84.8019C100.458 84.713 100.502 84.624 100.556 84.5351C100.752 84.1971 100.939 83.8681 101.153 83.539C101.206 83.4412 101.259 83.3522 101.322 83.2544C101.5 82.9431 101.687 82.6318 101.883 82.3205C102.186 81.8314 102.488 81.3422 102.8 80.862C103.308 80.0615 103.833 79.2789 104.376 78.4962C104.438 78.3984 104.51 78.2917 104.581 78.1938C104.804 77.8737 105.017 77.5713 105.231 77.26C105.525 76.8509 105.81 76.4418 106.104 76.0327C106.407 75.6325 106.7 75.2233 107.003 74.8231C106.798 74.3695 106.602 73.9337 106.407 73.4891C105.427 71.2389 104.608 69.1667 103.877 67.1389C103.788 66.8988 103.708 66.6587 103.619 66.4185C103.45 66.6231 103.281 66.8277 103.121 67.0322C102.88 67.3168 102.649 67.6103 102.417 67.9127C102.221 68.1528 102.034 68.4018 101.847 68.642C101.259 69.3891 100.689 70.145 100.137 70.901C99.5763 71.657 99.0242 72.4307 98.4899 73.2045C97.9467 73.9693 97.4213 74.752 96.9048 75.5346C96.3883 76.3262 95.8807 77.1177 95.3821 77.9092C94.8923 78.7097 94.4025 79.5101 93.9305 80.3194C93.4586 81.1288 92.9955 81.947 92.5413 82.7652C92.0961 83.5835 91.6508 84.4106 91.2234 85.2377C90.9028 85.8602 90.5822 86.4828 90.2706 87.1143C90.1637 87.3277 90.0657 87.5323 89.9678 87.7457C89.5581 88.5817 89.1663 89.4355 88.7745 90.2804C88.6053 90.654 88.445 91.0275 88.2758 91.401C88.0621 91.8813 87.8573 92.3705 87.6525 92.8507C87.4031 93.4466 87.1627 94.0425 86.9222 94.6384L86.7887 94.9852C86.6017 95.4655 86.4147 95.9546 86.2277 96.4438C86.0852 96.8173 85.9427 97.1909 85.8091 97.5644C85.6755 97.9379 85.542 98.3115 85.4084 98.6939C85.4084 98.6939 85.4084 98.6998 85.4084 98.7117C85.4084 98.7117 85.3906 98.7562 85.3817 98.7828C85.2926 99.0497 85.1947 99.3165 85.1056 99.5833C85.0255 99.7701 84.9631 99.9657 84.9008 100.152C84.8207 100.366 84.7494 100.588 84.6871 100.811C84.6693 100.873 84.6515 100.935 84.6247 100.997C84.6069 101.069 84.5802 101.14 84.5535 101.211C84.5357 101.264 84.5179 101.309 84.5001 101.362C84.3843 101.727 84.2685 102.091 84.1528 102.456C84.1261 102.527 84.1082 102.607 84.0815 102.678C84.0548 102.785 84.0192 102.892 83.9836 103.007C83.761 103.746 83.5472 104.484 83.3335 105.222C83.3246 105.249 83.3246 105.266 83.3157 105.293C83.2088 105.675 83.102 106.058 82.9951 106.44C82.8883 106.832 82.7903 107.214 82.6923 107.597C82.5232 108.237 82.3629 108.877 82.2115 109.518C82.158 109.731 82.1046 109.944 82.0512 110.158C81.9978 110.362 81.9443 110.576 81.8909 110.789C81.8375 110.674 81.8018 110.567 81.7573 110.451C81.7217 110.336 81.6772 110.229 81.6326 110.113C81.4813 109.704 81.3388 109.295 81.1963 108.886C81.0894 108.575 80.9826 108.264 80.8757 107.943C80.8401 107.854 80.8134 107.757 80.7867 107.659C80.76 107.579 80.7243 107.49 80.7065 107.41C80.6798 107.33 80.6531 107.259 80.6353 107.196C80.5997 107.081 80.564 106.965 80.5284 106.858C80.4394 106.583 80.3503 106.307 80.2702 106.031C80.2256 105.898 80.19 105.764 80.1455 105.622C80.101 105.489 80.0654 105.355 80.0297 105.213C79.9229 104.839 79.8249 104.475 79.727 104.101C79.6735 103.915 79.6201 103.737 79.5756 103.55V103.532C79.5221 103.345 79.4776 103.159 79.4331 102.972C79.4064 102.874 79.3797 102.785 79.3619 102.687C79.3351 102.616 79.3262 102.554 79.3084 102.483C79.3084 102.456 79.2906 102.429 79.2906 102.411C79.2372 102.18 79.1748 101.949 79.1303 101.718C79.0947 101.584 79.068 101.442 79.0413 101.318C79.0235 101.264 79.0146 101.22 79.0057 101.175C78.9967 101.131 78.9878 101.077 78.9789 101.033C78.9255 100.802 78.8721 100.562 78.8275 100.33C78.8097 100.286 78.8008 100.233 78.7919 100.188C78.7652 100.09 78.7474 99.9835 78.7296 99.8768C78.7207 99.8145 78.7118 99.7523 78.694 99.69C78.6316 99.3698 78.5782 99.0497 78.5159 98.7295C78.4892 98.5694 78.4535 98.4004 78.4268 98.2403V98.2137C78.3823 97.9913 78.3467 97.7601 78.3111 97.5199C78.2843 97.3599 78.2576 97.2087 78.2309 97.0486C78.2309 96.9685 78.2042 96.8796 78.1953 96.7995C78.1151 96.2837 78.035 95.759 77.9727 95.2343C77.9549 95.1453 77.9459 95.0564 77.937 94.9674C77.9192 94.8518 77.9014 94.7362 77.8925 94.6206C77.8658 94.4249 77.8391 94.2204 77.8213 94.0158C77.8213 93.9358 77.8035 93.8468 77.7946 93.7668C77.7857 93.669 77.7768 93.5711 77.7679 93.4733C77.75 93.2954 77.7322 93.1175 77.7144 92.9397C77.6699 92.5039 77.6254 92.077 77.5987 91.6412C77.5808 91.4455 77.5719 91.2587 77.5541 91.0631C77.5363 90.823 77.5185 90.5828 77.5096 90.3427C77.5096 90.1292 77.4829 89.9069 77.4829 89.6934C77.4384 89.062 77.4206 88.4216 77.4116 87.7902V87.6034C77.4116 87.4167 77.3938 87.2299 77.4116 87.0431V86.1093C77.4116 85.7535 77.4116 85.3889 77.4116 85.0242C77.4295 84.6685 77.4384 84.3127 77.4562 83.9481V83.9214C77.4562 83.6902 77.474 83.4589 77.4829 83.2188C77.4829 82.9698 77.5096 82.7208 77.5185 82.4717C77.5185 82.3205 77.5185 82.1694 77.5452 82.0182C77.563 81.7869 77.5808 81.5468 77.5987 81.3156V81.2711C77.5987 81.1732 77.5987 81.0754 77.6254 80.9776C77.6254 80.9153 77.6254 80.8442 77.6432 80.7819C77.6699 80.3817 77.7055 79.9815 77.75 79.5813C77.75 79.5457 77.75 79.519 77.7589 79.4923C77.7946 79.101 77.8391 78.7097 77.8925 78.3184C77.8925 78.2561 77.8925 78.2027 77.9103 78.1405C77.9103 78.1227 77.9103 78.1049 77.9103 78.0871C77.9192 78.0427 77.9192 78.0071 77.9281 77.9626C77.9549 77.7403 77.9816 77.5179 78.0172 77.2956C78.0172 77.2511 78.0261 77.1978 78.035 77.1533C78.035 77.0555 78.0528 76.9576 78.0706 76.8598C78.0884 76.7175 78.1062 76.5841 78.133 76.4418C78.1864 76.1305 78.2309 75.8192 78.2843 75.5079C78.3556 75.0633 78.4357 74.6097 78.5159 74.165C78.596 73.7203 78.6851 73.2667 78.7741 72.822C78.8454 72.4574 78.9255 72.0927 79.0057 71.7281C79.0235 71.6481 79.0413 71.568 79.0591 71.488C79.0591 71.4524 79.068 71.4257 79.0769 71.3901C79.1036 71.2834 79.1303 71.1767 79.157 71.07C79.2105 70.8032 79.2728 70.5452 79.344 70.2962C79.344 70.2517 79.3619 70.2073 79.3797 70.1628C79.5934 69.2823 79.8249 68.4018 80.0832 67.5303C80.2078 67.0945 80.3414 66.6587 80.475 66.2229C80.5373 66.0272 80.5997 65.8227 80.662 65.627C80.662 65.6092 80.662 65.5914 80.6798 65.5736C80.7154 65.4669 80.751 65.3602 80.7867 65.2446L80.8935 64.9244C81.0093 64.5775 81.1251 64.2396 81.2408 63.8927C81.2586 63.8305 81.2854 63.7682 81.3032 63.7148C81.321 63.6615 81.3388 63.6081 81.3566 63.5637C81.4278 63.3769 81.4902 63.1901 81.5614 63.0033C81.5703 62.9589 81.5881 62.9144 81.6059 62.8788H81.6148C81.695 62.6476 81.784 62.4164 81.8642 62.194C81.9087 62.0784 81.9532 61.9628 81.9978 61.8561C82.0156 61.7938 82.0423 61.7315 82.069 61.6693C82.1224 61.5181 82.1848 61.3669 82.2382 61.2246C82.2827 61.1179 82.3183 61.0289 82.3629 60.9222C82.3718 60.8955 82.3807 60.8689 82.3985 60.8422C82.5677 60.4331 82.7369 60.0151 82.915 59.597C83.0753 59.2324 83.2267 58.8678 83.3958 58.512C83.4404 58.3964 83.4938 58.2897 83.5472 58.1741C83.752 57.7294 83.9569 57.2936 84.1706 56.8578C84.3754 56.422 84.5891 55.9862 84.8117 55.5593C84.9186 55.3281 85.0255 55.1235 85.1412 54.91C85.3015 54.5988 85.4707 54.2875 85.6399 53.9762C85.818 53.6471 85.9961 53.3181 86.1831 52.989C86.2989 52.7756 86.4236 52.5621 86.5482 52.3487C86.6017 52.2508 86.664 52.153 86.7263 52.0463C86.7887 51.9395 86.851 51.8417 86.9133 51.735C86.949 51.6727 86.9846 51.6105 87.0291 51.5482C87.0647 51.4771 87.1093 51.4059 87.1538 51.3348C87.1983 51.2547 87.2428 51.1836 87.2874 51.1124C87.2874 51.1124 87.323 51.0413 87.3497 51.0146C87.3853 50.9523 87.4209 50.8901 87.4655 50.8278C87.599 50.5966 87.7504 50.3653 87.9018 50.1252C88.0799 49.8317 88.2669 49.5471 88.4539 49.2625C88.4806 49.2092 88.5073 49.1736 88.5341 49.1291C88.5697 49.0758 88.6053 49.0224 88.6498 48.969C88.6765 48.9157 88.7033 48.8712 88.7389 48.8267C88.7745 48.7645 88.8101 48.7022 88.8546 48.6489C88.917 48.551 88.9793 48.4532 89.0506 48.3643C89.1218 48.2575 89.1841 48.1508 89.2643 48.0441C89.3979 47.8395 89.5314 47.6439 89.6739 47.4482C89.6828 47.4482 89.6828 47.4393 89.6828 47.4393C89.7452 47.3415 89.8164 47.2436 89.8876 47.1458C89.9589 47.048 90.0301 46.9502 90.1014 46.8523C90.137 46.7901 90.1815 46.7367 90.2171 46.6833C90.2795 46.5855 90.3507 46.4966 90.4219 46.4076C90.4576 46.3543 90.4932 46.3009 90.5288 46.2564C90.7425 45.9629 90.9562 45.6695 91.1789 45.376C91.4015 45.0825 91.6241 44.7979 91.8557 44.5044C91.8646 44.4866 91.8824 44.4688 91.8913 44.451C92.0338 44.282 92.1673 44.1042 92.3098 43.9352C92.4612 43.7395 92.6126 43.5527 92.7729 43.366C93.138 42.9124 93.5031 42.4766 93.8771 42.0408C94.0107 41.8896 94.1442 41.7295 94.2867 41.5783C94.3223 41.5339 94.358 41.4894 94.3936 41.4449C94.4114 41.4271 94.4203 41.4182 94.4381 41.4005C94.4559 41.3827 94.4737 41.3649 94.4826 41.3471C94.4826 41.3382 94.5005 41.3293 94.5183 41.3204C94.7854 41.018 95.0615 40.7067 95.3375 40.4044C95.6136 40.102 95.8896 39.7996 96.1746 39.5061C96.3438 39.3282 96.513 39.1503 96.6911 38.9725C96.9137 38.7412 97.1453 38.51 97.3768 38.2788C97.822 37.8341 98.2673 37.3983 98.7214 36.9714C98.8194 36.8824 98.9174 36.7935 99.0153 36.6957C99.4606 36.2777 99.9147 35.8686 100.378 35.4594C100.396 35.8597 100.413 36.251 100.431 36.6423C100.44 36.8469 100.449 37.0514 100.467 37.2471C100.485 37.5673 100.502 37.8785 100.52 38.1898C100.52 38.2343 100.52 38.2788 100.52 38.3232C100.529 38.3766 100.529 38.43 100.538 38.4833C100.556 38.7857 100.574 39.0792 100.6 39.3816C100.6 39.5328 100.627 39.6929 100.645 39.853C100.645 39.9063 100.645 39.9597 100.654 40.013C100.681 40.3866 100.716 40.769 100.752 41.1425C100.752 41.1692 100.761 41.2048 100.761 41.2315C100.779 41.3916 100.796 41.5517 100.814 41.7028C100.823 41.854 100.841 42.0141 100.859 42.1653C100.859 42.2365 100.859 42.2987 100.876 42.3521C100.912 42.6367 100.939 42.9124 100.966 43.1881C101.01 43.5616 101.055 43.9263 101.108 44.2909L101.126 44.4421V44.5311C101.233 45.3404 101.348 46.1408 101.473 46.9502C102.355 52.7489 103.744 58.4764 105.614 64.035C105.703 64.284 105.783 64.5331 105.872 64.7732C105.952 65.0133 106.041 65.2624 106.122 65.5114C106.211 65.7604 106.3 66.0005 106.389 66.2407C106.576 66.7743 106.772 67.2901 106.968 67.806C107.359 68.8465 107.769 69.8782 108.196 70.8921C108.41 71.4079 108.624 71.9149 108.847 72.4218C109.238 73.3201 109.639 74.2183 110.058 75.1077C110.334 75.7036 110.619 76.2995 110.912 76.8865C110.921 76.9131 110.939 76.9309 110.948 76.9576C111.367 77.7847 111.785 78.6207 112.222 79.439C112.961 80.8531 113.735 82.2405 114.546 83.6012C114.795 84.0192 115.044 84.4373 115.294 84.8464C115.561 85.2911 115.837 85.7268 116.113 86.1626C116.389 86.6073 116.665 87.0431 116.95 87.47C117.493 88.306 118.045 89.1331 118.615 89.9514C118.954 90.4405 119.292 90.9297 119.639 91.4099C119.996 91.8991 120.352 92.3883 120.708 92.8685C121.207 93.5355 121.723 94.2026 122.24 94.8607C122.311 94.9585 122.391 95.0564 122.462 95.1542C123.041 95.8746 123.62 96.595 124.217 97.2976C124.252 97.351 124.297 97.3954 124.332 97.4399C124.769 97.9646 125.214 98.4805 125.668 98.9874C125.704 99.0319 125.748 99.0763 125.784 99.1208C125.971 99.3432 126.167 99.5655 126.372 99.7878C126.799 100.277 127.235 100.757 127.69 101.238C127.903 101.478 128.126 101.709 128.349 101.949C128.393 101.993 128.438 102.038 128.473 102.082C128.981 102.616 129.488 103.141 130.005 103.666C130.593 104.261 131.18 104.839 131.786 105.418C132.089 105.711 132.409 106.013 132.721 106.307C132.81 106.396 132.908 106.485 132.997 106.574C133.202 106.761 133.407 106.947 133.62 107.143C133.736 107.25 133.861 107.365 133.977 107.472C134.164 107.632 134.342 107.801 134.529 107.961C134.84 108.237 135.143 108.521 135.455 108.788C135.766 109.064 136.087 109.34 136.399 109.607C136.479 109.678 136.568 109.758 136.657 109.829C136.746 109.9 136.835 109.98 136.924 110.042C137.547 110.585 138.18 111.101 138.821 111.617C139.97 112.541 141.145 113.449 142.338 114.329C142.632 114.543 142.926 114.765 143.211 114.969H143.22C143.621 115.263 144.021 115.548 144.413 115.823C144.778 116.081 145.152 116.33 145.526 116.588C146.319 117.131 147.12 117.655 147.931 118.18C148.109 118.296 148.296 118.411 148.474 118.518C148.821 118.74 149.178 118.963 149.525 119.176C149.854 119.381 150.184 119.585 150.513 119.772C150.674 119.879 150.843 119.968 151.003 120.066C151.172 120.163 151.333 120.261 151.502 120.359C151.831 120.564 152.17 120.75 152.499 120.937C152.98 121.213 153.452 121.48 153.933 121.738C154.414 122.004 154.895 122.262 155.375 122.52C155.411 122.538 155.438 122.556 155.473 122.574C156.399 123.063 157.343 123.534 158.287 123.997C158.777 124.237 159.267 124.477 159.757 124.708C159.864 124.761 159.97 124.806 160.077 124.859C160.46 125.037 160.852 125.215 161.235 125.384C161.716 125.597 162.188 125.811 162.669 126.015C163.684 126.46 164.708 126.878 165.741 127.278C166.435 127.554 167.13 127.821 167.834 128.079C168.163 128.194 168.501 128.319 168.84 128.443C169.178 128.568 169.517 128.684 169.846 128.799C170.006 128.861 170.167 128.915 170.327 128.968C170.844 129.137 171.36 129.315 171.876 129.475C172.393 129.635 172.909 129.804 173.426 129.964C174.521 130.302 175.617 130.614 176.721 130.907C177.647 131.147 178.573 131.387 179.499 131.61C179.606 131.636 179.713 131.663 179.811 131.681C180.345 131.805 180.88 131.93 181.414 132.045C181.494 132.063 181.583 132.081 181.663 132.099C181.823 132.134 181.984 132.17 182.144 132.206C182.197 132.214 182.251 132.223 182.304 132.241C182.509 132.277 182.714 132.321 182.91 132.357C183.435 132.472 183.961 132.579 184.495 132.677H184.531C185.056 132.775 185.59 132.873 186.125 132.961C186.267 132.988 186.401 133.015 186.543 133.033C186.712 133.059 186.873 133.086 187.042 133.113C187.808 133.237 188.582 133.353 189.357 133.46C189.491 133.477 189.633 133.495 189.767 133.513C190.123 133.566 190.47 133.611 190.826 133.655C191.147 133.7 191.468 133.735 191.797 133.762C192.207 133.815 192.607 133.851 193.017 133.895C193.427 133.94 193.836 133.984 194.246 134.02H194.255C194.104 134.18 193.952 134.331 193.792 134.482H193.765Z" fill="white"/>
<path d="M177.513 52.2061C177.603 52.1527 177.692 52.1083 177.781 52.0549C177.816 52.0371 177.852 52.0104 177.887 51.9927C178.03 51.3612 178.172 50.7297 178.297 50.0983L178.351 49.8315C178.644 48.3729 178.912 46.8343 179.152 45.2334C179.303 44.2462 179.437 43.2857 179.553 42.3696C179.428 42.423 179.312 42.4764 179.197 42.5297C179.001 42.6187 178.796 42.7076 178.6 42.7965C177.994 43.0811 177.398 43.3746 176.801 43.677C176.623 43.7659 176.454 43.8549 176.285 43.9438C175.955 44.1128 175.635 44.2818 175.314 44.4597C174.984 44.6286 174.664 44.8065 174.343 44.9933C173.978 45.1889 173.613 45.3935 173.257 45.6069C173.07 45.7226 172.883 45.8293 172.687 45.9449C172.268 46.2028 171.85 46.4607 171.431 46.7276C171.333 46.7809 171.244 46.8432 171.155 46.9054C171.957 47.4924 172.74 48.0972 173.506 48.7198C174.495 49.5113 176.276 51.0855 177.513 52.2061Z" fill="white"/>
<path d="M112.649 49.8315L112.703 50.0983C112.828 50.7297 112.97 51.3612 113.113 51.9927C113.148 52.0193 113.175 52.0371 113.21 52.0549H113.219C113.308 52.1083 113.397 52.1527 113.487 52.2061C114.724 51.0855 116.505 49.5113 117.494 48.7198C118.26 48.0972 119.043 47.4924 119.845 46.9054C119.756 46.8432 119.658 46.7898 119.56 46.7276C119.15 46.4607 118.723 46.2028 118.304 45.9449C118.117 45.8293 117.921 45.7226 117.734 45.6069C117.592 45.5269 117.449 45.438 117.307 45.3579C117.093 45.2334 116.879 45.1178 116.657 44.9933C116.336 44.8065 116.016 44.6286 115.686 44.4597C115.365 44.2818 115.036 44.1128 114.707 43.9438C114.537 43.8549 114.368 43.7659 114.199 43.677C113.602 43.3746 112.997 43.0811 112.391 42.7965C112.195 42.7076 111.99 42.6187 111.795 42.5297C111.741 42.503 111.688 42.4764 111.634 42.4586C111.572 42.423 111.51 42.3963 111.447 42.3696C111.563 43.2857 111.697 44.2462 111.848 45.2334C112.088 46.8343 112.356 48.3729 112.649 49.8315Z" fill="white"/>
<path d="M115.855 53.6736C115.534 53.9582 115.223 54.2339 114.911 54.5274C114.59 54.812 114.279 55.1055 113.958 55.399V55.4168C114.083 55.8615 114.207 56.2973 114.332 56.733C114.902 58.7341 115.552 60.7263 116.256 62.6741C116.38 63.0209 116.505 63.35 116.638 63.688C117.921 62.4161 119.239 61.1799 120.583 59.9704C121.109 59.499 121.634 59.0454 122.168 58.5918C122.186 58.5652 122.204 58.5474 122.231 58.5385C122.329 58.4584 122.436 58.3695 122.542 58.2806C122.596 58.2183 122.658 58.1649 122.721 58.1205C122.783 58.0671 122.845 58.0226 122.908 57.9693C123.193 57.7203 123.486 57.4801 123.771 57.2489C123.932 57.1155 124.083 56.991 124.243 56.8576L124.715 56.4751C124.84 56.3773 124.965 56.2795 125.089 56.1816C125.766 55.6391 126.452 55.1144 127.137 54.5897H127.146C127.503 54.3228 127.868 54.056 128.224 53.7892C128.473 53.6113 128.714 53.4424 128.963 53.2645C129.079 53.1756 129.195 53.0866 129.31 53.0066C129.506 52.8643 129.711 52.722 129.916 52.5797C130.236 52.3484 130.557 52.135 130.887 51.9126C131.047 51.7881 131.207 51.6814 131.376 51.5747C131.421 51.5391 131.465 51.5124 131.51 51.4769C131.626 51.3968 131.759 51.3079 131.875 51.2367C131.92 51.21 131.964 51.1834 132 51.1567C132.053 51.1122 132.107 51.0766 132.16 51.05C132.356 50.9165 132.552 50.792 132.748 50.6586C132.97 50.5074 133.202 50.3651 133.424 50.2228C133.531 50.1606 133.647 50.0894 133.754 50.0183C133.807 49.9827 133.852 49.9471 133.905 49.9204C134.075 49.8137 134.244 49.707 134.413 49.6092C134.858 49.3246 135.303 49.0489 135.758 48.782C135.847 48.7198 135.936 48.6664 136.025 48.6131C136.906 48.0794 137.797 47.5725 138.696 47.0744C139.142 46.8254 139.587 46.5853 140.032 46.3452C140.477 46.0961 140.931 45.8649 141.386 45.6337C141.831 45.3935 142.294 45.1623 142.748 44.94C143.202 44.6998 143.665 44.4775 144.128 44.264C144.583 44.0417 145.037 43.8282 145.491 43.6148H145.509C145.963 43.8282 146.417 44.0417 146.871 44.264C146.987 44.3174 147.112 44.3708 147.227 44.433C147.753 44.682 148.278 44.9488 148.795 45.2068C149.409 45.518 150.023 45.8382 150.629 46.1584C151.19 46.4608 151.751 46.7632 152.303 47.0744C153.203 47.5725 154.093 48.0883 154.975 48.6131C155.358 48.8443 155.741 49.0755 156.115 49.3068C156.168 49.3424 156.221 49.369 156.266 49.4046C156.373 49.4669 156.48 49.538 156.587 49.6092C156.756 49.707 156.925 49.8137 157.094 49.9204C157.148 49.956 157.192 49.9827 157.245 50.0183C157.352 50.0894 157.468 50.1606 157.575 50.2228C157.798 50.3651 158.029 50.5163 158.252 50.6586C158.635 50.9076 159.009 51.1567 159.392 51.4146C159.427 51.4324 159.454 51.4591 159.49 51.4769C159.516 51.4946 159.543 51.5124 159.57 51.5302C160.077 51.8771 160.585 52.2239 161.084 52.5797C161.288 52.722 161.484 52.8643 161.689 53.0066C161.805 53.0866 161.921 53.1756 162.036 53.2645C162.286 53.4424 162.526 53.6113 162.776 53.7892C163.132 54.056 163.488 54.3228 163.853 54.5897H163.862C164.557 55.1055 165.233 55.6391 165.91 56.1816C166.035 56.2795 166.151 56.3773 166.275 56.4751C167.682 57.6046 169.054 58.7697 170.407 59.9704C171.752 61.1799 173.07 62.4161 174.352 63.6968C174.486 63.35 174.61 63.0209 174.735 62.6741C175.439 60.7263 176.089 58.7341 176.659 56.733C176.783 56.2973 176.908 55.8615 177.033 55.4168V55.399C176.908 55.2834 176.774 55.1589 176.65 55.0521C176.302 54.7231 175.75 54.225 175.136 53.6736C173.987 52.6419 172.598 51.4235 171.814 50.792C170.781 49.956 169.775 49.2001 168.795 48.4886C168.795 48.4886 168.751 48.453 168.724 48.4263C168.448 48.2217 168.163 48.0083 167.887 47.8037C167.682 47.6436 167.477 47.5014 167.264 47.3502C167.21 47.3146 167.157 47.2701 167.103 47.2345C166.997 47.1545 166.899 47.0833 166.783 47.0033C166.738 46.9766 166.703 46.941 166.658 46.9144C166.516 46.8076 166.373 46.7098 166.222 46.6031C166.097 46.5053 165.972 46.4163 165.848 46.3274C165.83 46.3096 165.803 46.3007 165.785 46.2918C165.607 46.1673 165.438 46.0428 165.26 45.9183C164.966 45.7226 164.672 45.518 164.378 45.3224C164.227 45.2157 164.076 45.1089 163.915 45.0022C163.622 44.8065 163.337 44.6109 163.034 44.4241C162.695 44.1929 162.348 43.9616 162.001 43.7482C161.698 43.5525 161.404 43.3658 161.101 43.1701C160.621 42.8677 160.14 42.5742 159.65 42.2718C159.178 41.9872 158.697 41.7026 158.225 41.418C157.798 41.169 157.361 40.92 156.934 40.6799C156.791 40.5998 156.649 40.5109 156.497 40.4308C156.257 40.2974 156.017 40.164 155.776 40.0306C155.651 39.9595 155.518 39.8883 155.393 39.8172C155.028 39.6215 154.663 39.4169 154.298 39.2302C154.227 39.1857 154.155 39.1501 154.093 39.1146C154.013 39.0701 153.924 39.0256 153.844 38.99C153.577 38.8477 153.327 38.7143 153.069 38.5809C153.024 38.5543 152.971 38.5365 152.935 38.5098C152.802 38.4475 152.668 38.3764 152.544 38.3141C152.348 38.2163 152.152 38.1185 151.956 38.0206C151.813 37.9495 151.671 37.8783 151.537 37.8072C151.404 37.736 151.279 37.6738 151.146 37.6115C150.994 37.5315 150.843 37.4603 150.682 37.3892C150.46 37.2824 150.237 37.1757 150.006 37.069C149.569 36.8555 149.142 36.651 148.706 36.4553C148.171 36.2063 147.628 35.9662 147.094 35.726C147.085 35.726 147.085 35.7171 147.076 35.7171L146.898 35.6371L145.5 35.0234H145.491L144.102 35.6371L143.906 35.726C143.371 35.9662 142.828 36.2063 142.294 36.4553C141.875 36.6421 141.457 36.8378 141.038 37.0423C140.798 37.1579 140.557 37.2736 140.317 37.3892C140.157 37.4603 140.005 37.5315 139.854 37.6115C139.72 37.6738 139.596 37.736 139.462 37.8072C139.391 37.8427 139.32 37.8783 139.248 37.9139C139.186 37.9406 139.115 37.9762 139.044 38.0206C138.874 38.1007 138.696 38.1896 138.527 38.2785C138.358 38.3586 138.18 38.4475 138.011 38.5365C137.984 38.5543 137.957 38.5631 137.93 38.5809C137.672 38.7143 137.414 38.8477 137.156 38.99C137.004 39.0701 136.853 39.1412 136.702 39.2302C136.523 39.3191 136.336 39.4169 136.149 39.5237C136.06 39.5681 135.971 39.6215 135.882 39.666C135.66 39.7905 135.446 39.9061 135.223 40.0306C135.09 40.1018 134.947 40.1818 134.814 40.253C134.707 40.3063 134.609 40.3686 134.502 40.4308C134.404 40.4842 134.297 40.5376 134.199 40.5998C133.763 40.8488 133.327 41.089 132.899 41.3469C131.92 41.9161 130.949 42.512 129.987 43.1078C129.738 43.2679 129.497 43.4191 129.257 43.5792C129.07 43.6948 128.892 43.8104 128.714 43.9261C128.509 44.0506 128.304 44.184 128.108 44.3263C127.779 44.5397 127.449 44.7532 127.12 44.9755C126.915 45.1089 126.719 45.2512 126.514 45.3935C126.247 45.5625 125.989 45.7404 125.73 45.9272C125.552 46.0428 125.392 46.1673 125.214 46.2918C125.196 46.3007 125.169 46.3096 125.152 46.3274C125.027 46.4163 124.902 46.5053 124.778 46.6031C124.635 46.7009 124.493 46.8076 124.341 46.9144C124.136 47.0567 123.932 47.199 123.736 47.3502C123.522 47.5014 123.317 47.6436 123.112 47.8037C122.836 48.0083 122.551 48.2217 122.275 48.4263C122.249 48.453 122.231 48.4708 122.204 48.4886C121.225 49.2001 120.218 49.956 119.185 50.792C118.402 51.4235 117.012 52.6419 115.864 53.6736H115.855Z" fill="white"/>
</g>
<defs>
<clipPath id="clip0_2815_4464">
<rect width="541" height="212" fill="white"/>
</clipPath>
</defs>
</svg>
