<svg width="575" height="278" viewBox="0 0 575 278" fill="none" xmlns="http://www.w3.org/2000/svg">
<g clip-path="url(#clip0_2815_4469)">
<path d="M357.399 39.1772C357.041 46.8583 356.172 55.3539 354.534 63.9026C354.454 64.254 354.395 64.6372 354.315 64.9885C354.262 65.3399 354.177 65.7231 354.097 66.0744C350.88 81.9264 345.124 97.6666 335.495 108.659C327.285 117.862 315.341 118.618 306.176 110.261C295.24 100.243 287.356 77.1996 284.55 68.0014C285.121 65.936 285.451 64.6905 285.451 64.584L285.836 63.6312L285.916 63.9026C293.715 82.9272 308.305 112.598 323.823 107.36C335.495 101.414 341.006 85.1309 344.905 73.186C345.476 71.4507 346.132 69.034 346.868 66.0744C346.922 65.7231 347.007 65.3984 347.14 64.9885C347.194 64.6372 347.279 64.3125 347.359 63.9026C351.974 43.5208 356.828 4.43372 338.392 4.2208C319.657 5.08845 302.613 27.7539 293.581 42.5999C290.77 46.9967 287.42 53.2938 285.483 58.5317L285.345 58.883L284.662 60.7833L283.435 63.9878L283.382 64.1262C282.811 66.3246 274.356 97.6986 260.582 110.293C256.33 114.173 251.417 116.127 246.621 116.127C241.111 116.127 235.659 113.63 231.268 108.691C221.207 97.1556 215.339 80.4626 212.234 63.9346C212.154 63.5833 212.096 63.2 212.069 62.8487C211.989 62.4974 211.904 62.1141 211.904 61.7628C210.485 53.9432 209.695 46.2355 209.396 39.1825C209.45 27.1844 209.45 5.68996 223.357 1.12812C243.868 -3.86489 265.847 26.2901 275.31 41.3543C277.519 44.9367 280.602 51.3988 282.208 54.9812V55.0345L281.637 56.3386L281.04 57.7492C279.05 52.6444 275.913 46.7838 273.241 42.6052C264.215 27.7593 247.171 5.09378 228.43 4.22612C210.65 4.44437 214.55 40.9231 218.967 61.7681C219.047 62.146 219.132 62.5027 219.239 62.854C219.292 63.2319 219.377 63.5886 219.457 63.9399C220.332 67.8736 221.202 71.1047 221.885 73.2233C225.784 85.1682 231.295 101.451 242.967 107.397C244.194 107.834 245.394 107.993 246.621 107.993C260.747 107.993 273.673 81.4474 280.874 63.9133L281.472 62.4495L282.155 60.7141L283.408 57.7279L283.627 57.1584L284.198 55.8542C285.724 52.4901 289.106 45.1869 291.533 41.3064C300.292 27.3441 319.737 0.5 338.856 0.5C340.408 0.5 341.939 0.665014 343.492 1.06956C357.399 5.65802 357.399 27.1258 357.458 39.1239L357.399 39.1772Z" fill="white"/>
<path d="M66.307 247.542C66.419 247.377 66.5257 247.217 66.6324 247.052C64.6693 248.271 63.5224 249.464 63.1703 250.603C63.9385 250.198 64.9734 249.192 66.307 247.542ZM53.408 277.415C53.0239 277.255 52.7252 277.037 52.5065 276.739C52.2878 276.467 52.2077 276.143 52.2611 275.818L57.4463 229.827C57.4996 229.502 57.6383 229.284 57.8837 229.151C58.1291 229.018 58.4278 229.044 58.8386 229.204C59.1373 229.364 59.4094 229.582 59.6281 229.88C59.8468 230.178 59.9855 230.476 60.0122 230.801L58.4012 244.449C60.7217 239.978 63.2823 237.407 66.0936 236.757C67.566 236.513 68.985 236.923 70.3239 237.976C71.3588 238.871 71.8763 240.063 71.9083 241.527C76.8748 239.738 81.3718 238.684 85.4368 238.36C85.7622 238.36 86.0929 238.466 86.3917 238.658C86.7171 238.876 86.9091 239.121 87.0212 239.446C87.1332 239.77 87.1332 240.068 87.0212 240.313C86.9145 240.558 86.6691 240.691 86.3383 240.691C81.1265 241.261 76.112 242.613 71.2522 244.726C70.3239 246.839 69.017 248.841 67.2672 250.709C66.5577 251.524 65.9283 252.12 65.3575 252.471C64.7867 252.849 64.3225 253.094 63.9385 253.2C63.5544 253.339 63.2556 253.339 62.9836 253.254C62.7115 253.174 62.4928 253.12 62.3274 253.12C62.2207 253.041 62.0287 252.929 61.7833 252.769C61.5112 252.61 61.2658 252.365 61.0471 252.04C60.8017 251.715 60.695 251.284 60.6364 250.688C60.471 249.224 61.1538 247.792 62.7382 246.408C64.3172 245.024 66.3924 243.805 68.985 242.751C69.2037 242.182 69.3424 241.639 69.4224 241.154C69.5024 240.425 69.369 239.935 69.0383 239.69C68.8996 239.525 68.6596 239.392 68.3288 239.254C68.0034 239.121 67.6193 239.062 67.2086 239.062C65.0801 239.552 62.9516 241.798 60.8231 245.78C58.6946 249.762 57.2756 254.856 56.5127 261.031L54.635 276.765C54.5549 277.255 54.3096 277.495 53.8988 277.495C53.7334 277.495 53.5734 277.441 53.3547 277.388L53.408 277.415Z" fill="white"/>
<path d="M87.2293 240.473C87.0373 240.633 86.8719 240.878 86.7385 241.202C87.528 241.122 88.0775 240.957 88.4029 240.712C89.0591 240.223 89.4645 239.792 89.6565 239.36H89.3045C88.4883 239.36 87.7788 239.717 87.2293 240.473ZM87.0106 244.13C87.2026 244.21 87.3947 244.295 87.5814 244.375C87.7734 244.455 88.0455 244.508 88.3709 244.566C88.6963 244.62 89.1337 244.62 89.6779 244.62C90.222 244.62 90.8248 244.566 91.5343 244.428C92.2171 244.322 93.06 244.103 94.0149 243.805C94.9698 243.534 96.058 243.182 97.2316 242.778C99.5522 241.884 101.595 241.016 103.398 240.148C105.201 239.281 106.263 238.796 106.615 238.631C106.781 238.386 107.026 238.306 107.405 238.386C107.757 238.466 108.061 238.631 108.306 238.876C108.69 239.281 108.877 239.69 108.85 240.095C108.797 240.175 108.77 240.26 108.744 240.34C108.744 240.42 108.637 240.532 108.472 240.638C108.306 240.744 108.087 240.909 107.815 241.069C107.543 241.234 107.133 241.42 106.562 241.692C105.527 242.261 103.996 242.964 101.979 243.779C97.0983 245.812 93.2254 246.919 90.334 247.084H90.0886C88.0455 247.084 86.4611 246.515 85.3409 245.375C84.386 244.236 83.9219 243.044 83.9219 241.772C83.9219 240.5 84.306 239.467 85.0101 238.658C86.7279 236.71 88.7497 236.411 91.0915 237.79C91.5023 238.035 91.8277 238.386 92.0464 238.817C92.2918 239.281 92.2918 239.818 92.1264 240.468C91.8544 241.362 91.2249 242.144 90.2167 242.799C89.2084 243.449 87.9815 243.693 86.5358 243.528C86.6745 243.688 86.8345 243.906 86.9999 244.151V244.13H87.0106Z" fill="white"/>
<path d="M117.071 246.568C115.3 247.137 113.881 247.436 112.814 247.436C111.752 247.436 110.957 247.164 110.44 246.568C109.81 245.918 109.592 245.216 109.784 244.481C109.976 243.752 110.328 243.017 110.819 242.288C110.899 242.043 111.011 241.772 111.144 241.421C110.573 241.421 109.944 241.314 109.234 241.069C108.525 240.824 107.927 240.393 107.351 239.717C107.026 239.227 106.834 238.716 106.78 238.2C106.727 237.684 106.78 237.226 106.86 236.848C106.972 236.47 107.079 236.252 107.132 236.172C107.298 235.927 107.543 235.794 107.869 235.794C108.194 235.794 108.525 235.874 108.823 236.039C109.149 236.284 109.368 236.582 109.48 236.907C109.586 237.231 109.618 237.529 109.533 237.774C109.426 237.934 109.341 238.126 109.288 238.317C109.234 238.535 109.234 238.668 109.261 238.748C109.368 238.828 109.586 238.908 109.89 238.993C110.216 239.073 110.739 239.126 111.475 239.126C112.045 239.126 112.51 239.233 112.867 239.424C113.219 239.643 113.496 239.856 113.657 240.1C114.094 240.67 114.227 241.266 114.067 241.862C113.902 242.485 113.577 243.135 113.086 243.869C112.947 244.194 112.76 244.572 112.488 244.982C113.224 244.982 114.617 244.657 116.687 244.008C120.015 242.954 124.87 241.112 131.282 238.509C131.474 238.344 131.746 238.344 132.157 238.509C132.541 238.674 132.813 238.887 132.973 239.132C133.165 239.456 133.245 239.754 133.218 240.052C133.218 240.351 133.053 240.569 132.781 240.729C125.691 243.736 120.479 245.684 117.097 246.579H117.071V246.568Z" fill="white"/>
<path d="M133.059 249.49C132.979 249.735 132.92 250.06 132.894 250.464C132.92 250.544 133.032 250.603 133.192 250.603C133.438 250.603 133.763 250.384 134.201 249.927C134.611 249.496 134.937 248.814 135.102 247.925C135.241 247.601 135.267 247.249 135.214 246.813C134.067 247.787 133.358 248.681 133.059 249.49ZM134.014 253.041C133.768 253.041 133.55 253.014 133.358 252.934C132.456 252.689 131.773 252.311 131.315 251.822C130.85 251.332 130.552 250.848 130.386 250.358C129.949 248.324 131.288 246.158 134.451 243.885C134.041 243.156 133.443 242.368 132.68 241.554C131.4 240.17 130.936 238.818 131.315 237.519C131.779 236.459 132.595 235.677 133.768 235.187C134.942 234.698 135.977 234.511 136.825 234.564C137.177 234.644 137.508 234.836 137.807 235.107C138.105 235.405 138.271 235.704 138.298 236.028C138.324 236.353 138.244 236.598 138.052 236.758C137.86 236.923 137.588 237.002 137.263 237.002C136.991 236.923 136.606 236.976 136.142 237.109C135.678 237.269 135.187 237.487 134.723 237.785C134.259 238.083 133.907 238.408 133.715 238.812C133.715 238.977 133.715 239.164 133.715 239.435C133.742 239.68 133.961 239.978 134.313 240.303C135.075 241.117 135.678 241.9 136.084 242.634C139.631 240.521 144.566 239.084 150.978 238.354C151.303 238.354 151.634 238.461 151.933 238.653C152.258 238.871 152.503 239.11 152.696 239.44C152.802 239.765 152.802 240.063 152.696 240.308C152.589 240.553 152.343 240.686 152.013 240.686C145.441 241.58 140.554 243.097 137.337 245.211C137.636 246.35 137.748 247.35 137.689 248.191C137.609 249.059 137.471 249.682 137.279 250.086C136.98 250.901 136.516 251.603 135.886 252.173C135.257 252.743 134.633 253.041 133.977 253.041H134.014Z" fill="white"/>
<path d="M153.351 238.386C153.351 238.546 153.378 238.711 153.517 238.876L153.57 238.983C153.709 239.142 153.896 239.361 154.141 239.605C154.466 239.85 154.877 240.037 155.341 240.228L155.261 239.983C155.096 239.494 154.85 239.062 154.525 238.711C154.2 238.333 153.869 238.168 153.543 238.168C153.405 238.248 153.351 238.328 153.378 238.413L153.351 238.386ZM151.74 244.13C151.767 244.7 151.82 245.131 151.879 245.402C151.932 245.7 152.018 245.839 152.098 245.839C152.124 245.918 152.236 245.945 152.396 245.945C152.557 245.945 152.749 245.918 152.967 245.839C154.797 245.189 155.752 244.13 155.805 242.671C154.605 242.267 153.65 241.777 152.967 241.208C152.861 241.128 152.749 241.043 152.642 240.963C152.151 241.692 151.852 242.751 151.767 244.13H151.74ZM153.159 248.271C152.503 248.271 151.959 248.165 151.495 247.92C151.031 247.675 150.679 247.404 150.433 247.132C150.161 246.861 150.023 246.616 149.969 246.456C149.313 245.237 149.121 243.827 149.398 242.256C149.671 240.659 150.215 239.467 151.01 238.653C150.871 238.248 150.817 237.838 150.844 237.434C151.063 236.38 151.687 235.837 152.754 235.837C154.637 235.837 156.243 237.109 157.608 239.627L158.019 240.846C160.772 241.25 164.618 240.494 169.504 238.514C169.777 238.354 170.075 238.354 170.433 238.514C170.79 238.674 171.062 238.892 171.308 239.137C171.5 239.462 171.58 239.76 171.553 240.058C171.553 240.356 171.388 240.574 171.116 240.734C165.552 242.927 161.295 243.795 158.35 243.305C158.35 245.663 157.011 247.287 154.37 248.181C153.906 248.261 153.522 248.287 153.197 248.287L153.159 248.271Z" fill="white"/>
<path d="M199.533 239.121C199.698 239.366 199.805 239.664 199.832 239.989C199.858 240.313 199.752 240.558 199.48 240.718C195.799 242.666 192.822 244.023 190.56 244.806C188.298 245.594 186.495 245.945 185.162 245.918C183.823 245.892 182.814 245.647 182.105 245.242C181.043 244.753 180.222 244.103 179.651 243.294C179.08 242.48 178.696 241.751 178.477 241.101C178.339 240.941 178.232 240.776 178.179 240.611C178.125 240.446 178.04 240.34 177.933 240.26C177.224 240.585 176.216 241.399 174.909 242.698C173.596 243.997 172.343 245.461 171.196 247.084C171.004 247.244 170.758 247.329 170.433 247.329C170.188 247.329 169.915 247.249 169.617 247.084C169.318 246.919 169.099 246.706 168.987 246.461C168.849 246.217 168.795 245.945 168.769 245.594L169.617 238.035C169.67 237.71 169.809 237.492 170.054 237.359C170.3 237.221 170.598 237.253 171.009 237.412C171.393 237.577 171.692 237.79 171.911 238.088C172.129 238.386 172.209 238.684 172.156 239.009L171.772 241.825C172.044 241.665 172.263 241.447 172.428 241.202C174.199 239.414 175.538 238.333 176.493 237.977C177.421 237.599 178.184 237.678 178.755 238.168C179.272 238.493 179.683 238.871 179.955 239.334C180.227 239.792 180.499 240.281 180.771 240.851C181.043 241.421 181.315 241.905 181.588 242.315C181.86 242.719 182.158 243.017 182.542 243.182C183.359 243.672 184.943 243.646 187.264 243.129C189.584 242.613 193.1 241.069 197.794 238.551C197.986 238.386 198.258 238.36 198.642 238.498C198.994 238.605 199.325 238.849 199.597 239.174L199.533 239.121Z" fill="white"/>
<path d="M198.605 241.798C197.869 243.017 197.432 243.992 197.266 244.721C197.922 244.476 199.176 243.449 201 241.66C201.571 241.17 202.094 240.659 202.558 240.063C202.531 239.983 202.478 239.871 202.366 239.712C202.259 239.547 202.174 239.414 202.094 239.281C202.014 239.142 201.929 239.089 201.849 239.089C201.112 239.089 200.019 239.983 198.573 241.772L198.605 241.798ZM197.272 247.297C196.946 247.297 196.701 247.271 196.482 247.191C196.045 247.111 195.634 246.919 195.282 246.568C194.93 246.243 194.684 245.78 194.572 245.216C194.434 244.322 194.652 243.214 195.282 241.857C195.879 240.505 196.727 239.313 197.794 238.253C198.856 237.199 199.976 236.656 201.123 236.656C201.448 236.656 201.886 236.789 202.403 237.034C202.948 237.279 203.465 237.737 204.041 238.386L204.366 237.902C204.719 237.497 205.183 237.465 205.812 237.796C206.41 238.12 206.74 238.583 206.767 239.148C206.879 239.717 206.986 240.175 207.066 240.558C207.146 240.936 207.311 241.314 207.583 241.724C207.855 242.128 208.181 242.512 208.618 242.836C209.056 243.161 209.872 243.379 211.045 243.512C212.246 243.651 213.937 243.379 216.119 242.725C218.3 242.075 221.165 240.691 224.713 238.583C224.985 238.418 225.283 238.392 225.614 238.53C225.939 238.637 226.244 238.828 226.489 239.073C226.761 239.398 226.9 239.722 226.873 240.047C226.873 240.372 226.734 240.59 226.516 240.67C217.842 245.95 211.568 247.308 207.749 244.705C206.442 243.731 205.567 242.698 205.103 241.644C204.505 242.293 203.849 242.996 203.113 243.731C201.641 245.195 200.44 246.169 199.512 246.658C198.584 247.148 197.821 247.388 197.25 247.388L197.272 247.297Z" fill="white"/>
<path d="M226.92 223.056C226.184 228.39 225.421 234.107 224.573 240.202C223.261 250.523 222.199 258.699 221.383 264.714C220.945 268.206 220.62 270.889 220.455 272.757C220.289 273.731 220.183 274.466 220.103 274.95C220.103 275.44 220.103 275.871 220.183 276.222C220.236 276.574 220.455 276.899 220.865 277.143C221.191 277.388 221.522 277.495 221.847 277.495C222.012 277.495 222.204 277.415 222.364 277.25C222.556 277.085 222.636 276.845 222.61 276.521C222.716 275.381 223.239 271.347 224.135 264.443C225.064 257.533 226.099 249.575 227.272 240.526C228.035 234.623 228.771 229.098 229.454 223.95C228.611 223.626 227.763 223.328 226.888 223.003L226.92 223.056Z" fill="white"/>
<path d="M260.171 240.473C259.979 240.633 259.813 240.878 259.68 241.202C260.469 241.122 261.019 240.957 261.344 240.712C262 240.223 262.406 239.792 262.598 239.36H262.246C261.424 239.36 260.715 239.717 260.171 240.473ZM259.952 244.13C260.144 244.21 260.336 244.295 260.523 244.375C260.715 244.455 260.987 244.508 261.312 244.566C261.638 244.62 262.075 244.62 262.619 244.62C263.163 244.62 263.766 244.566 264.476 244.428C265.159 244.322 266.001 244.103 266.956 243.805C267.911 243.534 268.999 243.182 270.173 242.778C272.494 241.884 274.537 241.016 276.34 240.148C278.143 239.281 279.204 238.796 279.557 238.631C279.722 238.386 279.967 238.306 280.346 238.386C280.698 238.466 281.002 238.631 281.248 238.876C281.632 239.281 281.818 239.69 281.792 240.095C281.738 240.175 281.712 240.26 281.685 240.34C281.685 240.42 281.578 240.532 281.413 240.638C281.248 240.744 281.029 240.909 280.757 241.069C280.485 241.234 280.074 241.42 279.503 241.692C278.468 242.261 276.937 242.964 274.921 243.779C270.04 245.812 266.167 246.919 263.275 247.084H263.03C260.987 247.084 259.403 246.515 258.282 245.375C257.327 244.236 256.863 243.044 256.863 241.772C256.863 240.5 257.247 239.467 257.952 238.658C259.669 236.71 261.691 236.411 264.033 237.79C264.444 238.035 264.769 238.386 264.988 238.817C265.233 239.281 265.233 239.818 265.068 240.468C264.796 241.362 264.166 242.144 263.158 242.799C262.15 243.449 260.923 243.693 259.477 243.528C259.616 243.688 259.776 243.906 259.941 244.151V244.13H259.952Z" fill="white"/>
<path d="M314.044 247.542C314.157 247.377 314.263 247.217 314.37 247.052C312.407 248.271 311.26 249.464 310.908 250.603C311.671 250.198 312.706 249.192 314.044 247.542ZM301.167 277.415C300.783 277.255 300.484 277.037 300.265 276.739C300.047 276.467 299.967 276.143 300.02 275.818L305.205 229.827C305.258 229.502 305.397 229.284 305.643 229.151C305.888 229.018 306.187 229.044 306.597 229.204C306.896 229.364 307.168 229.582 307.387 229.88C307.606 230.178 307.744 230.476 307.771 230.801L306.16 244.449C308.481 239.978 311.041 237.407 313.852 236.757C315.325 236.513 316.744 236.923 318.083 237.976C319.118 238.871 319.635 240.063 319.667 241.527C324.634 239.738 329.131 238.684 333.196 238.36C333.521 238.36 333.852 238.466 334.15 238.658C334.476 238.876 334.668 239.121 334.78 239.446C334.892 239.77 334.892 240.068 334.78 240.313C334.673 240.558 334.428 240.691 334.097 240.691C328.885 241.261 323.865 242.613 319.011 244.726C318.083 246.839 316.776 248.841 315.026 250.709C314.317 251.524 313.687 252.12 313.116 252.471C312.545 252.849 312.081 253.094 311.697 253.2C311.313 253.339 311.014 253.339 310.742 253.254C310.47 253.174 310.252 253.12 310.086 253.12C309.98 253.041 309.787 252.929 309.542 252.769C309.27 252.61 309.025 252.365 308.806 252.04C308.561 251.715 308.454 251.284 308.395 250.688C308.23 249.224 308.913 247.792 310.497 246.408C312.076 245.024 314.151 243.805 316.744 242.751C316.962 242.182 317.101 241.639 317.181 241.154C317.261 240.425 317.128 239.935 316.797 239.69C316.658 239.525 316.418 239.392 316.088 239.254C315.762 239.121 315.378 239.062 314.967 239.062C312.839 239.552 310.71 241.798 308.582 245.78C306.453 249.762 305.034 254.856 304.272 261.031L302.394 276.765C302.314 277.255 302.068 277.495 301.658 277.495C301.492 277.495 301.332 277.441 301.113 277.388L301.167 277.415Z" fill="white"/>
<path d="M343.31 246.568C341.539 247.137 340.12 247.436 339.053 247.436C337.986 247.436 337.196 247.164 336.679 246.568C336.05 245.918 335.831 245.216 336.023 244.481C336.215 243.752 336.567 243.017 337.058 242.288C337.138 242.043 337.25 241.772 337.383 241.421C336.812 241.421 336.183 241.314 335.473 241.069C334.764 240.824 334.166 240.393 333.59 239.717C333.265 239.227 333.073 238.716 333.02 238.2C332.966 237.684 333.02 237.226 333.1 236.848C333.206 236.47 333.318 236.252 333.372 236.172C333.537 235.927 333.782 235.794 334.108 235.794C334.433 235.794 334.764 235.874 335.063 236.039C335.388 236.284 335.607 236.582 335.719 236.907C335.826 237.231 335.858 237.529 335.772 237.774C335.665 237.934 335.58 238.126 335.527 238.317C335.473 238.535 335.473 238.668 335.5 238.748C335.607 238.828 335.825 238.908 336.13 238.993C336.455 239.073 336.978 239.126 337.714 239.126C338.285 239.126 338.749 239.233 339.106 239.424C339.458 239.643 339.736 239.856 339.896 240.1C340.333 240.67 340.467 241.266 340.307 241.862C340.141 242.485 339.816 243.135 339.325 243.869C339.186 244.194 339 244.572 338.728 244.982C339.464 244.982 340.856 244.657 342.926 244.008C346.255 242.954 351.109 241.112 357.521 238.509C357.713 238.344 357.985 238.344 358.396 238.509C358.78 238.674 359.052 238.887 359.212 239.132C359.404 239.456 359.484 239.754 359.458 240.052C359.458 240.351 359.292 240.569 359.02 240.729C351.931 243.736 346.719 245.684 343.337 246.579H343.31V246.568Z" fill="white"/>
<path d="M359.954 238.386C359.954 238.546 359.981 238.711 360.119 238.876L360.173 238.983C360.311 239.142 360.498 239.361 360.743 239.605C361.069 239.85 361.48 240.037 361.944 240.228L361.864 239.983C361.698 239.494 361.453 239.062 361.128 238.711C360.802 238.333 360.471 238.168 360.146 238.168C360.007 238.248 359.954 238.328 359.981 238.413L359.954 238.386ZM358.343 244.13C358.37 244.7 358.423 245.131 358.482 245.402C358.535 245.7 358.62 245.839 358.7 245.839C358.727 245.918 358.839 245.945 358.999 245.945C359.159 245.945 359.351 245.918 359.57 245.839C361.4 245.189 362.354 244.13 362.408 242.671C361.208 242.267 360.253 241.777 359.57 241.208C359.463 241.128 359.351 241.043 359.244 240.963C358.754 241.692 358.455 242.751 358.37 244.13H358.343ZM359.762 248.271C359.106 248.271 358.562 248.165 358.098 247.92C357.633 247.675 357.281 247.404 357.036 247.132C356.764 246.861 356.625 246.616 356.572 246.456C355.916 245.237 355.724 243.827 356.001 242.256C356.273 240.659 356.817 239.467 357.612 238.653C357.473 238.248 357.42 237.838 357.447 237.434C357.665 236.38 358.29 235.837 359.356 235.837C361.24 235.837 362.851 237.109 364.211 239.627L364.622 240.846C367.374 241.25 371.221 240.494 376.107 238.514C376.379 238.354 376.678 238.354 377.035 238.514C377.393 238.674 377.665 238.892 377.91 239.137C378.102 239.462 378.182 239.76 378.155 240.058C378.155 240.356 377.99 240.574 377.718 240.734C372.154 242.927 367.897 243.795 364.952 243.305C364.952 245.663 363.613 247.287 360.973 248.181C360.509 248.261 360.125 248.287 359.799 248.287L359.762 248.271Z" fill="white"/>
<path d="M383.41 246.674C382.946 246.515 382.183 246.483 381.148 246.568C380.113 246.648 378.94 246.786 377.574 246.919C376.758 254.313 376.075 263.9 375.611 275.711C375.531 276.201 375.254 276.441 374.763 276.441H374.272C373.888 276.276 373.589 276.063 373.371 275.765C373.152 275.493 373.013 275.168 372.986 274.844C373.531 263.468 374.16 254.313 374.923 247.409C374.021 247.654 373.205 247.867 372.442 248.032H372.197C371.872 248.032 371.567 247.952 371.322 247.787C371.077 247.622 370.858 247.435 370.693 247.164C370.474 246.759 370.421 246.435 370.554 246.19C370.666 245.945 370.879 245.785 371.183 245.7C371.263 245.7 371.674 245.594 372.437 245.402C373.173 245.21 374.101 245.024 375.19 244.859C376.251 236.491 377.564 230.881 379.116 228.092C380.642 225.276 382.359 224.137 384.242 224.626C384.6 224.706 384.925 224.898 385.224 225.169C385.523 225.467 385.688 225.765 385.715 226.09C385.741 226.415 385.661 226.66 385.469 226.819C385.277 226.984 385.005 227.064 384.68 227.064C382.663 226.66 380.972 229.257 379.607 234.862C379.009 237.38 378.433 240.547 377.942 244.369C382.087 243.8 384.546 244.263 385.283 245.721C385.475 246.046 385.528 246.344 385.475 246.642C385.421 246.94 385.229 247.105 384.931 247.185C384.386 247.265 383.869 247.105 383.405 246.696V246.674H383.41Z" fill="white"/>
<path d="M392.223 240.473C392.031 240.633 391.866 240.878 391.733 241.202C392.522 241.122 393.072 240.957 393.397 240.712C394.053 240.223 394.459 239.792 394.651 239.36H394.293C393.477 239.36 392.768 239.717 392.223 240.473ZM392.005 244.13C392.197 244.21 392.389 244.295 392.576 244.375C392.768 244.455 393.04 244.508 393.365 244.566C393.69 244.62 394.128 244.62 394.672 244.62C395.216 244.62 395.819 244.566 396.528 244.428C397.211 244.322 398.054 244.103 399.009 243.805C399.964 243.534 401.052 243.182 402.226 242.778C404.546 241.884 406.589 241.016 408.393 240.148C410.196 239.281 411.257 238.796 411.609 238.631C411.775 238.386 412.02 238.306 412.399 238.386C412.751 238.466 413.055 238.631 413.3 238.876C413.684 239.281 413.871 239.69 413.844 240.095C413.791 240.175 413.764 240.26 413.738 240.34C413.738 240.42 413.631 240.532 413.466 240.638C413.3 240.744 413.082 240.909 412.81 241.069C412.538 241.234 412.127 241.42 411.556 241.692C410.521 242.261 408.99 242.964 406.974 243.779C402.092 245.812 398.22 246.919 395.328 247.084H395.083C393.04 247.084 391.455 246.515 390.335 245.375C389.38 244.236 388.916 243.044 388.916 241.772C388.916 240.5 389.3 239.467 390.01 238.658C391.727 236.71 393.749 236.411 396.091 237.79C396.502 238.035 396.827 238.386 397.046 238.817C397.291 239.281 397.291 239.818 397.126 240.468C396.854 241.362 396.224 242.144 395.216 242.799C394.208 243.454 392.981 243.693 391.535 243.528C391.674 243.688 391.834 243.906 391.999 244.151V244.13H392.005Z" fill="white"/>
<path d="M413.604 249.49C413.524 249.735 413.465 250.06 413.439 250.464C413.465 250.544 413.577 250.603 413.737 250.603C413.983 250.603 414.308 250.384 414.746 249.927C415.156 249.496 415.482 248.814 415.647 247.925C415.786 247.601 415.812 247.249 415.759 246.813C414.617 247.787 413.908 248.681 413.604 249.49ZM414.559 253.041C414.313 253.041 414.095 253.014 413.903 252.934C413.001 252.689 412.318 252.311 411.859 251.822C411.395 251.332 411.097 250.848 410.931 250.358C410.494 248.324 411.833 246.158 414.996 243.885C414.585 243.156 413.988 242.368 413.225 241.554C411.945 240.17 411.481 238.818 411.859 237.519C412.324 236.459 413.14 235.677 414.313 235.187C415.487 234.698 416.522 234.511 417.37 234.564C417.722 234.644 418.053 234.836 418.352 235.107C418.65 235.405 418.816 235.704 418.842 236.028C418.869 236.353 418.789 236.598 418.597 236.758C418.405 236.923 418.133 237.002 417.808 237.002C417.535 236.923 417.151 236.976 416.687 237.109C416.223 237.269 415.732 237.487 415.268 237.785C414.804 238.083 414.447 238.408 414.26 238.812C414.26 238.977 414.26 239.164 414.26 239.435C414.287 239.68 414.505 239.978 414.858 240.303C415.62 241.117 416.223 241.9 416.629 242.634C420.176 240.521 425.111 239.084 431.523 238.354C431.848 238.354 432.179 238.461 432.478 238.653C432.803 238.871 433.048 239.11 433.24 239.44C433.347 239.765 433.347 240.063 433.24 240.308C433.134 240.553 432.888 240.686 432.558 240.686C425.985 241.58 421.099 243.097 417.882 245.211C418.181 246.35 418.293 247.35 418.24 248.191C418.16 249.059 418.021 249.682 417.829 250.086C417.53 250.901 417.066 251.603 416.437 252.173C415.807 252.743 415.183 253.041 414.527 253.041H414.559Z" fill="white"/>
<path d="M433.246 249.49C433.165 249.735 433.107 250.06 433.08 250.464C433.107 250.544 433.219 250.603 433.379 250.603C433.624 250.603 433.95 250.384 434.387 249.927C434.798 249.496 435.123 248.814 435.289 247.925C435.427 247.601 435.454 247.249 435.401 246.813C434.254 247.787 433.544 248.681 433.246 249.49ZM434.2 253.041C433.955 253.041 433.736 253.014 433.544 252.934C432.643 252.689 431.96 252.311 431.501 251.822C431.037 251.332 430.738 250.848 430.573 250.358C430.135 248.324 431.474 246.158 434.638 243.885C434.227 243.156 433.63 242.368 432.867 241.554C431.586 240.17 431.122 238.818 431.501 237.519C431.965 236.459 432.781 235.677 433.955 235.187C435.129 234.698 436.164 234.511 437.012 234.564C437.364 234.644 437.695 234.836 437.993 235.107C438.292 235.405 438.457 235.704 438.484 236.028C438.511 236.353 438.431 236.598 438.239 236.758C438.047 236.923 437.775 237.002 437.449 237.002C437.177 236.923 436.793 236.976 436.329 237.109C435.865 237.269 435.374 237.487 434.91 237.785C434.446 238.083 434.094 238.408 433.902 238.812C433.902 238.977 433.902 239.164 433.902 239.435C433.928 239.68 434.147 239.978 434.499 240.303C435.262 241.117 435.865 241.9 436.27 242.634C439.818 240.521 444.752 239.084 451.164 238.354C451.49 238.354 451.82 238.461 452.119 238.653C452.445 238.871 452.69 239.11 452.882 239.44C452.989 239.765 452.989 240.063 452.882 240.308C452.775 240.553 452.53 240.686 452.199 240.686C445.627 241.58 440.741 243.097 437.524 245.211C437.823 246.35 437.935 247.35 437.881 248.191C437.801 249.059 437.663 249.682 437.47 250.086C437.172 250.901 436.708 251.603 436.078 252.173C435.449 252.743 434.825 253.041 434.168 253.041H434.2Z" fill="white"/>
<path d="M453.538 238.386C453.538 238.546 453.565 238.711 453.704 238.876L453.757 238.983C453.896 239.142 454.083 239.361 454.328 239.605C454.653 239.85 455.064 240.037 455.528 240.228L455.448 239.983C455.283 239.494 455.037 239.062 454.712 238.711C454.387 238.333 454.056 238.168 453.73 238.168C453.592 238.248 453.538 238.328 453.565 238.413L453.538 238.386ZM451.933 244.13C451.959 244.7 452.013 245.131 452.071 245.402C452.125 245.7 452.21 245.839 452.29 245.839C452.317 245.918 452.429 245.945 452.589 245.945C452.749 245.945 452.941 245.918 453.16 245.839C454.989 245.189 455.944 244.13 455.998 242.671C454.797 242.267 453.843 241.777 453.16 241.208C453.053 241.128 452.941 241.043 452.834 240.963C452.343 241.692 452.045 242.751 451.959 244.13H451.933ZM453.352 248.271C452.696 248.271 452.151 248.165 451.687 247.92C451.223 247.675 450.871 247.404 450.626 247.132C450.354 246.861 450.215 246.616 450.162 246.456C449.505 245.237 449.313 243.827 449.591 242.256C449.863 240.659 450.407 239.467 451.202 238.653C451.063 238.248 451.01 237.838 451.037 237.434C451.255 236.38 451.879 235.837 452.946 235.837C454.829 235.837 456.44 237.109 457.801 239.627L458.212 240.846C460.964 241.25 464.81 240.494 469.697 238.514C469.969 238.354 470.268 238.354 470.625 238.514C470.983 238.674 471.255 238.892 471.5 239.137C471.692 239.462 471.772 239.76 471.745 240.058C471.745 240.356 471.58 240.574 471.308 240.734C465.744 242.927 461.487 243.795 458.542 243.305C458.542 245.663 457.203 247.287 454.563 248.181C454.099 248.261 453.714 248.287 453.389 248.287L453.352 248.271Z" fill="white"/>
<path d="M480.025 246.568C478.254 247.137 476.835 247.436 475.768 247.436C474.701 247.436 473.911 247.164 473.394 246.568C472.764 245.918 472.546 245.216 472.738 244.481C472.93 243.752 473.282 243.017 473.773 242.288C473.853 242.043 473.965 241.772 474.098 241.421C473.527 241.421 472.898 241.314 472.188 241.069C471.479 240.824 470.881 240.393 470.305 239.717C469.98 239.227 469.788 238.716 469.734 238.2C469.681 237.684 469.734 237.226 469.814 236.848C469.921 236.47 470.033 236.252 470.086 236.172C470.252 235.927 470.497 235.794 470.823 235.794C471.148 235.794 471.479 235.874 471.778 236.039C472.103 236.284 472.322 236.582 472.434 236.907C472.54 237.231 472.572 237.529 472.487 237.774C472.38 237.934 472.295 238.126 472.242 238.317C472.188 238.535 472.188 238.668 472.215 238.748C472.322 238.828 472.54 238.908 472.844 238.993C473.17 239.073 473.693 239.126 474.429 239.126C475 239.126 475.464 239.233 475.821 239.424C476.173 239.643 476.451 239.856 476.611 240.1C477.048 240.67 477.181 241.266 477.021 241.862C476.856 242.485 476.531 243.135 476.04 243.869C475.901 244.194 475.714 244.572 475.442 244.982C476.179 244.982 477.571 244.657 479.641 244.008C482.969 242.954 487.824 241.112 494.236 238.509C494.428 238.344 494.7 238.344 495.111 238.509C495.495 238.674 495.767 238.887 495.927 239.132C496.119 239.456 496.199 239.754 496.173 240.052C496.173 240.351 496.007 240.569 495.735 240.729C488.645 243.736 483.434 245.684 480.051 246.579H480.025V246.568Z" fill="white"/>
<path d="M495.004 241.798C494.268 243.017 493.83 243.992 493.665 244.721C494.321 244.476 495.575 243.449 497.399 241.66C497.97 241.17 498.493 240.659 498.957 240.063C498.93 239.983 498.877 239.871 498.765 239.712C498.658 239.547 498.573 239.414 498.493 239.281C498.413 239.142 498.327 239.089 498.247 239.089C497.511 239.089 496.418 239.983 494.972 241.772L495.004 241.798ZM493.665 247.297C493.34 247.297 493.094 247.271 492.876 247.191C492.438 247.111 492.027 246.919 491.675 246.568C491.323 246.243 491.078 245.78 490.966 245.216C490.827 244.322 491.046 243.214 491.675 241.857C492.273 240.505 493.121 239.313 494.183 238.253C495.244 237.199 496.364 236.656 497.511 236.656C497.837 236.656 498.274 236.789 498.792 237.034C499.336 237.279 499.853 237.737 500.429 238.386L500.755 237.902C501.107 237.497 501.571 237.465 502.2 237.796C502.798 238.12 503.129 238.583 503.155 239.148C503.262 239.717 503.374 240.175 503.454 240.558C503.534 240.941 503.699 241.314 503.971 241.724C504.244 242.128 504.569 242.512 505.006 242.836C505.444 243.161 506.26 243.379 507.434 243.512C508.634 243.651 510.325 243.379 512.507 242.725C514.689 242.075 517.553 240.691 521.101 238.583C521.373 238.418 521.672 238.392 522.002 238.53C522.328 238.637 522.632 238.828 522.877 239.073C523.149 239.398 523.288 239.722 523.261 240.047C523.261 240.372 523.123 240.59 522.904 240.67C514.23 245.95 507.956 247.308 504.137 244.705C502.83 243.731 501.955 242.698 501.491 241.644C500.893 242.293 500.237 242.996 499.501 243.731C498.029 245.195 496.828 246.169 495.9 246.658C494.972 247.148 494.209 247.388 493.638 247.388L493.665 247.297Z" fill="white"/>
<path d="M5.73855 168.548H0.937435C0.692045 168.548 0.5 168.356 0.5 168.117V165.977C0.5 165.732 0.692045 165.546 0.937435 165.546H5.73855C5.98394 165.546 6.17598 165.354 6.17598 165.115V160.915C6.17598 153.415 7.92039 147.426 11.4412 142.955C14.962 138.484 19.8165 136.237 26.0366 136.237C29.0666 136.237 31.8193 136.887 34.2998 138.159C36.6204 139.351 38.4448 141.001 39.7571 143.061C39.8958 143.28 39.7838 143.604 39.5384 143.684L34.0811 145.877C33.8624 145.957 33.617 145.851 33.537 145.632C32.038 141.704 29.3334 139.756 25.4605 139.756C21.5876 139.756 18.7496 141.246 16.461 144.227C14.1725 147.208 13.0256 150.865 13.0256 155.198C13.0256 159.153 13.8418 162.512 15.4528 165.354C15.5328 165.487 15.6715 165.573 15.8369 165.573H26.474C26.7194 165.573 26.9115 165.764 26.9115 166.004V168.144C26.9115 168.388 26.7194 168.575 26.474 168.575H15.6662C15.4208 168.575 15.2288 168.766 15.2288 169.006V201.588C15.2288 201.833 15.0367 202.019 14.7913 202.019H6.55474C6.30935 202.019 6.1173 201.828 6.1173 201.588V169.006C6.1173 168.761 5.92526 168.575 5.67987 168.575L5.73855 168.548Z" fill="white"/>
<path d="M75.5417 174.073C75.7871 174.073 75.9792 173.855 75.9792 173.61C75.5417 167.297 73.8507 162.453 70.906 159.094C67.876 155.629 64.0617 153.92 59.4793 153.92C56.7534 153.92 54.1074 154.676 51.5948 156.22C49.0823 157.764 46.9858 160.069 45.3214 163.097C43.7103 166.025 42.7021 169.544 42.3234 173.578C42.3234 173.823 42.5154 174.068 42.7608 174.068H75.5737H75.5417V174.073ZM46.1376 199.864C42.0726 197.889 38.7705 194.961 36.2633 191.086C33.7507 187.237 32.4971 182.553 32.4971 177.028C32.4971 171.502 33.7774 166.845 36.3166 162.97C38.8826 159.121 42.2113 156.199 46.3563 154.192C50.5013 152.217 54.8916 151.211 59.5594 151.211C64.2218 151.211 68.0947 152.185 71.8342 154.133C75.5737 156.082 78.5718 159.009 80.8336 162.911C83.0421 166.701 84.1624 171.252 84.2157 176.591C84.2157 176.836 84.0237 177.022 83.7783 177.022H42.126V177.129C42.126 181.329 43.1342 185.039 45.124 188.259C47.1138 191.48 49.7331 194.003 52.9498 195.765C56.1666 197.527 59.5807 198.421 63.2082 198.421C66.537 198.421 69.7004 197.665 72.6984 196.121C75.5631 194.631 78.017 192.411 80.0654 189.43C80.2041 189.239 80.4762 189.186 80.6629 189.324L82.0019 190.351C82.1673 190.484 82.2206 190.729 82.1086 190.921C79.8201 194.738 76.6513 197.639 72.5864 199.699C68.4147 201.785 63.9124 202.839 59.0846 202.839C54.2568 202.839 50.1652 201.838 46.1002 199.858H46.1376V199.864Z" fill="white"/>
<path d="M96.8427 152.355H104.754C104.999 152.355 105.191 152.547 105.191 152.787V164.029C105.191 164.46 105.735 164.598 105.981 164.247C108.733 160.074 111.764 156.933 115.066 154.767C118.693 152.409 122.513 151.243 126.492 151.243C132.328 151.243 136.612 153.574 139.37 158.232C139.509 158.45 139.397 158.722 139.178 158.828L132.494 162.16C132.248 162.267 131.976 162.16 131.896 161.889C131.107 159.424 130.178 157.609 129.112 156.47C127.965 155.251 126.359 154.655 124.284 154.655C122.075 154.655 119.563 155.576 116.783 157.418C113.999 159.259 111.545 161.969 109.39 165.514C107.234 169.064 105.954 173.312 105.517 178.22C105.517 178.22 105.517 178.247 105.517 178.273V201.54C105.517 201.785 105.325 201.971 105.079 201.971H96.8427C96.5973 201.971 96.4053 201.78 96.4053 201.54V152.76C96.4053 152.515 96.5973 152.329 96.8427 152.329V152.355Z" fill="white"/>
<path d="M148.588 152.355H156.499C156.744 152.355 156.936 152.547 156.936 152.787V164.732C156.936 165.163 157.507 165.328 157.726 164.95C158.761 163.081 159.988 161.346 161.433 159.696C163.237 157.609 165.253 155.933 167.488 154.687C171.5 152.414 175.698 151.275 180.147 151.275C186.287 151.275 190.896 153.063 193.98 156.609C197.063 160.186 198.589 166.009 198.589 174.079V201.546C198.589 201.79 198.397 201.977 198.151 201.977H189.915C189.669 201.977 189.477 201.785 189.477 201.546V174.403C189.477 167.361 188.576 162.326 186.805 159.345C185.034 156.364 182.057 154.873 177.912 154.873C174.941 154.873 171.937 155.768 168.854 157.583C165.77 159.398 163.151 162.054 160.969 165.573C158.788 169.091 157.561 173.318 157.257 178.22C157.257 178.22 157.257 178.22 157.257 178.247V201.514C157.257 201.759 157.064 201.945 156.819 201.945H148.588C148.342 201.945 148.15 201.753 148.15 201.514V152.76C148.15 152.515 148.342 152.329 148.588 152.329V152.355Z" fill="white"/>
<path d="M280.474 152.355H288.385C288.631 152.355 288.823 152.547 288.823 152.787V164.732C288.823 165.163 289.393 165.328 289.612 164.95C290.647 163.081 291.874 161.346 293.32 159.696C295.123 157.609 297.139 155.933 299.374 154.687C303.386 152.414 307.584 151.275 312.033 151.275C318.173 151.275 322.783 153.063 325.861 156.609C328.944 160.186 330.47 166.009 330.47 174.079V201.546C330.47 201.79 330.278 201.977 330.032 201.977H321.801C321.556 201.977 321.364 201.785 321.364 201.546V174.403C321.364 167.361 320.462 162.326 318.691 159.345C316.92 156.364 313.943 154.873 309.798 154.873C306.827 154.873 303.823 155.768 300.74 157.583C297.657 159.398 295.037 162.054 292.856 165.573C290.674 169.091 289.447 173.318 289.143 178.22C289.143 178.22 289.143 178.22 289.143 178.247V201.514C289.143 201.759 288.951 201.945 288.705 201.945H280.469C280.223 201.945 280.031 201.753 280.031 201.514V152.76C280.031 152.515 280.223 152.329 280.469 152.329V152.355H280.474Z" fill="white"/>
<path d="M376.086 197.724C378.54 196.452 380.721 194.232 382.685 191.118C384.648 188.004 385.795 183.804 386.173 178.524C386.173 178.524 386.173 178.524 386.173 178.497V176.224C386.173 176.224 386.173 176.224 386.173 176.197C385.795 170.917 384.621 166.611 382.626 163.305C380.636 159.999 378.369 157.615 375.862 156.183C373.354 154.746 371.007 154.043 368.879 154.043C363.614 154.043 359.634 156.263 356.876 160.707C354.15 165.152 352.758 170.459 352.758 176.634C352.758 180.456 353.387 184.139 354.641 187.658C355.894 191.176 357.778 194.077 360.317 196.297C362.824 198.543 365.881 199.656 369.428 199.656C371.418 199.645 373.659 198.996 376.086 197.724ZM353.99 199.427C350.362 196.989 347.636 193.795 345.833 189.84C344.004 185.859 343.107 181.632 343.107 177.166C343.107 172.237 344.062 167.824 345.999 163.896C347.935 159.967 350.693 156.853 354.321 154.581C357.948 152.308 362.285 151.168 367.305 151.168C374.859 151.168 380.892 154.309 385.389 160.622C385.635 160.973 386.179 160.814 386.179 160.377V136.679C386.179 136.434 386.371 136.243 386.616 136.243H394.853C395.098 136.243 395.29 136.434 395.29 136.679V201.546C395.29 201.791 395.098 201.977 394.853 201.977H386.616C386.371 201.977 386.179 201.785 386.179 201.546V193.311C386.179 192.906 385.635 192.741 385.389 193.066C380.668 199.731 374.613 203.063 367.193 203.063C362.008 203.057 357.617 201.838 353.99 199.427Z" fill="white"/>
<path d="M445.724 191.086C443.051 194.226 440.352 196.42 437.62 197.697C434.868 198.969 432.521 199.619 430.531 199.619C426.466 199.619 423.409 198.182 421.366 195.259C419.323 192.363 418.309 188.621 418.309 184.075C418.309 181.803 418.608 179.306 419.184 176.575C420.576 170.401 423.196 165.088 426.957 160.649C430.723 156.204 435.247 153.984 440.512 153.984C442.368 153.984 444.251 154.527 446.188 155.581C448.124 156.635 449.762 158.424 451.128 160.888C452.493 163.353 453.171 166.493 453.171 170.315C453.171 172.375 453.005 174.324 452.733 176.139C452.733 176.139 452.733 176.139 452.733 176.165L452.189 178.438C452.189 178.438 452.189 178.438 452.189 178.465C450.578 183.745 448.423 187.945 445.75 191.059L445.724 191.086ZM468.689 188.323C468.524 188.132 468.252 188.132 468.059 188.297C465.958 190.271 463.776 191.927 461.487 193.279C460.148 194.093 459.14 194.498 458.543 194.498C457.508 194.498 457.886 192.954 457.886 192.928L467.217 152.893C467.27 152.622 467.078 152.377 466.806 152.377H458.921C458.729 152.377 458.537 152.51 458.511 152.702L456.548 161.016C456.467 161.421 455.918 161.447 455.731 161.069C452.733 154.463 447.329 151.131 439.584 151.131C434.617 151.131 430.061 152.27 425.863 154.543C421.691 156.816 418.171 159.93 415.306 163.859C412.468 167.787 410.478 172.226 409.358 177.156C408.84 179.428 408.568 181.787 408.568 184.198C408.568 189.723 410.153 194.248 413.289 197.766C416.426 201.285 421.147 203.073 427.447 203.073C434.841 203.073 441.659 199.768 447.879 193.162C448.178 192.837 448.695 193.109 448.615 193.54L447.66 197.686C447.607 197.905 447.553 198.118 447.521 198.309C447.441 198.687 447.415 199.039 447.415 199.31C447.415 200.204 447.66 200.854 448.151 201.343C448.53 201.695 449.052 201.913 449.703 201.993H451.341C451.341 201.993 451.368 201.993 451.394 201.993C452.488 201.913 453.576 201.641 454.696 201.237C455.134 201.072 455.598 200.886 456.062 200.694C457.892 199.906 459.77 198.852 461.765 197.495C462.965 196.68 465.691 194.354 469.921 190.532C470.087 190.367 470.113 190.128 469.975 189.936L468.668 188.339L468.689 188.323Z" fill="white"/>
<path d="M451.394 201.945C451.068 201.971 450.764 201.998 450.439 201.998C450.194 201.998 449.948 201.998 449.729 201.945H451.367H451.394Z" fill="white"/>
<path d="M246.76 191.086C244.087 194.226 241.388 196.42 238.657 197.697C235.904 198.969 233.557 199.619 231.567 199.619C227.502 199.619 224.445 198.182 222.402 195.259C220.354 192.363 219.346 188.621 219.346 184.075C219.346 181.803 219.644 179.306 220.221 176.575C221.613 170.401 224.232 165.088 227.993 160.649C231.759 156.204 236.283 153.984 241.548 153.984C243.405 153.984 245.288 154.527 247.224 155.581C249.161 156.635 250.798 158.424 252.164 160.888C253.53 163.353 254.207 166.493 254.207 170.315C254.207 172.375 254.042 174.324 253.77 176.139C253.77 176.139 253.77 176.139 253.77 176.165L253.226 178.438C253.226 178.438 253.226 178.438 253.226 178.465C251.614 183.745 249.459 187.945 246.787 191.059L246.76 191.086ZM269.757 188.323C269.592 188.132 269.32 188.132 269.128 188.297C267.026 190.271 264.844 191.927 262.556 193.279C261.217 194.093 260.208 194.498 259.611 194.498C258.576 194.498 258.955 192.954 258.955 192.928L268.285 152.893C268.338 152.622 268.146 152.377 267.874 152.377H259.99C259.798 152.377 259.606 152.51 259.579 152.702L257.616 161.016C257.536 161.421 256.986 161.447 256.8 161.069C253.802 154.463 248.398 151.131 240.652 151.131C235.685 151.131 231.13 152.27 226.931 154.543C222.76 156.816 219.239 159.93 216.374 163.859C213.536 167.787 211.546 172.226 210.426 177.156C209.909 179.428 209.637 181.787 209.637 184.198C209.637 189.723 211.221 194.248 214.358 197.766C217.495 201.285 222.216 203.073 228.516 203.073C235.909 203.073 242.727 199.768 248.947 193.162C249.246 192.837 249.763 193.109 249.683 193.54L248.728 197.686C248.675 197.905 248.622 198.118 248.59 198.309C248.51 198.687 248.483 199.039 248.483 199.31C248.483 200.204 248.728 200.854 249.219 201.343C249.603 201.695 250.121 201.913 250.772 201.993H252.409C252.409 201.993 252.436 201.993 252.463 201.993C253.556 201.913 254.645 201.641 255.765 201.237C256.202 201.072 256.666 200.886 257.13 200.694C258.96 199.906 260.838 198.852 262.833 197.495C264.033 196.68 266.759 194.354 270.99 190.532C271.155 190.367 271.182 190.128 271.043 189.936L269.736 188.339L269.757 188.323Z" fill="white"/>
<path d="M252.462 201.945C252.137 201.971 251.833 201.998 251.507 201.998C251.262 201.998 251.017 201.998 250.798 201.945H252.436H252.462Z" fill="white"/>
<path d="M512.566 199.752C507.301 197.484 503.817 194.274 502.121 190.144C502.009 189.888 502.18 189.569 502.468 189.51L508.656 188.392C508.885 188.366 509.088 188.504 509.173 188.707C510.123 192.119 512.657 194.759 516.796 196.569C521.085 198.464 525.945 199.411 531.381 199.411C536.817 199.411 541.335 198.32 544.675 196.143C548.014 193.96 549.684 190.633 549.684 186.157C549.684 183.863 548.82 182.053 547.123 180.679C545.395 179.301 543.266 178.268 540.679 177.608C538.119 176.948 534.582 176.229 530.09 175.458C524.19 174.51 519.33 173.451 515.591 172.333C511.819 171.183 508.597 169.293 505.951 166.627C503.273 163.96 501.95 160.26 501.95 155.496C501.95 151.424 503.391 147.921 506.325 145.026C509.232 142.13 513.03 139.948 517.693 138.457C522.355 136.993 527.332 136.248 532.565 136.248C539.324 136.248 545.4 137.451 550.719 139.889C555.84 142.21 559.238 145.398 560.961 149.412C561.079 149.667 560.903 149.987 560.614 150.045L554.57 151.163C554.341 151.19 554.138 151.046 554.053 150.849C553.103 147.437 550.713 144.77 546.862 142.843C542.861 140.837 538.231 139.862 532.992 139.862C527.092 139.862 522.344 140.922 518.749 143.077C515.18 145.228 513.398 148.613 513.398 153.26C513.398 155.64 514.289 157.508 516.044 158.882C517.799 160.26 519.986 161.32 522.547 162.097C525.108 162.869 528.703 163.619 533.28 164.391C539.292 165.45 544.125 166.515 547.78 167.606C551.434 168.697 554.597 170.56 557.216 173.174C559.836 175.782 561.159 179.428 561.159 184.075C561.159 190.245 558.193 195.004 552.298 198.331C546.398 201.657 539.319 203.324 531.12 203.324C524.243 203.324 518.087 202.147 512.593 199.768H512.566V199.752Z" fill="white"/>
<path d="M570.462 201.945C572.692 201.945 574.5 200.151 574.5 197.937C574.5 195.722 572.692 193.928 570.462 193.928C568.232 193.928 566.424 195.722 566.424 197.937C566.424 200.151 568.232 201.945 570.462 201.945Z" fill="white"/>
</g>
<defs>
<clipPath id="clip0_2815_4469">
<rect width="574" height="277" fill="white" transform="translate(0.5 0.5)"/>
</clipPath>
</defs>
</svg>
