<svg width="803" height="108" viewBox="0 0 803 108" fill="none" xmlns="http://www.w3.org/2000/svg">
<path d="M192.073 54.1132C192.073 33.2501 204.878 16.4399 224.941 16.4399C233.355 16.4399 242.415 19.7559 247.639 26.7103V17.8676H266.685V90.3128H247.639V81.6083C242.554 88.5627 233.401 91.7405 224.941 91.7405C204.878 91.7405 192.073 74.9303 192.073 54.0672V54.1132ZM247.177 54.1132C247.177 42.8297 239.919 34.4015 229.887 34.4015C219.856 34.4015 211.858 42.7836 211.858 54.1132C211.858 65.4429 219.44 73.825 229.887 73.825C240.335 73.825 247.177 65.7192 247.177 54.1132Z" fill="white"/>
<path d="M294.746 17.9137V27.6314C298.953 21.0915 307.551 16.4859 316.288 16.4859C327.799 16.4859 334.918 21.2757 338.709 29.3815C343.933 20.677 353.965 16.4859 362.286 16.4859C382.811 16.4859 389.191 30.5328 389.191 49.0932V90.4049H369.682V51.5802C369.682 42.0007 367.371 34.9081 357.016 34.9081C347.4 34.9081 342.176 42.5994 342.176 52.1329V90.4049H322.668V51.5802C322.668 42.0007 320.495 34.9081 310.001 34.9081C300.108 34.9081 295.162 43.2902 295.162 52.8697V90.4049H275.654V17.9137H294.746Z" fill="white"/>
<path d="M397.974 17.9137H416.465V26.6181C422.429 19.5256 431.027 16.4859 439.718 16.4859C459.781 16.4859 472.587 33.2962 472.587 54.0211C472.587 74.7461 459.504 91.8326 439.441 91.8326C430.981 91.8326 422.706 88.5166 417.482 82.1149V107.998H397.974V17.9137ZM452.662 54.1132C452.662 42.6454 445.266 34.4015 434.633 34.4015C424.74 34.4015 417.344 42.5073 417.344 54.1132C417.344 65.7192 424.602 73.825 434.633 73.825C445.266 73.825 452.662 65.581 452.662 54.1132Z" fill="white"/>
<path d="M477.025 54.1132C477.025 33.112 494.175 16.4399 515.857 16.4399C537.538 16.4399 554.827 33.112 554.827 54.1132C554.827 75.1145 537.676 91.7866 515.857 91.7866C494.037 91.7866 477.025 75.1145 477.025 54.1132ZM534.903 54.1132C534.903 42.8297 526.766 34.4015 515.857 34.4015C504.947 34.4015 496.81 42.7836 496.81 54.1132C496.81 65.4429 504.947 73.825 515.857 73.825C526.766 73.825 534.903 65.581 534.903 54.1132Z" fill="white"/>
<path d="M559.265 69.1734V4.87997L570.314 2.34692V17.9137H594.445V27.0326H570.314V69.4958C570.314 79.2134 574.52 81.9768 580.206 81.9768C586.771 81.9768 591.856 78.0621 591.856 78.0621L595.508 86.6284C592.734 88.5166 586.91 91.8326 579.236 91.8326C566.708 91.8326 559.311 85.7533 559.311 69.2194L559.265 69.1734Z" fill="white"/>
<path d="M598.79 55.1264C598.79 34.6778 614.184 18.3282 634.432 18.3282C653.34 18.3282 668.318 34.5397 668.318 54.712C668.318 56.7384 668.04 58.903 668.04 59.0412H610.301C612.058 73.0881 622.968 81.9307 636.05 81.9307C644.048 81.9307 652.045 79.1674 657.87 74.3776L662.678 82.4834C655.097 88.4245 645.666 91.7405 635.912 91.7405C615.849 91.7405 598.837 77.4173 598.837 55.0804L598.79 55.1264ZM657.408 50.6591C656.252 37.6254 646.221 28.184 633.831 28.184C621.442 28.184 611.873 37.4412 610.255 50.6591H657.408Z" fill="white"/>
<path d="M672.802 53.929C673.588 33.3422 690.6 17.7755 711.403 18.5584C721.157 18.9269 729.894 22.7495 736.32 28.9209L729.062 36.474C724.855 32.2369 718.568 29.5657 711.125 29.2894C696.286 28.7367 684.683 39.3294 684.128 54.3896C683.573 69.0352 693.882 80.7333 709.461 81.2859C717.459 81.6083 724.855 78.799 729.987 74.1013L736.089 82.5755C729.016 88.839 719.262 92.3853 708.675 91.9708C687.872 91.1879 672.062 74.5158 672.848 53.929H672.802Z" fill="white"/>
<path d="M740.758 4.46547L751.806 2.43903V31.7763C756.753 23.21 765.767 18.2821 776.261 18.2821C793.736 18.2821 802.01 28.5525 802.01 47.5734V90.3128H790.823V49.0011C790.823 35.9674 785.738 29.013 772.933 29.013C760.127 29.013 751.853 39.2834 751.853 50.4749V90.3128H740.804V4.46547H740.758Z" fill="white"/>
<path d="M183.012 67.2851C183.012 67.2851 182.734 67.7456 182.549 67.9299C178.759 71.5222 172.795 73.871 166.693 73.871C154.35 73.871 146.63 65.4429 146.63 54.1593C146.63 42.8757 154.766 34.4476 166.138 34.4476C171.917 34.4476 176.586 36.3358 179.914 39.3755C180.515 39.9742 181.625 41.1717 182.642 42.8297C183.89 35.9674 186.34 29.6578 189.761 24.2693C182.919 19.2493 174.829 16.4859 165.676 16.4859C143.995 16.4859 126.844 33.112 126.844 54.1593C126.844 75.2066 143.995 91.8326 165.676 91.8326C174.829 91.8326 183.382 89.1614 190.085 84.5098C186.756 79.4898 184.399 73.6407 183.012 67.2851Z" fill="white"/>
<path d="M108.353 43.3824C102.898 16.2558 77.8419 -2.02824 50.8445 0.18242C48.7642 0.366642 46.6839 0.642975 44.5574 1.05747C43.7253 1.2417 42.9394 1.42592 42.1535 1.61014C14.1853 8.51845 -3.70509 36.2438 2.07346 64.66C7.52842 91.7867 32.538 110.025 59.5354 107.814C61.6619 107.676 63.7422 107.353 65.8687 106.939C66.6546 106.801 67.4405 106.617 68.2726 106.432C96.2408 99.524 114.039 71.7986 108.306 43.3824H108.353ZM83.528 87.5496C79.2287 91.188 74.1898 93.9973 68.5037 95.7935C66.8395 96.3001 65.1753 96.7146 63.511 97.037H63.4648C62.8638 97.2212 62.2629 97.3594 61.6157 97.4054C61.3845 97.4054 61.1996 97.4054 61.0147 97.4054C54.0342 97.8199 47.9321 92.7538 47.1924 85.7995C46.7764 81.9769 48.0245 78.3385 50.4284 75.7133C50.7058 75.3909 50.9831 75.0686 51.3067 74.7922H51.353L54.4503 71.7065L64.7592 61.3901L72.5718 53.6528L76.4088 49.8302C77.8419 47.5735 78.5353 44.8101 78.2117 41.9547C77.9805 39.6059 77.1022 37.5334 75.7616 35.7833L58.5184 53.008L54.1267 57.3372L43.1705 68.2524C41.1827 70.2788 39.6109 72.7197 38.5015 75.3449C37.0222 78.8912 36.4212 82.8059 36.8372 86.8587C36.9297 87.5496 37.0222 88.2404 37.1608 88.8852C37.5769 90.9577 38.2241 92.9381 39.1487 94.7803C27.2217 90.1287 17.4213 80.3649 13.2607 67.2391C7.71333 49.7841 13.6306 31.5001 26.8519 20.4008C31.1511 16.8084 36.19 13.9991 41.8761 12.2029C43.4941 11.6963 45.1121 11.2357 46.7301 10.9594C46.7764 10.9133 46.8226 10.9133 46.8688 10.9133C47.4698 10.7291 48.117 10.637 48.7642 10.5449C48.9491 10.5449 49.134 10.4988 49.3189 10.4988H49.4576C56.3919 10.1304 62.4478 15.2425 63.1874 22.1509C63.6035 25.9274 62.3553 29.5197 59.9977 32.1909H59.9515C59.6741 32.5594 59.3967 32.8357 59.1193 33.1121C59.0269 33.2042 58.8882 33.2963 58.7957 33.3884L34.6183 57.4754C32.8616 59.8242 31.937 62.8639 32.3069 66.0417C32.538 68.2984 33.4163 70.3709 34.7107 72.0289L67.1169 39.744C69.1509 37.6715 70.7689 35.1846 71.8784 32.5133C73.3577 29.0131 73.9587 25.0984 73.5426 21.0455C73.4501 20.3547 73.3577 19.6639 73.219 19.0191C72.803 16.9466 72.1095 14.9662 71.2312 13.1701C83.1581 17.8217 92.9123 27.5854 97.1191 40.7112C102.667 58.1202 96.7493 76.4502 83.528 87.5035V87.5496Z" fill="white"/>
</svg>
