<svg width="391" height="386" viewBox="0 0 391 386" fill="none" xmlns="http://www.w3.org/2000/svg">
<path d="M99.0564 162.135C99.0564 137.127 107.451 127.179 122.008 127.179C136.564 127.179 145.051 137.127 145.051 162.135C145.051 187.142 136.656 197.09 122.008 197.09C107.359 197.09 99.0564 187.142 99.0564 162.135ZM135.539 162.043C135.539 136.944 131.717 130.53 122.008 130.53C112.299 130.53 108.575 137.127 108.575 162.043C108.575 186.959 112.306 193.746 122.008 193.746C131.709 193.746 135.539 187.051 135.539 162.043Z" fill="white"/>
<path d="M153.078 175.709V127.833H162.405V175.99C162.405 188.353 165.578 192.535 175.28 192.535C184.982 192.535 188.904 188.445 188.904 175.99V127.833H192.917V175.8C192.917 191.697 186.854 197.09 173.139 197.09C159.89 196.907 153.078 191.233 153.078 175.709Z" fill="white"/>
<path d="M220.44 167.992H211.763V196.436H202.803V127.833H220.808C233.216 127.833 241.893 132.67 241.893 147.631C241.893 158.509 237.138 164.549 229.669 166.873L242.077 196.436H232.375L220.433 167.992H220.44ZM220.723 164.366C229.026 164.366 232.573 160.832 232.573 147.54C232.573 134.247 228.934 131.178 220.348 131.178H211.763V164.366H220.723Z" fill="white"/>
<path d="M247.963 162.135C247.963 137.127 256.358 127.179 270.914 127.179C285.471 127.179 293.957 137.127 293.957 162.135C293.957 187.142 285.563 197.09 270.914 197.09C256.266 197.09 247.963 187.142 247.963 162.135ZM284.446 162.043C284.446 136.944 280.623 130.53 270.914 130.53C261.205 130.53 257.482 137.127 257.482 162.043C257.482 186.959 261.213 193.746 270.914 193.746C280.616 193.746 284.446 187.051 284.446 162.043Z" fill="white"/>
<path d="M68.6011 233.046L56.8429 285.012H49.5646L37.0645 216.41H46.3L56.2846 270.79L68.7848 216.41H74.0068L86.5069 270.607L96.5834 216.41H100.223L87.7223 285.012H80.6278L68.594 233.046H68.6011Z" fill="white"/>
<path d="M106.292 216.41H139.695V219.754H115.436V248.106H137.271V251.358H115.436V281.66H140.253V285.005H106.292V216.402V216.41Z" fill="white"/>
<path d="M144.825 284.174V281.104C148.838 281.477 153.502 281.85 158.074 281.85C167.868 281.85 172.44 278.225 172.44 270.6C172.44 266.791 171.415 264.186 169.359 261.771C167.027 258.983 163.762 256.66 160.031 253.499C155.834 250.056 152.103 247.176 149.396 243.55C147.157 240.481 145.475 237.045 145.475 232.398C145.475 221.148 153.127 215.945 165.628 215.945C169.083 215.945 173.556 216.41 177.76 217.156V220.225C174.404 219.761 170.673 219.479 167.218 219.479C158.724 219.479 154.06 222.549 154.06 229.427C154.06 233.053 155.367 235.75 157.607 238.355C160.222 241.516 163.762 244.212 167.5 247.282C171.514 250.626 174.87 253.323 177.393 256.575C179.725 259.645 181.315 263.172 181.315 268.192C181.315 279.717 172.637 285.483 160.038 285.483C155.092 285.483 149.778 284.927 144.832 284.181L144.825 284.174Z" fill="white"/>
<path d="M181.767 216.41H222.914V219.754H206.958V285.012H197.723V219.754H181.767V216.41Z" fill="white"/>
<path d="M228.793 216.41H262.195V219.754H237.937V248.106H259.771V251.358H237.937V281.66H262.753V285.005H228.793V216.402V216.41Z" fill="white"/>
<path d="M287.662 256.568H278.984V285.012H270.024V216.41H288.029C300.437 216.41 309.115 221.246 309.115 236.207C309.115 247.085 304.359 253.125 296.89 255.449L309.298 285.012H299.597L287.655 256.568H287.662ZM287.944 252.942C296.247 252.942 299.794 249.408 299.794 236.116C299.794 222.823 296.155 219.754 287.57 219.754H278.984V252.942H287.944Z" fill="white"/>
<path d="M321.346 231.835V285.012H317.524V216.41H323.311L352.049 268.657V216.41H355.971V285.012H350.558L321.353 231.835H321.346Z" fill="white"/>
<path d="M325.077 197.083C325.247 164.564 325.523 132.431 325.89 101.467C325.982 91.0191 326.053 80.5711 326.102 70.123H322.074C322.131 80.5711 322.194 91.0191 322.286 101.467C322.618 132.396 322.894 164.535 323.078 197.083H325.077Z" fill="white"/>
<path d="M65.4211 197.083H69.2652C68.9755 154.517 68.6151 111.95 68.2052 70.123H66.5093C66.1066 111.943 65.725 154.51 65.4211 197.083Z" fill="white"/>
<path d="M67.513 2.82335C148.605 3.82309 240.735 4.69611 321.933 4.79467C321.926 17.2563 321.947 29.7108 321.975 42.1724H326.201C326.229 28.2816 326.243 14.3908 326.236 0.5H324.088C242.162 0.563364 149.149 1.4927 67.1738 2.48541C67.0395 15.5947 66.9123 28.8378 66.7781 42.1724H67.9228C67.7885 28.9575 67.6543 15.8271 67.513 2.82335Z" fill="white"/>
<path d="M324.929 305.999H323.268C323.191 331.732 323.035 357.085 322.781 381.642C313.701 381.571 259.898 381.149 259.898 381.149C219.416 380.867 114.242 380.557 69.8871 380.438C69.9225 356 69.9013 331.133 69.8447 305.999H64.8136C64.757 331.999 64.7429 357.718 64.8065 382.958V385.5C108.511 385.373 217.494 385.077 259.905 384.775L324.088 384.275H325.417L325.409 382.965C325.169 357.979 325.014 332.175 324.936 306.006L324.929 305.999Z" fill="white"/>
<path d="M116.736 308.386C118.715 308.386 120.736 308.639 122.545 308.97V307.837C120.269 307.337 117.874 307.083 115.641 307.083C105.96 307.083 100.993 312.075 100.993 322.812C100.993 333.549 105.96 338.456 115.641 338.456C118.001 338.456 120.142 338.202 122.545 337.702V336.569C120.651 336.865 118.842 337.153 116.736 337.153C107.183 337.153 104.441 332.957 104.441 322.727C104.441 312.498 107.176 308.386 116.736 308.386Z" fill="white"/>
<path d="M138.288 338.54C146.499 338.54 151.672 333.126 151.672 322.812C151.672 312.498 146.492 306.999 138.288 306.999C130.085 306.999 124.863 312.491 124.863 322.812C124.863 333.133 130.042 338.54 138.288 338.54ZM138.288 308.259C145.107 308.259 148.224 312.702 148.224 322.727C148.224 332.753 145.107 337.28 138.288 337.28C131.469 337.28 128.311 332.711 128.311 322.727C128.311 312.744 131.469 308.259 138.288 308.259Z" fill="white"/>
<path d="M156.773 307.295V326.586C156.773 334.767 160.603 338.54 168.518 338.54C176.856 338.54 180.007 335.098 180.007 326.501V307.295H178.573V326.544C178.573 334.049 176.128 336.984 168.892 336.984C162.073 336.984 160.01 333.964 160.01 326.544V307.295H156.766H156.773Z" fill="white"/>
<path d="M207.333 333.218L188.346 307.295H186.452V338.252H187.802V311.906L206.993 338.252H208.718V307.295H207.333V333.218Z" fill="white"/>
<path d="M226.319 338.252V308.555H237.053V307.295H212.427V308.555H223.118V338.252H226.319Z" fill="white"/>
<path d="M262.689 316.314C262.689 310.146 258.273 307.295 250.776 307.295H240.756V338.252H243.914V325.586H251.157L259.114 338.252H262.647L254.563 325.333C259.7 324.452 262.689 321.474 262.689 316.314ZM250.945 324.284H243.914V308.555H250.649C257.008 308.555 259.319 310.653 259.319 316.271C259.319 322.185 257.044 324.284 250.938 324.284H250.945Z" fill="white"/>
<path d="M278.984 338.252V326.128L290.014 307.295H288.375L278.27 324.495L268.25 307.295H264.633L275.783 326.297V338.252H278.984Z" fill="white"/>
<path d="M106.964 58.5272C123.244 56.0138 139.426 51.4375 155.919 52.9723L156.378 53.0075L158.561 53.3595C169.034 55.3027 178.368 60.8928 186.72 67.4475C187.681 68.229 188.642 69.0034 189.603 69.7849C189.723 69.6793 189.829 69.5878 189.95 69.4892L191.61 68.0529L193.278 66.6167C193.928 66.0323 194.578 65.455 195.235 64.8707C185.378 56.577 175.005 48.9592 162.144 46.0375C160.844 45.7206 158.667 45.3264 157.346 45.1222C145.213 43.876 132.96 45.791 121.202 48.2552C113.458 49.8252 105.904 51.5642 98.1238 52.6484C85.3551 54.2396 72.3674 53.3947 59.7541 50.8109C54.8784 49.8182 51.4654 48.8959 44.6606 46.9668C27.1646 42.0103 15.1803 36.8356 11.2585 35.1036C6.68664 33.083 2.98393 31.2666 0.510742 30.0063C1.06191 30.3513 18.7487 41.2429 28.38 45.3123C35.7996 48.3256 43.1272 51.4938 50.78 53.8664C68.8272 59.5903 88.2169 61.7799 106.971 58.5272H106.964Z" fill="white"/>
<path d="M361.348 41.9824C353.908 44.4395 346.453 47.0937 338.857 49.0651C326.363 52.2544 313.404 54.0708 300.508 53.4865C284.687 52.8035 269.593 47.7978 253.786 46.3122C247.214 45.6363 240.431 45.6082 233.81 46.4249L233.287 46.5375L231.202 46.9459L229.174 47.4387C219.91 49.8184 211.82 54.796 204.379 60.6044C204.033 60.8789 203.693 61.1465 203.354 61.421L202.344 62.2377C200.605 63.6529 198.895 65.1102 197.221 66.5746C196.465 67.2435 195.723 67.8983 194.981 68.5671C193.864 69.5316 192.748 70.4962 191.631 71.4537C189.391 73.3828 187.137 75.3048 184.862 77.2198C184.53 77.4944 184.198 77.783 183.866 78.0506C183.533 78.3322 183.201 78.6138 182.869 78.8814C180.573 80.8175 178.262 82.7325 175.93 84.6334C170.108 89.3857 164.214 94.0183 158.222 98.4538L154.979 100.686C157.487 100.735 165.493 100.805 168.073 100.862C191.836 101.305 217.289 102.206 241.06 102.65C239.795 101.664 233.471 96.8556 232.29 95.9122C231.28 95.1096 230.171 94.2084 228.998 93.2509C228.807 93.096 228.616 92.9411 228.425 92.7792C222.391 87.8439 214.42 81.1836 209.495 77.072C206.781 74.8472 204.11 72.5309 201.425 70.2075C201.298 70.3061 201.164 70.4047 201.037 70.5103C199.107 72.024 197.221 73.5588 195.73 74.7838C203.079 80.7541 210.83 87.006 218.25 92.7863C218.264 92.8003 218.285 92.8144 218.292 92.8285C218.462 92.9623 218.631 93.089 218.801 93.2228C220.306 94.3915 221.811 95.5602 223.323 96.7148C223.062 96.7148 222.914 96.7148 222.914 96.7148C208.781 97.0739 191.285 97.6442 177.216 97.9328C173.683 98.0243 167.422 98.13 162.646 98.2004C167.217 94.6027 172.609 90.2165 177.513 86.2175C179.993 84.2039 182.346 82.2819 184.417 80.6204C184.452 80.5922 184.487 80.5711 184.523 80.5429C184.869 80.2683 185.201 80.0078 185.547 79.7333C185.886 79.4587 186.226 79.1911 186.565 78.9166C188.911 77.0508 191.271 75.0866 193.673 73.1152C195.567 71.5663 197.482 70.0033 199.432 68.4826C201.143 67.1308 202.888 65.8072 204.64 64.5329C205.001 64.2724 205.354 64.019 205.714 63.7655C206.075 63.5121 206.428 63.2586 206.788 63.0122C211.961 59.4216 217.345 56.3238 223.02 54.3454C226.56 53.0922 230.263 52.191 234.001 51.7615C234.227 51.7193 234.672 51.6841 234.919 51.6841L235.859 51.6419C257.446 50.4943 278.617 59.4286 300.275 59.8581C313.828 60.1678 327.317 57.8938 340.213 53.8878C347.88 51.5503 355.215 48.3892 362.641 45.3829C372.266 41.3135 389.938 30.3445 390.49 29.9995C381.099 34.8152 371.298 38.61 361.334 41.9824H361.348Z" fill="white"/>
</svg>
