<?xml version="1.0" encoding="UTF-8"?>
<svg id="Camada_2" data-name="Camada 2" xmlns="http://www.w3.org/2000/svg" xmlns:xlink="http://www.w3.org/1999/xlink" viewBox="0 0 67.55 67.88">
  <defs>
    <style>
      .cls-1 {
        fill: #131313;
      }

      .cls-2 {
        fill: #8d00da;
      }

      .cls-3 {
        fill: url(#Gradiente_sem_nome_22);
      }

      .cls-4 {
        fill: #eee;
      }
    </style>
    <linearGradient id="Gradiente_sem_nome_22" data-name="Gradiente sem nome 22" x1="37.74" y1="51.56" x2="52.97" y2="51.56" gradientUnits="userSpaceOnUse">
      <stop offset="0" stop-color="#f1f1f1"/>
      <stop offset=".24" stop-color="#eee"/>
      <stop offset=".38" stop-color="#e6e6e6"/>
      <stop offset=".49" stop-color="#d8d8d8"/>
      <stop offset=".59" stop-color="#c5c5c4"/>
      <stop offset=".66" stop-color="#b3b3b2"/>
    </linearGradient>
  </defs>
  <g id="Camada_1-2" data-name="Camada 1">
    <g>
      <g>
        <path class="cls-4" d="M38.31,0h6.79c.32,0,.58.26.58.58v30.01c0,.32-.26.58-.58.58h-6.79c-.32,0-.58-.26-.58-.58V.58c0-.32.26-.58.58-.58Z"/>
        <path class="cls-4" d="M32.01.61v6.74c0,.33-.27.61-.61.61h-10.36c-.64,0-1.16.52-1.16,1.16v21.46c0,.33-.27.61-.61.61h-6.74c-.34,0-.61-.27-.61-.61V8.55c0-.33.27-.61.61-.61h6.64c.44,0,.83-.24,1.04-.62L23.92.32c.1-.2.31-.32.54-.32h6.94c.34,0,.61.27.61.61Z"/>
      </g>
      <path class="cls-4" d="M32.63,55.86c-1.5,7.03-7.83,12.02-15.88,12.02-9.53,0-16.75-7.03-16.75-16.32s7.21-16.32,16.75-16.32c8.03,0,14.35,4.97,15.87,11.98.08.38-.21.73-.59.73h-7.28c-.24,0-.47-.15-.56-.37-1.15-2.79-3.99-4.64-7.45-4.64-4.72,0-8.54,3.9-8.54,8.62s3.67,8.62,8.56,8.62c3.46,0,6.3-1.86,7.45-4.66.09-.21.3-.35.53-.35h7.35c.36,0,.64.34.56.69Z"/>
      <path class="cls-1" d="M45.1,50.41c-.18-.23-.17-.55.02-.77l.56-.65v-.03l-.61.67c-.21.22-.22.56-.03.8l4.08,5.24.02-.02.04.05.03-.03-4.1-5.27Z"/>
      <path class="cls-2" d="M66.92,67.15h-8.62c-.19,0-.38-.09-.49-.24l-3.91-5.08-.57-.74-4.15-5.38-.04-.05-4.1-5.22c-.19-.24-.17-.58.03-.8l.61-.67,5.01-5.45,6.82-7.34c.12-.13.28-.2.46-.2h8.31c.55,0,.83.65.45,1.05l-11.72,12.44c-.21.22-.23.57-.04.81l12.44,15.86c.32.41.03,1.01-.49,1.01Z"/>
      <path class="cls-3" d="M49.17,55.71l-3.33,3.5c-.11.11-.17.26-.17.42v6.92c0,.33-.27.61-.61.61h-6.73c-.33,0-.61-.27-.61-.61v-29.96c0-.33.27-.61.61-.61h6.73c.34,0,.61.27.61.61v12.38l-.61.67c-.21.22-.22.56-.03.8l4.1,5.22.04.05Z"/>
    </g>
  </g>
</svg>